<svg width="128" height="128" version="1.1" viewBox="0 0 128 128" xml:space="preserve" xmlns="http://www.w3.org/2000/svg"><defs><linearGradient id="SVGID_1_-0" x1="172" x2="571" y1="374" y2="-25.1" gradientTransform="matrix(1 0 0 -1 558 605)" gradientUnits="userSpaceOnUse"><stop style="stop-color:#62E1FB" offset="0"/><stop style="stop-color:#00A2F3" offset="1"/></linearGradient><linearGradient id="SVGID_2_-3" x1="447" x2="179" y1="260" y2="260" gradientTransform="matrix(1 0 0 -1 558 605)" gradientUnits="userSpaceOnUse"><stop style="stop-color:#00A2F3;stop-opacity:0" offset="0"/><stop style="stop-color:#0075CD" offset="1"/></linearGradient><linearGradient id="SVGID_3_-9" x1="175" x2="393" y1="367" y2="149" gradientTransform="matrix(1 0 0 -1 558 605)" gradientUnits="userSpaceOnUse"><stop style="stop-color:#A7F3CE" offset="0"/><stop style="stop-color:#61DB99" offset="1"/></linearGradient><linearGradient id="SVGID_4_-8" x1="428" x2="160" y1="260" y2="260" gradientTransform="matrix(1 0 0 -1 558 605)" gradientUnits="userSpaceOnUse"><stop style="stop-color:#61DB99;stop-opacity:0" offset="0"/><stop style="stop-color:#009E74" offset="1"/></linearGradient><linearGradient id="SVGID_5_-6" x1="404" x2="301" y1="163" y2="265" gradientTransform="matrix(1 0 0 -1 558 605)" gradientUnits="userSpaceOnUse"><stop style="stop-color:#61DB99;stop-opacity:0" offset="0"/><stop style="stop-color:#009E74" offset="1"/></linearGradient><linearGradient id="SVGID_6_-5" x1="273" x2="273" y1="297" y2="179" gradientTransform="matrix(1 0 0 -1 558 605)" gradientUnits="userSpaceOnUse"><stop style="stop-color:#FFF465" offset="0"/><stop style="stop-color:#FFE600" offset="1"/></linearGradient></defs>
<linearGradient id="SVGID_1_" x1="347" x2="427" y1="110" y2="29.7" gradientTransform="matrix(.242 0 0 -.242 1.46 129)" gradientUnits="userSpaceOnUse">
	<stop style="stop-color:#3B4041" offset="0"/>
	<stop style="stop-color:#6F7273" offset=".373"/>
	<stop style="stop-color:#C3C3C3" offset="1"/>
</linearGradient>
<path d="m103 122v-99.1c0-3.54-2.88-6.42-6.42-6.42h-83.8c-3.54 0-6.42 2.88-6.42 6.42v99.1c0 3.54 2.88 6.42 6.42 6.42h83.8c3.54 0 6.42-2.88 6.42-6.42z" style="fill:url(#SVGID_1_);stroke-width:.241"/>
<linearGradient id="SVGID_2_" x1="221" x2="221" y1="315" y2="-284" gradientTransform="matrix(.242 0 0 -.242 1.46 129)" gradientUnits="userSpaceOnUse">
	<stop style="stop-color:#F2F2F2" offset="0"/>
	<stop style="stop-color:#C3C3C3" offset="1"/>
</linearGradient>
<path d="m70.8 128h-57.9c-3.54 0-6.42-2.87-6.42-6.42v-99.1c0-3.54 2.87-6.42 6.42-6.42h83.8c3.54 0 6.42 2.87 6.42 6.42v74.9c0 0.982-0.386 1.92-1.08 2.62l-25 25.4c-1.63 1.66-3.87 2.59-6.2 2.59z" style="fill:url(#SVGID_2_);stroke-width:.241"/>
<linearGradient id="SVGID_3_" x1="164" x2="375" y1="236" y2="236" gradientTransform="matrix(.242 0 0 -.242 1.46 129)" gradientUnits="userSpaceOnUse">
	<stop style="stop-color:#C3C3C3;stop-opacity:0" offset="0"/>
	<stop style="stop-color:#777" offset="1"/>
</linearGradient>
<path d="m54.8 128h-42.6c-3.18 0-5.76-2.87-5.76-6.42v-99.1c0-3.54 2.58-6.42 5.76-6.42h42.6v112z" style="fill:url(#SVGID_3_);stroke-width:.241"/>
<linearGradient id="SVGID_4_" x1="179" x2="14.8" y1="183" y2="394" gradientTransform="matrix(.242 0 0 -.242 1.46 129)" gradientUnits="userSpaceOnUse">
	<stop style="stop-color:#C3C3C3;stop-opacity:0" offset="0"/>
	<stop style="stop-color:#777" offset="1"/>
</linearGradient>
<path d="m103 72.1v50.1c0 3.22-2.87 5.84-6.42 5.84h-83.8c-3.54 0-6.42-2.61-6.42-5.84v-50.1c0-0.355 96.7 0 96.7 0z" style="fill:url(#SVGID_4_);stroke-width:.241"/>
<linearGradient id="SVGID_5_" x1="336" x2="368" y1="81.4" y2="49.7" gradientTransform="matrix(.242 0 0 -.242 1.46 129)" gradientUnits="userSpaceOnUse">
	<stop style="stop-color:#F2F2F2" offset="0"/>
	<stop style="stop-color:#C3C3C3" offset="1"/>
</linearGradient>
<path d="m103 98.9s-0.19 0.537-0.936 1.28c-0.277 0.277-24.7 25.1-24.7 25.1-1.73 1.76-4.09 2.74-6.55 2.74 2.13 0 3.85-1.72 3.85-3.85v-18.8c0-3.55 2.87-6.42 6.42-6.42h21.9v-2.41e-4z" style="fill:url(#SVGID_5_);stroke-width:.241"/>
<g transform="matrix(.241 0 0 .241 1.41 4.77)">
	<rect x="89.3" y="280" width="265" height="18.2" style="fill:#777"/>
	<rect x="89.3" y="349" width="265" height="18.2" style="fill:#777"/>
	<rect x="89.3" y="419" width="160" height="18.2" style="fill:#777"/>
	<rect x="89.3" y="141" width="265" height="18.2" style="fill:#777"/>
	<rect x="89.3" y="211" width="265" height="18.2" style="fill:#777"/>
</g>






























<g transform="matrix(.159 0 0 .159 -41.7 -14)"><path d="m1048 212c-0.159-11.5-8.76-21-20.1-22.5-105-13.6-178-72.6-204-97-5.97-5.58-15.3-5.58-21.2 0-26.1 24.4-98.9 83.4-204 97-11.4 1.47-20 11-20.1 22.5-1.04 75 11.9 333 234 388 223-55.6 235-313 234-388z" style="fill:url(#SVGID_1_-0)"/><path d="m846 591c1.56-0.577 3.11-1.16 4.64-1.76 1.98-0.773 3.95-1.56 5.89-2.37 1.28-0.532 2.55-1.07 3.81-1.62 1.99-0.861 3.96-1.74 5.9-2.64 0.732-0.337 1.46-0.679 2.18-1.02 1.8-0.847 3.57-1.71 5.33-2.59 2.55-1.27 5.07-2.58 7.55-3.91 2.37-1.28 4.71-2.58 7.02-3.91 2.64-1.53 5.24-3.1 7.8-4.7 0.058-0.037 0.118-0.072 0.178-0.108 4.87-3.05 9.58-6.23 14.1-9.52 0.343-0.247 0.692-0.49 1.03-0.738 3.33-2.42 6.58-4.92 9.75-7.46 0.316-0.253 0.638-0.503 0.952-0.757 1.8-1.45 3.56-2.93 5.31-4.42 1.63-1.39 3.24-2.79 4.83-4.21 0.536-0.48 1.06-0.968 1.59-1.45 0.555-0.505 1.11-1.01 1.66-1.52 1.63-1.51 3.24-3.05 4.83-4.6 0.501-0.488 1.01-0.972 1.5-1.46 1.72-1.7 3.41-3.42 5.08-5.16 0.337-0.351 0.681-0.701 1.02-1.05 1.96-2.07 3.89-4.16 5.78-6.28 0.027-0.031 0.055-0.061 0.083-0.091 2.39-2.68 4.72-5.4 6.99-8.16 1.37-1.65 2.72-3.32 4.05-5 2.62-3.32 5.15-6.68 7.61-10.1 0.028-0.038 0.056-0.076 0.084-0.115 0.577-0.799 1.14-1.6 1.71-2.4 0.248-0.35 0.501-0.699 0.747-1.05 0.399-0.568 0.788-1.14 1.18-1.71 0.408-0.59 0.82-1.18 1.22-1.77 1.32-1.94 2.61-3.88 3.88-5.84 1.79-2.76 3.54-5.53 5.23-8.33 2.09-3.44 4.1-6.92 6.06-10.4 0.082-0.149 0.168-0.295 0.25-0.444 0.434-0.779 0.858-1.56 1.28-2.34 0.239-0.438 0.483-0.873 0.72-1.31 1.22-2.25 2.4-4.51 3.56-6.77 0.1-0.196 0.204-0.392 0.304-0.587 0.469-0.919 0.93-1.84 1.39-2.76 0.157-0.314 0.317-0.626 0.474-0.941 0.253-0.509 0.498-1.02 0.748-1.53 1.57-3.2 3.1-6.42 4.57-9.65 2.6-5.71 5.04-11.5 7.34-17.2 0.718-1.8 1.43-3.6 2.12-5.4 1.82-4.75 3.54-9.51 5.17-14.3 0.101-0.297 0.207-0.593 0.308-0.89 0.309-0.909 0.611-1.82 0.914-2.73 0.118-0.354 0.24-0.709 0.356-1.06 1.15-3.49 2.25-6.97 3.31-10.4 0.092-0.303 0.188-0.607 0.279-0.912 0.556-1.84 1.1-3.68 1.62-5.52 0.592-2.05 1.17-4.1 1.73-6.15 0.839-3.06 1.64-6.12 2.41-9.16 0.46-1.81 0.912-3.62 1.35-5.42 0.193-0.797 0.379-1.59 0.568-2.39 0.104-0.44 0.211-0.88 0.314-1.32 0.508-2.17 0.997-4.33 1.47-6.49 0.065-0.295 0.133-0.59 0.197-0.885 0.394-1.8 0.773-3.59 1.14-5.38 0.209-1 0.416-2.01 0.617-3.01 0.407-2.01 0.802-4.02 1.18-6.01 0.01-0.047 0.019-0.095 0.027-0.143 0.354-1.86 0.695-3.72 1.03-5.57 0.308-1.72 0.61-3.43 0.9-5.13 0.337-1.98 0.659-3.94 0.97-5.9 0.059-0.371 0.12-0.745 0.179-1.12 0.052-0.329 0.1-0.655 0.152-0.984 0.128-0.828 0.258-1.66 0.383-2.48 0.304-2.01 0.593-4.01 0.872-5.99 0.04-0.288 0.083-0.578 0.123-0.865 0.102-0.739 0.202-1.47 0.301-2.21 0.053-0.391 0.107-0.783 0.16-1.17 0.044-0.332 0.085-0.661 0.13-0.991 0.399-3.03 0.771-6.02 1.11-8.97 0.751-6.44 1.37-12.7 1.89-18.7 0.01-0.09 0.016-0.183 0.024-0.273 0.129-1.5 0.248-2.99 0.362-4.46 0.057-0.74 0.114-1.48 0.169-2.21 0.254-3.41 0.473-6.73 0.661-9.96 0.071-1.23 0.141-2.44 0.203-3.64 0.132-2.5 0.243-4.94 0.339-7.31 0.028-0.699 0.055-1.39 0.08-2.08 0.139-3.73 0.238-7.3 0.304-10.7 1e-3 -0.061 0-0.124 0-0.186 0.072-3.78 0.104-7.34 0.106-10.6v-0.202c1e-3 -2.69-0.018-5.21-0.05-7.55-0.159-11.5-8.76-21-20.1-22.5-2.92-0.378-5.82-0.804-8.69-1.25-0.637-0.099-1.28-0.198-1.91-0.3-2.8-0.452-5.58-0.93-8.33-1.44-0.413-0.077-0.819-0.161-1.23-0.239-2.5-0.477-4.98-0.979-7.44-1.5-0.529-0.112-1.06-0.222-1.59-0.337-2.68-0.585-5.34-1.2-7.97-1.84-0.553-0.135-1.1-0.274-1.65-0.411-2.43-0.604-4.84-1.23-7.23-1.88-0.31-0.084-0.623-0.164-0.933-0.248-2.59-0.711-5.15-1.45-7.7-2.21-0.577-0.173-1.15-0.346-1.73-0.521-2.54-0.774-5.07-1.56-7.56-2.38-0.136-0.044-0.268-0.091-0.404-0.136-2.4-0.791-4.76-1.6-7.11-2.44-0.532-0.188-1.07-0.374-1.6-0.565-2.39-0.856-4.76-1.73-7.09-2.62-0.398-0.152-0.789-0.307-1.19-0.46-2.11-0.816-4.21-1.64-6.28-2.49-0.409-0.167-0.821-0.33-1.23-0.497-2.27-0.934-4.51-1.88-6.72-2.84-0.483-0.21-0.961-0.421-1.44-0.631-2.09-0.919-4.16-1.84-6.2-2.79-0.186-0.085-0.374-0.169-0.559-0.255-2.17-1.01-4.31-2.03-6.42-3.05-0.479-0.233-0.956-0.466-1.43-0.699-2.09-1.03-4.16-2.06-6.19-3.1-0.202-0.103-0.398-0.209-0.599-0.312-1.9-0.979-3.77-1.97-5.62-2.96-0.417-0.224-0.834-0.446-1.25-0.67-1.94-1.05-3.86-2.11-5.74-3.17-0.356-0.201-0.707-0.403-1.06-0.603-1.7-0.965-3.38-1.93-5.03-2.9-0.295-0.174-0.595-0.346-0.889-0.52-1.82-1.07-3.6-2.15-5.36-3.22-0.394-0.241-0.783-0.482-1.17-0.723-1.72-1.06-3.42-2.12-5.09-3.19-0.056-0.036-0.114-0.072-0.172-0.108-1.71-1.09-3.39-2.19-5.04-3.28-0.37-0.245-0.74-0.489-1.11-0.733-1.61-1.07-3.19-2.13-4.73-3.19-0.207-0.142-0.407-0.282-0.612-0.424-1.41-0.972-2.79-1.94-4.15-2.9-0.3-0.213-0.603-0.426-0.902-0.637-1.46-1.04-2.89-2.07-4.28-3.09-0.287-0.211-0.568-0.419-0.852-0.627-1.27-0.934-2.51-1.86-3.73-2.78-0.182-0.138-0.369-0.276-0.55-0.414-1.33-1-2.62-2-3.88-2.98-0.289-0.225-0.573-0.447-0.859-0.671-1.26-0.984-2.5-1.96-3.69-2.91-0.025-0.02-0.048-0.039-0.073-0.059-1.18-0.949-2.32-1.88-3.44-2.79-0.25-0.206-0.5-0.411-0.747-0.614-1.09-0.903-2.15-1.79-3.18-2.66-0.164-0.139-0.318-0.271-0.48-0.409-0.925-0.785-1.82-1.55-2.69-2.31-0.18-0.156-0.363-0.314-0.541-0.469-0.942-0.819-1.85-1.62-2.72-2.39-0.187-0.167-0.366-0.327-0.55-0.492-0.798-0.714-1.57-1.41-2.31-2.08-0.088-0.08-0.182-0.165-0.269-0.244-0.798-0.729-1.55-1.42-2.28-2.1-0.074-0.07-0.161-0.148-0.235-0.217-2.98-2.79-6.79-4.18-10.6-4.18v512c4.94-1.23 9.76-2.57 14.5-4 5.88-1.78 11.6-3.7 17.2-5.76z" style="fill:url(#SVGID_2_-3)"/><path d="m1021 228c-0.14-10.1-7.72-18.5-17.7-19.8-92.4-11.9-157-64-180-85.5-5.26-4.92-13.4-4.92-18.7 0-23 21.5-87.1 73.5-180 85.5-10 1.29-17.6 9.7-17.7 19.8-0.917 66.1 10.5 293 207 342 196-49 208-276 207-342z" style="fill:url(#SVGID_3_-9)"/><path d="m814 553-2.31-0.578c-41.6-10.4-77.2-30.5-106-59.6-23.7-24.2-42.8-54.9-56.7-91.1-24.1-63-27-127-26.5-160 0.186-13.5 10.5-25 23.9-26.7 78.3-10.1 133-54.2 153-72.7 8.26-7.72 21.2-7.72 29.5-1e-3 19.8 18.5 74.3 62.6 153 72.7 13.4 1.74 23.7 13.2 23.9 26.7 0.851 61.5-10.3 266-189 310zm0-397c-0.619 0-1.24 0.225-1.72 0.676-21.1 19.7-79.3 66.8-163 77.7-4.09 0.529-7.22 4.01-7.28 8.09-0.798 57.7 9.32 249 172 291 163-42.5 173-233 172-291-0.057-4.08-3.19-7.56-7.28-8.09-83.8-10.8-142-57.9-163-77.7-0.484-0.451-1.1-0.676-1.72-0.676z" style="fill:#fff"/><path d="m1021 228c-0.14-10.1-7.72-18.5-17.7-19.8-92.4-11.9-157-64-180-85.5-2.63-2.46-5.99-3.69-9.36-3.69v451c196-49 208-276 207-342z" style="fill:url(#SVGID_4_-8)"/><path d="m1032 359c-16.5 66.7-48.8 139-111 189l-194-194c-7.1-7.1-7.1-18.6 0-25.7 7.1-7.11 18.6-7.11 25.7 0l39 39c4.81 4.8 12.6 4.8 17.4 0l103-103c7.11-7.11 18.6-7.11 25.7 0h0.01z" style="fill:url(#SVGID_5_-6)"/><path d="m937 265c7.1 7.1 7.1 18.6-1e-3 25.7l-103 103c-19 19-49.9 19-68.9 0l-39-39c-7.1-7.1-7.1-18.6-3e-3 -25.7 7.1-7.11 18.6-7.11 25.7 0l39 39c4.8 4.8 12.6 4.8 17.4 0l103-103c7.1-7.1 18.6-7.1 25.7 1e-3z" style="fill:url(#SVGID_6_-5)"/></g></svg>
