<svg width="128" height="128" version="1.1" viewBox="0 0 128 128" xml:space="preserve" xmlns="http://www.w3.org/2000/svg">
<linearGradient id="SVGID_1_" x1="291" x2="554" y1="269" y2="302" gradientTransform="matrix(.251 0 0 -.251 .0481 129)" gradientUnits="userSpaceOnUse">
	<stop style="stop-color:#FFF465" offset="0"/>
	<stop style="stop-color:#FFE600" offset="1"/>
</linearGradient>
<path d="m114 95.2-68 8.49c-2.19 0.273-4.18-1.28-4.46-3.47l-8.49-68c-0.273-2.19 1.28-4.18 3.47-4.46l68-8.49c2.19-0.273 4.18 1.28 4.46 3.47l8.49 68c0.273 2.19-1.28 4.18-3.47 4.46z" style="fill:url(#SVGID_1_);stroke-width:.25"/>
<linearGradient id="SVGID_2_" x1="410" x2="229" y1="270" y2="411" gradientTransform="matrix(.251 0 0 -.251 .0481 129)" gradientUnits="userSpaceOnUse">
	<stop style="stop-color:#FFE600;stop-opacity:0" offset="0"/>
	<stop style="stop-color:#F59500" offset="1"/>
</linearGradient>
<path d="m62.5 53.2 44.7 34.7 0.833 0.571c0.966 0.662 2.28 0.499 3.05-0.38l2e-3 -0.0016c0.774-0.879 2.08-1.04 3.05-0.38 0.886 0.607 2.06 0.518 2.85-0.179l-5.37-43-29-22.5-24.4 3.05 3.31 26.5c0.082 0.658 0.442 1.25 0.989 1.62z" style="fill:url(#SVGID_2_);stroke-width:.25"/>
<linearGradient id="SVGID_3_" x1="252" x2="345" y1="413" y2="291" gradientTransform="matrix(.251 0 0 -.251 .0481 129)" gradientUnits="userSpaceOnUse">
	<stop style="stop-color:#FFB92D" offset="0"/>
	<stop style="stop-color:#F59500" offset="1"/>
</linearGradient>
<path d="m82.6 22 3.31 26.5c0.0821 0.658-0.122 1.32-0.56 1.82l-0.669 0.76c-0.774 0.879-2.08 1.04-3.05 0.381l-0.0025-0.0017c-0.967-0.662-2.28-0.498-3.05 0.381l-5e-4 5.01e-4c-0.774 0.88-2.08 1.04-3.05 0.381l-2e-3 -0.0012c-0.967-0.662-2.28-0.498-3.05 0.381-0.774 0.88-2.08 1.04-3.05 0.381-0.966-0.662-2.28-0.499-3.05 0.38l-0.0015 0.0017c-0.774 0.879-2.08 1.04-3.05 0.38l-0.833-0.571c-0.547-0.375-0.907-0.966-0.989-1.62l-3.31-26.5z" style="fill:url(#SVGID_3_);stroke-width:.25"/>
<linearGradient id="SVGID_4_" x1="312" x2="321" y1="166" y2="97.2" gradientTransform="matrix(.251 0 0 -.251 .0481 129)" gradientUnits="userSpaceOnUse">
	<stop style="stop-color:#FFE600;stop-opacity:0" offset="0"/>
	<stop style="stop-color:#F59500" offset="1"/>
</linearGradient>
<path d="m38.8 79 2.66 21.3c0.273 2.19 2.27 3.74 4.46 3.47l68-8.49c2.19-0.273 3.74-2.27 3.47-4.46l-2.66-21.3z" style="fill:url(#SVGID_4_);stroke-width:.25"/>
<g transform="matrix(.25 0 0 .25 6.09e-5 .0672)">
	
		<rect transform="matrix(.992 -.124 .124 .992 -44.7 30.3)" x="188" y="365" width="67.5" height="19.5" style="fill:#3b4041"/>
	
		<rect transform="matrix(.992 -.124 .124 .992 -39.3 31.8)" x="182" y="322" width="107" height="19.5" style="fill:#3b4041"/>
</g>
<linearGradient id="SVGID_5_" x1="65.1" x2="486" y1="256" y2="308" gradientTransform="matrix(.251 0 0 -.251 .0481 129)" gradientUnits="userSpaceOnUse">
	<stop style="stop-color:#C3C3C3" offset="0"/>
	<stop style="stop-color:#777" offset="1"/>
</linearGradient>
<path d="m125 104-78.3 9.77c-7.3 0.911-14-4.29-14.9-11.6l-8.07-64.6c-0.818-6.55-4.14-12.4-9.35-16.5l-2.25-1.75c-1.67-1.3-1.97-3.7-0.67-5.37 1.3-1.67 3.7-1.97 5.37-0.67l2.25 1.75c6.83 5.31 11.2 13 12.2 21.5l8.07 64.6c0.388 3.11 3.24 5.33 6.35 4.94l78.3-9.77c2.1-0.262 4.01 1.23 4.27 3.32 0.262 2.1-1.23 4.01-3.32 4.27z" style="fill:url(#SVGID_5_);stroke-width:.25"/>
<linearGradient id="SVGID_6_" x1="86" x2="48.1" y1="422" y2="451" gradientTransform="matrix(.251 0 0 -.251 .0481 129)" gradientUnits="userSpaceOnUse">
	<stop style="stop-color:#C3C3C3;stop-opacity:0" offset="0"/>
	<stop style="stop-color:#A4A4A4;stop-opacity:.267" offset=".267"/>
	<stop style="stop-color:#8B8B8B;stop-opacity:.542" offset=".542"/>
	<stop style="stop-color:#7C7C7C;stop-opacity:.794" offset=".794"/>
	<stop style="stop-color:#777" offset="1"/>
</linearGradient>
<path d="m18.8 15.2-2.25-1.75c-1.67-1.3-4.07-0.998-5.37 0.67-1.3 1.67-0.998 4.07 0.67 5.37l2.25 1.75c2.4 1.87 4.4 4.11 5.93 6.63l4.94-6.35c-1.74-2.35-3.81-4.47-6.18-6.32z" style="fill:url(#SVGID_6_);stroke-width:.25"/>
<linearGradient id="SVGID_7_" x1="49.6" x2="19.9" y1="485" y2="447" gradientTransform="matrix(.251 0 0 -.251 .0481 129)" gradientUnits="userSpaceOnUse">
	<stop style="stop-color:#62E1FB" offset="0"/>
	<stop style="stop-color:#00A2F3" offset="1"/>
</linearGradient>
<path d="m1.28 6.52c2.05-2.64 5.86-3.11 8.5-1.06l5.44 4.23c2.64 2.05 3.11 5.86 1.06 8.5-2.05 2.64-5.86 3.11-8.5 1.06l-5.44-4.23c-2.64-2.05-3.11-5.86-1.06-8.5z" style="fill:url(#SVGID_7_);stroke-width:.25"/>
<linearGradient id="SVGID_8_" x1="233" x2="201" y1="60.3" y2="84.6" gradientTransform="matrix(1 0 0 -1 .192 517)" gradientUnits="userSpaceOnUse">
	<stop style="stop-color:#C3C3C3;stop-opacity:0" offset="0"/>
	<stop style="stop-color:#A4A4A4;stop-opacity:.267" offset=".267"/>
	<stop style="stop-color:#8B8B8B;stop-opacity:.542" offset=".542"/>
	<stop style="stop-color:#7C7C7C;stop-opacity:.794" offset=".794"/>
	<stop style="stop-color:#777" offset="1"/>
</linearGradient>
<polygon transform="matrix(.25 0 0 .25 6.09e-5 .0672)" points="206 453 247 448 213 421 212 421 202 422" style="fill:url(#SVGID_8_)"/>
<linearGradient id="SVGID_9_" x1="119" x2="191" y1="108" y2="52" gradientTransform="matrix(.251 0 0 -.251 .0481 129)" gradientUnits="userSpaceOnUse">
	<stop style="stop-color:#777" offset="0"/>
	<stop style="stop-color:#3B4041" offset="1"/>
</linearGradient>
<circle cx="39.1" cy="109" r="14.7" style="fill:url(#SVGID_9_);stroke-width:.25"/>
<linearGradient id="SVGID_10_" x1="159" x2="152" y1="47.6" y2="110" gradientTransform="matrix(.251 0 0 -.251 .0481 129)" gradientUnits="userSpaceOnUse">
	<stop style="stop-color:#777" offset="0"/>
	<stop style="stop-color:#3B4041" offset="1"/>
</linearGradient>
<circle cx="39.1" cy="109" r="10.1" style="fill:url(#SVGID_10_);stroke-width:.25"/>
<linearGradient id="SVGID_11_" x1="143" x2="167" y1="88.8" y2="70.3" gradientTransform="matrix(.251 0 0 -.251 .0481 129)" gradientUnits="userSpaceOnUse">
	<stop style="stop-color:#C3C3C3" offset="0"/>
	<stop style="stop-color:#777" offset="1"/>
</linearGradient>
<circle cx="39.1" cy="109" r="4.86" style="fill:url(#SVGID_11_);stroke-width:.25"/>















</svg>
