<svg width="128" height="128" version="1.1" viewBox="0 0 128 128" xml:space="preserve" xmlns="http://www.w3.org/2000/svg">
<linearGradient id="SVGID_1_" x1="262" x2="260" y1="469" y2="390" gradientTransform="matrix(.251 0 0 -.251 1.32 129)" gradientUnits="userSpaceOnUse">
	<stop style="stop-color:#FFB92D" offset="0"/>
	<stop style="stop-color:#F59500" offset="1"/>
</linearGradient>
<path d="m114 117h-97.5c-5.2 0-9.41-4.21-9.41-9.41v-81.2c0-5.2 4.21-9.41 9.41-9.41h97.5c5.2 0 9.41 4.21 9.41 9.41v81.2c0 5.2-4.21 9.41-9.41 9.41z" style="fill:url(#SVGID_1_);stroke-width:.25"/>
<linearGradient id="SVGID_2_" x1="275" x2="268" y1="416" y2="355" gradientTransform="matrix(.251 0 0 -.251 1.32 129)" gradientUnits="userSpaceOnUse">
	<stop style="stop-color:#FFB92D" offset="0"/>
	<stop style="stop-color:#F59500" offset="1"/>
</linearGradient>
<path d="m112 115h-93.2c-4.96 0-8.99-4.02-8.99-8.99v-77.6c0-4.96 4.02-8.99 8.99-8.99h93.2c4.96 0 8.99 4.02 8.99 8.99v77.6c2.5e-4 4.96-4.02 8.99-8.99 8.99z" style="fill:url(#SVGID_2_);stroke-width:.25"/>
<linearGradient id="SVGID_3_" x1="252" x2="252" y1="414" y2="368" gradientTransform="matrix(.251 0 0 -.251 1.32 129)" gradientUnits="userSpaceOnUse">
	<stop style="stop-color:#A7F3CE" offset="0"/>
	<stop style="stop-color:#61DB99" offset="1"/>
</linearGradient>
<path d="m117 43.5-23.5-40.6c-1.56-2.71-5.02-3.63-7.73-2.07l-73.9 42.7z" style="fill:url(#SVGID_3_);stroke-width:.25"/>
<linearGradient id="SVGID_4_" x1="255" x2="255" y1="334" y2="204" gradientTransform="matrix(.251 0 0 -.251 1.32 129)" gradientUnits="userSpaceOnUse">
	<stop style="stop-color:#FF4C54" offset="0"/>
	<stop style="stop-color:#BE3F45" offset="1"/>
</linearGradient>
<path d="m7.02 76.1h116v-30.8c0-3.89-3.15-7.04-7.04-7.04h-102c-3.89 0-7.04 3.15-7.04 7.04z" style="fill:url(#SVGID_4_);stroke-width:.25"/>
<linearGradient id="SVGID_5_" x1="255" x2="255" y1="238" y2="36.6" gradientTransform="matrix(.251 0 0 -.251 1.32 129)" gradientUnits="userSpaceOnUse">
	<stop style="stop-color:#FF4C54" offset="0"/>
	<stop style="stop-color:#BE3F45" offset="1"/>
</linearGradient>
<path d="m7.02 64.6v43.2c0 5.2 4.21 9.41 9.41 9.41h97.5c5.2 0 9.41-4.21 9.41-9.41v-43.2c0-3.21-2.6-5.81-5.81-5.81h-105c-3.21 0-5.81 2.6-5.81 5.81z" style="fill:url(#SVGID_5_);stroke-width:.25"/>
<linearGradient id="SVGID_6_" x1="460" x2="427" y1="196" y2="196" gradientTransform="matrix(.251 0 0 -.251 1.32 129)" gradientUnits="userSpaceOnUse">
	<stop style="stop-color:#BE3F45;stop-opacity:0" offset="0"/>
	<stop style="stop-color:#BE3F45" offset="1"/>
</linearGradient>
<path d="m106 42.3v74.9h8.14c5.2 0 9.41-4.21 9.41-9.41v-48z" style="fill:url(#SVGID_6_);stroke-width:.25"/>
<linearGradient id="SVGID_7_" x1="158" x2="330" y1="231" y2="152" gradientTransform="matrix(.251 0 0 -.251 1.32 129)" gradientUnits="userSpaceOnUse">
	<stop style="stop-color:#FFB92D" offset="0"/>
	<stop style="stop-color:#F59500" offset="1"/>
</linearGradient>
<path d="m97.9 128-81.7-9.48c-5.23-0.608-9.18-5.04-9.18-10.3v-82.1c0 1.76 1.32 3.25 3.07 3.45l90.2 10.5c5.23 0.608 9.18 5.04 9.18 10.3v67.3c0 6.21-5.41 11-11.6 10.3z" style="fill:url(#SVGID_7_);stroke-width:.25"/>
<linearGradient id="SVGID_8_" x1="222" x2="214" y1="54.3" y2="-.147" gradientTransform="matrix(.251 0 0 -.251 1.32 129)" gradientUnits="userSpaceOnUse">
	<stop style="stop-color:#BE3F45;stop-opacity:0" offset="0"/>
	<stop style="stop-color:#BE3F45" offset="1"/>
</linearGradient>
<path d="m97.9 111-81.7-9.48c-5.23-0.608-9.18-5.04-9.18-10.3v16.4c0 5.27 3.95 9.7 9.18 10.3l81.7 9.48c6.17 0.716 11.6-4.1 11.6-10.3v-16.4c-2.5e-4 6.21-5.41 11-11.6 10.3z" style="fill:url(#SVGID_8_);stroke-width:.25"/>
<linearGradient id="SVGID_9_" x1="44.5" x2="44.5" y1="377" y2="28.8" gradientTransform="matrix(.251 0 0 -.251 1.32 129)" gradientUnits="userSpaceOnUse">
	<stop style="stop-color:#FFF465" offset="0"/>
	<stop style="stop-color:#FFE600" offset="1"/>
</linearGradient>
<path d="m14.3 38.7c-0.0684 0-0.138-4e-3 -0.207-0.0115l-3.74-0.411c-1.03-0.114-1.78-1.04-1.66-2.07 0.114-1.03 1.04-1.78 2.07-1.66l3.74 0.411c1.03 0.114 1.78 1.04 1.66 2.07-0.106 0.962-0.92 1.67-1.87 1.67z" style="fill:url(#SVGID_9_);stroke-width:.25"/>
<linearGradient id="SVGID_10_" x1="245" x2="245" y1="377" y2="29.5" gradientTransform="matrix(.251 0 0 -.251 1.32 129)" gradientUnits="userSpaceOnUse">
	<stop style="stop-color:#FFF465" offset="0"/>
	<stop style="stop-color:#FFE600" offset="1"/>
</linearGradient>
<path d="m91.1 122c-0.0789 0-0.159-6e-3 -0.24-0.0152l-7.26-0.923c-1.03-0.131-1.76-1.07-1.63-2.1 0.131-1.03 1.07-1.75 2.1-1.63l7.26 0.923c1.03 0.131 1.76 1.07 1.63 2.1-0.121 0.949-0.93 1.64-1.86 1.64zm7.15-0.93c-0.705 0-1.38-0.399-1.7-1.08-0.443-0.939-0.04-2.06 0.899-2.5 1.91-0.899 3.34-2.39 3.94-4.09 0.342-0.98 1.41-1.5 2.39-1.15 0.98 0.342 1.5 1.41 1.15 2.39-0.938 2.69-3.03 4.91-5.88 6.25-0.259 0.122-0.531 0.18-0.8 0.18zm-21.7-0.916c-0.0789 0-0.159-6e-3 -0.24-0.0152l-7.26-0.923c-1.03-0.131-1.76-1.07-1.63-2.1 0.131-1.03 1.07-1.75 2.1-1.63l7.26 0.923c1.03 0.131 1.76 1.07 1.63 2.1-0.121 0.949-0.93 1.64-1.86 1.64zm-14.5-1.85c-0.0789 0-0.159-6e-3 -0.24-0.0152l-7.26-0.923c-1.03-0.131-1.76-1.07-1.63-2.1 0.131-1.03 1.07-1.76 2.1-1.63l7.26 0.923c1.03 0.131 1.76 1.07 1.63 2.1-0.121 0.949-0.93 1.64-1.86 1.64zm-14.5-1.85c-0.0789 0-0.159-6e-3 -0.24-0.0152l-7.26-0.924c-1.03-0.131-1.76-1.07-1.63-2.1 0.131-1.03 1.07-1.75 2.1-1.63l7.26 0.924c1.03 0.131 1.76 1.07 1.63 2.1-0.121 0.949-0.93 1.64-1.86 1.64zm-14.5-1.85c-0.0789 0-0.159-6e-3 -0.24-0.0152l-7.26-0.924c-1.03-0.131-1.76-1.07-1.63-2.1 0.131-1.03 1.07-1.75 2.1-1.63l7.26 0.924c1.03 0.131 1.76 1.07 1.63 2.1-0.121 0.949-0.93 1.64-1.86 1.64zm70.6-5.99c-1.04 0-1.88-0.841-1.88-1.88v-7.32c0-1.04 0.841-1.88 1.88-1.88s1.88 0.841 1.88 1.88v7.32c2.4e-4 1.04-0.841 1.88-1.88 1.88zm0-14.6c-1.04 0-1.88-0.841-1.88-1.88v-7.32c0-1.04 0.841-1.88 1.88-1.88s1.88 0.841 1.88 1.88v7.32c2.4e-4 1.04-0.841 1.88-1.88 1.88zm0-14.6c-1.04 0-1.88-0.841-1.88-1.88v-7.32c0-1.04 0.841-1.88 1.88-1.88s1.88 0.841 1.88 1.88v7.32c2.4e-4 1.04-0.841 1.88-1.88 1.88zm0-14.6c-1.04 0-1.88-0.841-1.88-1.88v-7.32c0-1.04 0.841-1.88 1.88-1.88s1.88 0.841 1.88 1.88v7.32c2.4e-4 1.04-0.841 1.88-1.88 1.88zm-2.63-13.9c-0.464 0-0.929-0.171-1.29-0.515-1.39-1.32-3.33-2.16-5.44-2.37l-0.0497-0.0053c-1.03-0.111-1.78-1.04-1.67-2.07 0.111-1.03 1.04-1.78 2.07-1.67l0.032 0.0035c2.93 0.287 5.65 1.49 7.65 3.38 0.754 0.714 0.786 1.9 0.0716 2.66-0.37 0.39-0.867 0.587-1.37 0.587zm-13.9-3.68c-0.0684 0-0.138-4e-3 -0.207-0.0115l-7.28-0.8c-1.03-0.114-1.78-1.04-1.66-2.07 0.114-1.03 1.04-1.77 2.07-1.66l7.28 0.8c1.03 0.114 1.78 1.04 1.66 2.07-0.106 0.962-0.92 1.67-1.87 1.67zm-14.6-1.6c-0.0684 0-0.138-4e-3 -0.207-0.0115l-7.28-0.8c-1.03-0.114-1.78-1.04-1.66-2.07 0.113-1.03 1.04-1.78 2.07-1.66l7.28 0.8c1.03 0.114 1.78 1.04 1.66 2.07-0.106 0.962-0.92 1.67-1.87 1.67zm-14.6-1.6c-0.0684 0-0.138-4e-3 -0.207-0.0115l-7.28-0.8c-1.03-0.114-1.78-1.04-1.66-2.07 0.113-1.03 1.04-1.78 2.07-1.66l7.28 0.8c1.03 0.114 1.78 1.04 1.66 2.07-0.106 0.962-0.92 1.67-1.87 1.67zm-14.6-1.6c-0.0684 0-0.138-4e-3 -0.207-0.0115l-7.28-0.8c-1.03-0.114-1.78-1.04-1.66-2.07 0.113-1.03 1.04-1.77 2.07-1.66l7.28 0.8c1.03 0.114 1.78 1.04 1.66 2.07-0.105 0.962-0.92 1.67-1.87 1.67zm-14.6-1.6c-0.0684 0-0.138-4e-3 -0.207-0.0115l-7.28-0.8c-1.03-0.114-1.78-1.04-1.66-2.07 0.114-1.03 1.04-1.77 2.07-1.66l7.28 0.8c1.03 0.114 1.78 1.04 1.66 2.07-0.106 0.962-0.92 1.67-1.87 1.67z" style="fill:url(#SVGID_10_);stroke-width:.25"/>
<linearGradient id="SVGID_11_" x1="61" x2="61" y1="377" y2="28.8" gradientTransform="matrix(.251 0 0 -.251 1.32 129)" gradientUnits="userSpaceOnUse">
	<stop style="stop-color:#FFF465" offset="0"/>
	<stop style="stop-color:#FFE600" offset="1"/>
</linearGradient>
<path d="m18.5 112c-0.0789 0-0.159-5e-3 -0.239-0.0152l-3.73-0.474c-1.03-0.131-1.76-1.07-1.63-2.1 0.131-1.03 1.07-1.76 2.1-1.63l3.73 0.474c1.03 0.131 1.76 1.07 1.63 2.1-0.121 0.949-0.93 1.64-1.86 1.64z" style="fill:url(#SVGID_11_);stroke-width:.25"/>
<path d="m87.5 14-12 6.55c-1.57 0.853-3.53 0.274-4.38-1.29-0.853-1.57-0.274-3.53 1.29-4.38l12-6.55c1.57-0.853 3.53-0.274 4.38 1.29 0.853 1.57 0.274 3.53-1.29 4.38z" style="fill:#61db99;stroke-width:.25"/>
<linearGradient id="SVGID_12_" x1="406" x2="303" y1="126" y2="229" gradientTransform="matrix(.251 0 0 -.251 1.32 129)" gradientUnits="userSpaceOnUse">
	<stop style="stop-color:#BE3F45;stop-opacity:0" offset="0"/>
	<stop style="stop-color:#BE3F45" offset="1"/>
</linearGradient>
<path d="m109 90.8-11.9-11.9c-1.68-1.83-4.1-2.98-6.79-2.98-5.09 0-9.21 4.13-9.21 9.21 0 2.69 1.15 5.1 2.98 6.79l25 25v-26z" style="fill:url(#SVGID_12_);stroke-width:.25"/>
<linearGradient id="SVGID_13_" x1="357" x2="357" y1="198" y2="145" gradientTransform="matrix(.251 0 0 -.251 1.32 129)" gradientUnits="userSpaceOnUse">
	<stop style="stop-color:#FF4C54" offset="0"/>
	<stop style="stop-color:#BE3F45" offset="1"/>
</linearGradient>
<circle cx="90.7" cy="85.1" r="9.21" style="fill:url(#SVGID_13_);stroke-width:.25"/>
<linearGradient id="SVGID_14_" x1="357" x2="357" y1="159" y2="196" gradientTransform="matrix(.251 0 0 -.251 1.32 129)" gradientUnits="userSpaceOnUse">
	<stop style="stop-color:#FF4C54" offset="0"/>
	<stop style="stop-color:#BE3F45" offset="1"/>
</linearGradient>
<circle cx="90.7" cy="85.1" r="6.36" style="fill:url(#SVGID_14_);stroke-width:.25"/>
<linearGradient id="SVGID_15_" x1="297" x2="308" y1="404" y2="358" gradientTransform="matrix(.251 0 0 -.251 1.32 129)" gradientUnits="userSpaceOnUse">
	<stop style="stop-color:#A7F3CE" offset="0"/>
	<stop style="stop-color:#61DB99" offset="1"/>
</linearGradient>
<circle cx="88.3" cy="82.7" r="1.32" style="fill:url(#SVGID_15_);stroke-width:.25"/>
<linearGradient id="SVGID_16_" x1="317" x2="327" y1="404" y2="358" gradientTransform="matrix(.251 0 0 -.251 1.32 129)" gradientUnits="userSpaceOnUse">
	<stop style="stop-color:#A7F3CE" offset="0"/>
	<stop style="stop-color:#61DB99" offset="1"/>
</linearGradient>
<circle cx="93.1" cy="82.7" r="1.32" style="fill:url(#SVGID_16_);stroke-width:.25"/>
<linearGradient id="SVGID_17_" x1="293" x2="304" y1="403" y2="357" gradientTransform="matrix(.251 0 0 -.251 1.32 129)" gradientUnits="userSpaceOnUse">
	<stop style="stop-color:#A7F3CE" offset="0"/>
	<stop style="stop-color:#61DB99" offset="1"/>
</linearGradient>
<circle cx="88.3" cy="87.5" r="1.32" style="fill:url(#SVGID_17_);stroke-width:.25"/>
<linearGradient id="SVGID_18_" x1="312" x2="323" y1="403" y2="357" gradientTransform="matrix(.251 0 0 -.251 1.32 129)" gradientUnits="userSpaceOnUse">
	<stop style="stop-color:#A7F3CE" offset="0"/>
	<stop style="stop-color:#61DB99" offset="1"/>
</linearGradient>
<circle cx="93.1" cy="87.5" r="1.32" style="fill:url(#SVGID_18_);stroke-width:.25"/>















</svg>
