<svg width="128" height="128" version="1.1" viewBox="-6 0 96 96" xmlns="http://www.w3.org/2000/svg"><path d="m41.3 41.9h-22c-10 0-18.2 8.13-18.2 18.2 0 7.26 4.26 13.5 10.4 16.4 2.47 1.17 4.05 3.65 4.05 6.38v3.9c0 1.48 1.91 2.07 2.75 0.848l4.3-6.31c1.31-1.93 3.49-3.08 5.82-3.08h12.8c10 0 18.2-8.13 18.2-18.2-5.94e-4 -10-8.13-18.2-18.2-18.2z" fill="#f8fafd" style="fill:#ffc300;stroke-width:.175"/><path d="m18.5 76.5c-6.15-2.91-10.4-9.17-10.4-16.4 0-10 8.13-18.2 18.2-18.2h-6.94c-10 0-18.2 8.13-18.2 18.2 0 7.26 4.25 13.5 10.4 16.4 2.47 1.17 4.05 3.65 4.05 6.38v3.9c0 1.48 1.91 2.07 2.75 0.848l4.08-5.98c-0.398-2.23-1.85-4.15-3.94-5.14z" fill="#ddd" style="fill:#edb500;stroke-width:.175"/><g fill="#7956ba"><path d="m21.4 60.4c0 1.85-1.5 3.35-3.35 3.35-1.85 0-3.35-1.5-3.35-3.35 0-1.85 1.5-3.35 3.35-3.35 1.85 0 3.35 1.5 3.35 3.35z" style="fill:#f8fafd;stroke-width:.175"/><path d="m33.7 60.4c0 1.85-1.5 3.35-3.35 3.35-1.85 0-3.35-1.5-3.35-3.35 0-1.85 1.5-3.35 3.35-3.35 1.85 0 3.35 1.5 3.35 3.35z" style="fill:#f8fafd;stroke-width:.175"/><path d="m46 60.4c0 1.85-1.5 3.35-3.35 3.35s-3.35-1.5-3.35-3.35c0-1.85 1.5-3.35 3.35-3.35s3.35 1.5 3.35 3.35z" style="fill:#f8fafd;stroke-width:.175"/></g><path d="m40.2 8.28h22c10 0 18.2 8.13 18.2 18.2 0 7.26-4.25 13.5-10.4 16.4-2.47 1.17-4.05 3.65-4.05 6.38v3.9c0 1.48-1.91 2.07-2.75 0.848l-4.3-6.31c-1.31-1.93-3.49-3.08-5.82-3.08h-12.8c-10 0-18.2-8.13-18.2-18.2 0-10 8.13-18.2 18.2-18.2z" fill="#f84e82" style="fill:#035000;stroke-width:.175"/><path d="m60.5 42.3h-12.8c-10 0-18.2-8.13-18.2-18.2 0-6.61 3.53-12.4 8.82-15.6-9.15 0.937-16.3 8.67-16.3 18.1 0 10 8.13 18.2 18.2 18.2h12.8c2.33 0 4.51 1.15 5.82 3.08l4.3 6.31c0.834 1.22 2.75 0.633 2.75-0.848v-3.9c0-1.21 0.313-2.37 0.876-3.39l-0.453-0.663c-1.31-1.93-3.49-3.08-5.82-3.08z" fill="#dd3a71" style="fill:#023800;stroke-width:.175"/><g transform="matrix(.175 0 0 .175 -2.77 8.28)" fill="#f8fafd"><path d="m399 106c0 10.6-8.6 19.2-19.2 19.2-10.6 0-19.2-8.6-19.2-19.2 0-10.6 8.6-19.2 19.2-19.2 10.6 0 19.2 8.6 19.2 19.2z"/><path d="m328 106c0 10.6-8.6 19.2-19.2 19.2-10.6 0-19.2-8.6-19.2-19.2 0-10.6 8.6-19.2 19.2-19.2 10.6 0 19.2 8.6 19.2 19.2z"/><path d="m258 106c0 10.6-8.6 19.2-19.2 19.2-10.6 0-19.2-8.6-19.2-19.2 0-10.6 8.6-19.2 19.2-19.2 10.6 0 19.2 8.6 19.2 19.2z"/></g></svg>
