<?xml version="1.0" encoding="UTF-8" standalone="no"?>
<svg
   xmlns:dc="http://purl.org/dc/elements/1.1/"
   xmlns:cc="http://creativecommons.org/ns#"
   xmlns:rdf="http://www.w3.org/1999/02/22-rdf-syntax-ns#"
   xmlns:svg="http://www.w3.org/2000/svg"
   xmlns="http://www.w3.org/2000/svg"
   xmlns:sodipodi="http://sodipodi.sourceforge.net/DTD/sodipodi-0.dtd"
   xmlns:inkscape="http://www.inkscape.org/namespaces/inkscape"
   inkscape:export-ydpi="96"
   inkscape:export-xdpi="96"
   inkscape:export-filename="/Users/SaaMoj/Downloads/invoice (3).png"
   inkscape:version="1.0 (4035a4f, 2020-05-01)"
   height="128"
   width="128"
   sodipodi:docname="sefareshisaziii.svg"
   xml:space="preserve"
   viewBox="0 0 128 128"
   y="0px"
   x="0px"
   id="Capa_1"
   version="1.1"><metadata
   id="metadata22247"><rdf:RDF><cc:Work
       rdf:about=""><dc:format>image/svg+xml</dc:format><dc:type
         rdf:resource="http://purl.org/dc/dcmitype/StillImage" /><dc:title></dc:title></cc:Work></rdf:RDF></metadata><defs
   id="defs22245">
	
	
	
	
	
	
	
	
</defs><sodipodi:namedview
   inkscape:current-layer="g25271"
   inkscape:window-maximized="0"
   inkscape:window-y="0"
   inkscape:window-x="0"
   inkscape:cy="74.405637"
   inkscape:cx="136.75652"
   inkscape:zoom="1.1394238"
   inkscape:snap-nodes="false"
   inkscape:showpageshadow="false"
   showgrid="false"
   id="namedview22243"
   inkscape:window-height="768"
   inkscape:window-width="1366"
   inkscape:pageshadow="2"
   inkscape:pageopacity="0"
   guidetolerance="10"
   gridtolerance="10"
   objecttolerance="10"
   borderopacity="1"
   bordercolor="#666666"
   pagecolor="#ffffff" />







<g
   id="g22212">
</g>
<g
   id="g22214">
</g>
<g
   id="g22216">
</g>
<g
   id="g22218">
</g>
<g
   id="g22220">
</g>
<g
   id="g22222">
</g>
<g
   id="g22224">
</g>
<g
   id="g22226">
</g>
<g
   id="g22228">
</g>
<g
   id="g22230">
</g>
<g
   id="g22232">
</g>
<g
   id="g22234">
</g>
<g
   id="g22236">
</g>
<g
   id="g22238">
</g>
<g
   id="g22240">
</g>
<path
   style="fill:#035000;fill-opacity:1;stroke-width:0.168739"
   d="m 56.233929,121.92135 -8.086264,-5.39963 -8.09417,5.39963 -10.796641,-7.2004 V 47.036366 l 10.796641,-7.200389 8.09417,5.399633 8.086264,-5.399633 8.099445,5.399633 8.096803,-5.399633 8.099465,5.402269 8.109984,-5.399633 10.81245,7.195117 v 67.68987 l -10.81245,7.19511 -8.109984,-5.39963 -8.099465,5.40227 -8.096803,-5.39963 z m 0,0"
   fill="#f0d39c"
   id="path25261" /><g
   fill="#ffffff"
   id="g25271"
   transform="matrix(0.16873851,0,0,0.16873851,29.217972,39.835977)"><path
     style="fill:#ffffff;fill-opacity:1"
     d="m 112.23047,120.93136 h 192 c 8.83984,0 16,7.16406 16,16 0,8.83984 -7.16016,16 -16,16 h -192 c -8.83594,0 -16.000001,-7.16016 -16.000001,-16 0,-8.83594 7.164061,-16 16.000001,-16 z m 0,0"
     id="path25263" /><path
     d="m 112.23047,195.23047 h 192 c 8.83984,0 16,7.16406 16,16 0,8.83984 -7.16016,16 -16,16 h -192 c -8.83594,0 -16.000001,-7.16016 -16.000001,-16 0,-8.83594 7.164061,-16 16.000001,-16 z m 0,0"
     id="path25265" /><path
     d="m 112.23047,269.52958 h 192 c 8.83984,0 16,7.16406 16,16 0,8.83984 -7.16016,16 -16,16 h -192 c -8.83594,0 -16.000001,-7.16016 -16.000001,-16 0,-8.83594 7.164061,-16 16.000001,-16 z m 0,0"
     id="path25267" /><path
     id="path25291"
     d="m 112.23047,347.51186 h 192 c 8.83984,0 16,7.16406 16,16 0,8.83984 -7.16016,16 -16,16 h -192 c -8.83594,0 -16.000001,-7.16016 -16.000001,-16 0,-8.83594 7.164061,-16 16.000001,-16 z m 0,0" /></g><path
   style="fill:#ffc300;fill-opacity:1;stroke-width:0.100227"
   d="m 59.433196,67.850444 c -2.901358,0 -5.261901,-2.360528 -5.261901,-5.261897 0,-2.901358 2.360543,-5.261898 5.261901,-5.261898 2.901369,0 5.261922,2.36054 5.261922,5.261898 0,2.901369 -2.360553,5.261897 -5.261922,5.261897 z"
   fill="#efbf42"
   id="path25215-8" /><path
   id="path25395"
   fill="#efbf42"
   d="m 72.194763,80.576003 c -2.901359,0 -5.261892,-2.360527 -5.261892,-5.261896 0,-2.901358 2.360533,-5.261899 5.261892,-5.261899 2.901358,0 5.261911,2.360541 5.261911,5.261899 0,2.901369 -2.360553,5.261896 -5.261911,5.261896 z"
   style="fill:#ffc300;fill-opacity:1;stroke-width:0.100227" /><path
   style="fill:#ffc300;fill-opacity:1;stroke-width:0.100227"
   d="m 61.379805,93.15626 c -2.901369,0 -5.261902,-2.360527 -5.261902,-5.261896 0,-2.901358 2.360533,-5.261898 5.261902,-5.261898 2.901358,0 5.261911,2.36054 5.261911,5.261898 0,2.901369 -2.360553,5.261896 -5.261911,5.261896 z"
   fill="#efbf42"
   id="path25397" /><path
   id="path25399"
   fill="#efbf42"
   d="m 73.212184,106.20321 c -2.901368,0 -5.261901,-2.36052 -5.261901,-5.2619 0,-2.901362 2.360533,-5.261902 5.261901,-5.261902 2.901379,0 5.261912,2.36054 5.261912,5.261902 0,2.90138 -2.360533,5.2619 -5.261912,5.2619 z"
   style="fill:#ffc300;fill-opacity:1;stroke-width:0.100227" /><path
   style="stroke-width:0.151929"
   d="M 58.8027,15.969337 H 26.023398 c -3.532628,0 -6.396304,2.863684 -6.396304,6.39631 0,3.532619 2.863676,6.396295 6.396304,6.396295 h 39.963343 z"
   fill="#efbcaa"
   id="path25217" /><path
   style="stroke-width:0.151929"
   d="m 24.776231,35.158251 c 0,3.532617 2.863685,6.3963 6.396314,6.3963 h 15.937196 c 1.258564,0 2.278893,-1.020341 2.278893,-2.278911 V 28.761942 H 31.172545 c -3.532629,0 -6.396314,2.863689 -6.396314,6.396309 z"
   fill="#e0a089"
   id="path25219" /><path
   style="stroke-width:0.151929"
   d="m 69.46467,58.674211 c -1.043588,0 -2.09873,-0.223789 -3.10419,-0.680788 -2.709022,-1.231218 -4.391924,-3.840577 -4.391924,-6.809851 v -0.200235 c 0,-2.1317 0.903824,-4.156443 2.479765,-5.554934 1.763886,-1.565311 2.775416,-3.808367 2.775416,-6.154288 0,-2.268569 -0.907615,-4.383721 -2.555584,-5.955711 -1.646117,-1.570022 -3.805309,-2.375534 -6.077384,-2.26797 -4.158894,0.196598 -7.594107,3.606451 -7.820797,7.762732 -0.136121,2.498305 0.852926,4.893441 2.713591,6.571174 1.607382,1.449242 2.52913,3.490235 2.52913,5.599598 v 0.199935 c 0,2.969129 -1.682743,5.578332 -4.391308,6.809394 -2.687455,1.2215 -5.733452,0.778173 -7.949922,-1.156617 C 38.596623,52.406743 35.686,46.005426 35.686,39.273968 c 0,-12.85019 10.45445,-23.304631 23.304794,-23.304631 h 36.144338 c 1.258553,0 2.278902,1.020349 2.278902,2.278922 v 26.284073 c 0,1.25857 -1.020349,2.278913 -2.278902,2.278913 H 81.048389 c -1.317224,3.866405 -3.624083,7.306046 -6.739967,10.025853 -1.386484,1.210563 -3.098567,1.837113 -4.843752,1.837113 z"
   fill="#ffd8cb"
   id="path25221" /><path
   sodipodi:nodetypes="csccccscsscsccssscc"
   style="stroke-width:0.151929"
   d="M 104.00683,15.969337 H 58.990794 c -0.157271,0 -0.313736,0.0023 -0.47023,0.0054 v 15.080035 c 0.02369,-0.0015 0.04668,-0.0038 0.07017,-0.0046 2.272204,-0.107573 4.431416,0.697956 6.077384,2.26797 1.648137,1.572 2.555583,3.687134 2.555583,5.955717 0,2.345912 -1.01153,4.589124 -2.775416,6.154286 -1.575931,1.398494 -2.479765,3.423228 -2.479765,5.554926 v 0.200237 c 0,2.969275 1.682902,5.578631 4.391924,6.809851 1.005331,0.457001 2.060443,0.680788 3.10419,0.680788 1.745195,0 3.457268,-0.626549 4.843752,-1.836957 3.115884,-2.719954 5.422743,-6.15945 6.739967,-10.025855 h 22.958437 c 1.25859,0 2.27893,-1.020341 2.27893,-2.278913 V 18.248114 c 0,-1.258574 -1.02034,-2.278914 -2.27893,-2.278914 z"
   fill="#efbcaa"
   id="path25223" /></svg>
