<svg width="128" height="128" enable-background="new 0 0 512 512" version="1.1" viewBox="0 0 128 128" xmlns="http://www.w3.org/2000/svg"><g transform="matrix(.25 0 0 .25 2.62e-5 -.15)"><path d="m268 155 16.7 33.8c1.86 3.76 5.44 6.36 9.59 6.97l37.3 5.42c10.4 1.52 14.6 14.4 7.06 21.7l-27 26.3c-3 2.93-4.37 7.14-3.66 11.3l6.37 37.2c1.78 10.4-9.14 18.3-18.5 13.4l-33.4-17.5c-3.71-1.95-8.14-1.95-11.9 0l-33.4 17.5c-9.34 4.91-20.3-3.02-18.5-13.4l6.37-37.2c0.709-4.13-0.661-8.35-3.66-11.3l-27-26.3c-7.56-7.37-3.39-20.2 7.06-21.7l37.3-5.42c4.15-0.603 7.73-3.21 9.59-6.97l16.7-33.8c4.67-9.47 18.2-9.47 22.8 0z" fill="#f4dd45" style="fill:#ffc300;stroke-width:.842"/><g transform="matrix(.842 0 0 .842 40.6 76.7)"><path d="m279 254v113c0.07-0.439 1.24-7.6 9.02-21.6 6.45-11.6 21.1-15.8 32.7-9.37s15.8 21.1 9.37 32.7c-6.21 11.2-6.2 36.4-6.2 36.4s-0.459 96.6-70.2 96.6c-26.1 0-62.8 5e-3 -62.8 5e-3 -46.3 0-74.4-42.6-79.7-84.1-0.588-4.68-0.888-9.35-0.888-13.9v-48.6c-5e-3 -5.82 2.36-11.1 6.17-14.9s9.08-6.18 14.9-6.17c11.6-5e-3 21.1 9.43 21.1 21.1v-21.1c0-5.82 2.36-11.1 6.17-14.9s9.09-6.17 14.9-6.17c5.82-5e-3 11.1 2.35 14.9 6.17s6.17 9.09 6.17 14.9v-5.38c5e-3 -5.82 2.36-11.1 6.18-14.9 3.81-3.81 9.09-6.17 14.9-6.17 11.6 0 21.1 9.44 21.1 21.1v-74.6c5e-3 -11.6 9.44-21.1 21.1-21.1 5.82 0 11.1 2.36 14.9 6.17 3.82 3.82 6.17 9.09 6.17 14.9z" fill="#f1d0a5"/><g fill="#f1b986"><path d="m244 369c3.96 0 7.17-3.21 7.17-7.17v-108c6e-3 -9.12 5.8-16.9 13.9-19.8-2.24-0.809-4.65-1.25-7.16-1.25-11.6 0-21.1 9.43-21.1 21.1v108c1e-3 3.96 3.21 7.17 7.17 7.17z"/><path d="m201 366c3.96 0 7.17-3.21 7.17-7.17v-29.8c6e-3 -9.12 5.8-16.9 13.9-19.8-2.24-0.809-4.65-1.25-7.16-1.25-11.6 0-21.1 9.43-21.1 21.1v29.8c1e-3 3.96 3.21 7.17 7.17 7.17z"/><path d="m159 371c3.96 0 7.17-3.21 7.17-7.17v-29.8c6e-3 -9.12 5.8-16.9 13.9-19.8-2.24-0.809-4.65-1.25-7.16-1.25-11.6 0-21.1 9.43-21.1 21.1v29.8c0 3.96 3.21 7.17 7.17 7.17z"/><path d="m124 404v-48.6c0-9.12 5.8-16.9 13.9-19.8-2.24-0.809-4.65-1.25-7.17-1.25-11.6 0-21.1 9.44-21.1 21.1v48.6c0 45.3 29.1 98 80.5 98h14.3c-51.5 0-80.6-52.7-80.6-98z"/><path d="m313 334c-6.66 1.35-12.7 5.5-16.3 11.9-0.08 0.145-0.16 0.289-0.239 0.432-5.78 10.5-8.78 22.3-8.78 34.3v20.1c0 2.64-2.14 4.78-4.78 4.78s-4.78-2.14-4.78-4.78l-5e-3 -33.2 9e-3 -0.036 2.67-8.5c1.34-3.37 3.36-7.75 6.35-13.1 5.21-9.4 15.8-13.9 25.8-11.9z"/><path d="m253 502c-26.1 0-62.8 5e-3 -62.8 5e-3 -46.3 0-74.4-42.6-79.7-84.1l13.4-30c0 37 66.5 109 129 114z"/></g></g><g transform="matrix(.842 0 0 .842 40.6 76.7)" fill="#f4dd45" style="fill:#ffc300"><path d="m82.4 16 14.1 28.6c1.57 3.18 4.6 5.38 8.11 5.9l31.6 4.59c8.84 1.28 12.4 12.1 5.97 18.4l-22.8 22.3c-2.54 2.48-3.7 6.04-3.1 9.54l5.39 31.4c1.51 8.8-7.73 15.5-15.6 11.4l-28.2-14.8c-3.14-1.65-6.89-1.65-10 0l-28.2 14.8c-7.91 4.16-17.1-2.56-15.6-11.4l5.39-31.4c0.6-3.5-0.559-7.06-3.1-9.54l-22.8-22.3c-6.4-6.24-2.87-17.1 5.97-18.4l31.6-4.59c3.51-0.51 6.54-2.72 8.11-5.9l14.1-28.6c3.95-8.01 15.4-8.01 19.3 0z" style="fill:#ffc300"/><path d="m449 16 14.1 28.6c1.57 3.18 4.6 5.38 8.11 5.9l31.6 4.59c8.84 1.28 12.4 12.1 5.97 18.4l-22.8 22.3c-2.54 2.48-3.7 6.04-3.1 9.54l5.39 31.4c1.51 8.8-7.73 15.5-15.6 11.4l-28.2-14.8c-3.14-1.65-6.89-1.65-10 0l-28.2 14.8c-7.91 4.16-17.1-2.56-15.6-11.4l5.39-31.4c0.6-3.5-0.559-7.06-3.1-9.54l-22.8-22.3c-6.4-6.24-2.87-17.1 5.97-18.4l31.6-4.59c3.51-0.51 6.54-2.72 8.11-5.9l14.1-28.6c3.96-8.01 15.4-8.01 19.3 0z" style="fill:#ffc300"/></g><g transform="matrix(.842 0 0 .842 40.6 76.7)" fill="#dd636e"><path d="m405 261h-42c-4.26 0-7.71-3.45-7.71-7.71s3.45-7.71 7.71-7.71h42c4.26 0 7.71 3.45 7.71 7.71 1e-3 4.26-3.45 7.71-7.71 7.71z"/><path d="m357 236c-2.42 0-4.79-1.13-6.3-3.25-2.47-3.47-1.65-8.29 1.82-10.8l27.1-19.2c3.47-2.47 8.29-1.65 10.8 1.82 2.47 3.47 1.65 8.29-1.82 10.8l-27.1 19.2c-1.36 0.962-2.92 1.42-4.46 1.42z"/><path d="m384 305c-1.54 0-3.1-0.462-4.46-1.42l-27.1-19.2c-3.47-2.47-4.29-7.28-1.82-10.8 2.46-3.47 7.28-4.29 10.8-1.82l27.1 19.2c3.47 2.47 4.29 7.28 1.82 10.8-1.5 2.12-3.88 3.25-6.3 3.25z"/><path d="m149 261h-42c-4.26 0-7.71-3.45-7.71-7.71s3.45-7.71 7.71-7.71h42c4.26 0 7.71 3.45 7.71 7.71s-3.45 7.71-7.71 7.71z"/><path d="m155 236c-1.54 0-3.1-0.462-4.46-1.42l-27.1-19.2c-3.47-2.47-4.29-7.28-1.82-10.8 2.46-3.47 7.28-4.29 10.8-1.82l27.1 19.2c3.47 2.47 4.29 7.28 1.82 10.8-1.5 2.12-3.88 3.25-6.3 3.25z"/><path d="m128 305c-2.42 0-4.79-1.13-6.3-3.25-2.47-3.47-1.65-8.29 1.82-10.8l27.1-19.2c3.47-2.47 8.29-1.65 10.8 1.82 2.47 3.47 1.65 8.29-1.82 10.8l-27.1 19.2c-1.36 0.962-2.92 1.42-4.46 1.42z"/></g></g></svg>
