<svg width="512" height="512" version="1.1" viewBox="0 0 60 59" xmlns="http://www.w3.org/2000/svg"><rect x=".0129" y="40.2" width="60" height="11.8" ry="0" style="fill:#7ee100;paint-order:markers fill stroke"/><rect x=".0129" y="47.2" width="60" height="12.3" ry="0" style="fill:#d17636;paint-order:markers fill stroke"/><ellipse cx="15.3" cy="50.3" rx=".89" ry=".753" style="fill:#ffa560;paint-order:markers fill stroke"/><ellipse cx="24.2" cy="50.3" rx=".89" ry=".753" style="fill:#ffa560;paint-order:markers fill stroke"/><ellipse cx="33.3" cy="50.3" rx=".89" ry=".753" style="fill:#ffa560;paint-order:markers fill stroke"/><ellipse cx="42.7" cy="50.3" rx=".89" ry=".753" style="fill:#ffa560;paint-order:markers fill stroke"/><ellipse cx="52.1" cy="50.3" rx=".89" ry=".753" style="fill:#ffa560;paint-order:markers fill stroke"/><ellipse cx="7.57" cy="50.3" rx=".89" ry=".753" style="fill:#ffa560;paint-order:markers fill stroke"/><path d="m0.0936 51.7s3.24 2.06 5.19 2.18c1.86 0.111 3.42-1.5 5.29-1.47 1.88 0.0257 3.37 1.69 5.25 1.62 1.7-0.0602 2.87-1.82 4.57-1.8 1.59 0.0207 2.62 1.77 4.22 1.8 1.8 0.0309 3.06-1.84 4.86-1.86 1.68-0.0197 2.92 1.64 4.59 1.63 1.64-5e-3 2.85-1.62 4.49-1.63 1.59-0.0029 2.77 1.54 4.36 1.56 1.88 0.0292 3.35-1.72 5.23-1.68 1.93 0.0362 3.33 1.88 5.25 1.92 2.39 0.0563 3.22-1.93 6.69-2.08l-0.0208 7.62-60 1.06e-4z" style="fill:#ffa560"/><path transform="matrix(.117 0 0 .117 0 -.5)" d="m154 233a71.6 56.7 0 0 0-71.5 56.7 71.6 56.7 0 0 0 0.391 5.91 71.8 56.1 0 0 0-10.6-0.621 71.8 56.1 0 0 0-71.8 56.1 71.8 56.1 0 0 0 71.8 56.1 71.8 56.1 0 0 0 64.2-31 84.2 56.7 0 0 0 62 18.3 84.2 56.7 0 0 0 84.2-56.7 84.2 56.7 0 0 0-0.9-8.26 49.1 42.2 0 0 0 8.91-24.2 49.1 42.2 0 0 0-49.1-42.2 49.1 42.2 0 0 0-21.6 4.31 71.6 56.7 0 0 0-65.9-34.5 71.6 56.7 0 0 0-0.082 0zm246 35.9a64.9 51.4 0 0 0-64.9 51.4 64.9 51.4 0 0 0 64.9 51.4 64.9 51.4 0 0 0 38.2-9.83 38.2 30.2 0 0 0 36.5 21.4 38.2 30.2 0 0 0 38.2-30.2 38.2 30.2 0 0 0-38.2-30.2 38.2 30.2 0 0 0-9.99 1.05 64.9 51.4 0 0 0 0.15-3.49 64.9 51.4 0 0 0-64.9-51.4z" style="fill:#7ee100;paint-order:markers fill stroke"/><path d="m18.5 6.96c1.04 0.231 2.03 0.188 3.07 0v21.3h-3.04z" style="fill:#ff6900;stroke-width:.117px;stroke:#ff6900"/><path d="m20.7 7.08c-0.254 0.0229-0.507 0.0342-0.761 0.0325l0.0256 21.1h1.64v-21.1c-0.3 0.0083-0.6 6.15e-4 -0.902-0.03z" style="fill:#ff7c00;stroke-width:.117px;stroke:#ff7c00"/><path d="m18.6 28.3h3.04v3.76s5.59-0.429 6.41 0.546c0.697 3.44 0.562 11.7-3.8 14.6-2.65 0.0053-5.41-0.039-8.28-0.0063-5.4-3.79-4.22-13.2-3.59-14.6 0.339-0.781 6.34-0.454 6.34-0.454z" style="fill:#574d57;stroke-width:.117px;stroke:#574d57"/><path d="m19 47.1c0.141-2.3-0.627-11.2 1.01-11.2 1.64 0.012 1.07 8.51 1.13 11.2z" style="fill:#443f43;stroke-width:.117px;stroke:#443f43"/><path d="m15.6-0.285s-0.777 4.37 1.17 6.29c1.2 1.18 2.97 1.62 4.62 1.17h2.29e-4c6.98e-4 -1.9e-4 0.0014-4.96e-4 0.0021-6.87e-4 0.294-0.0803 0.584-0.189 0.867-0.327 0.0112-0.00543 0.0223-0.011 0.0334-0.0165 0.0845-0.042 0.168-0.0864 0.251-0.134 0.0079-0.0045 0.0159-0.00873 0.0238-0.0133 0.091-0.0525 0.181-0.108 0.27-0.167 7.36e-4 -4.88e-4 0.0016-8.85e-4 0.0023-0.00137 0.0033-0.00216 0.0064-0.0047 0.0096-0.00687 0.0798-0.0532 0.159-0.11 0.236-0.168 0.0204-0.0153 0.0406-0.0312 0.0609-0.0469 0.0637-0.0493 0.127-0.1 0.189-0.153 0.0201-0.017 0.0403-0.0336 0.0602-0.051 0.0792-0.0694 0.158-0.141 0.234-0.216 0.0564-0.0555 0.11-0.114 0.162-0.174 0.103-0.121 0.196-0.251 0.28-0.389 0.0421-0.0688 0.082-0.14 0.12-0.212v-2.29e-4c0.0377-0.0724 0.0733-0.146 0.107-0.222v-2.29e-4c0.0336-0.0756 0.0653-0.153 0.095-0.231v-2.29e-4c0.0297-0.0783 0.0574-0.158 0.0833-0.238v-2.29e-4c0.026-0.0807 0.0501-0.162 0.0726-0.245 0.0449-0.165 0.0831-0.334 0.115-0.504 0.352-1.87-0.0215-3.94-0.0215-3.94h-6.46zm1.8 1.79h5.4s0.473 2.3-0.605 3.24c-1.22 1.06-3.04 0.988-4.1 0.0673-1.16-1.01-0.697-3.3-0.697-3.3z" style="fill:#443f43;stroke-width:.117px;stroke:#433e42"/><ellipse cx="37.1" cy="39.2" rx="6.34" ry="5.44" style="fill:#7ee100;paint-order:markers fill stroke"/><path d="m41.5 36 5.21 4.64h-2.62l-2.63-2.27z" style="fill:#574d57;stroke-width:.117px;stroke:#574d57"/><path d="m38.4 36.1-5.25 4.54h2.73l2.53-2.26z" style="fill:#574d57;stroke-width:.117px;stroke:#574d57"/><path d="m41.4 40.7s7.5-0.353 8.9 0.434c1.12 0.629 0.658 6.03 0.658 6.03h-1.73v-4.74h-3.09v4.74h-1.84v-4.8h-3.44v4.8h-1.86v-4.77h-3.47v4.74h-1.81v-4.69h-3.04v4.72h-1.79c0-2.14-0.28-5.11 0.556-5.95 0.565-0.86 8.01-0.487 11.9-0.514z" style="fill:#574d57;stroke-width:.117px;stroke:#574d57"/><path d="m38.3 6.68c1.04 0.261 2.03 0.212 3.07 0v24h-3.04z" style="fill:#ff6900;stroke-width:.124px;stroke:#ff6900"/><path d="m40.5 6.82c-0.254 0.0259-0.507 0.0386-0.76 0.0367l0.0256 23.9h1.64v-23.9c-0.3 0.0093-0.6 6.93e-4 -0.901-0.0338z" style="fill:#ff7c00;stroke-width:.124px;stroke:#ff7c00"/><path d="m38.4 30.7h3.01v9.94h-2.94z" style="fill:#443f43;stroke-width:.117px;stroke:#443f43"/><path d="m35.5-0.285s-0.777 4.37 1.17 6.29c1.2 1.18 2.97 1.62 4.62 1.17h2.29e-4c6.98e-4 -1.9e-4 0.0014-4.96e-4 0.0021-6.87e-4 0.294-0.0803 0.584-0.189 0.867-0.327 0.0112-0.00543 0.0223-0.011 0.0334-0.0165 0.0845-0.042 0.168-0.0864 0.251-0.134 0.0079-0.0045 0.0159-0.00873 0.0238-0.0133 0.091-0.0525 0.181-0.108 0.27-0.167 7.36e-4 -4.88e-4 0.0016-8.85e-4 0.0023-0.00137 0.0033-0.00216 0.0064-0.0047 0.0096-0.00687 0.0798-0.0532 0.159-0.11 0.236-0.168 0.0204-0.0153 0.0406-0.0312 0.0609-0.0469 0.0637-0.0493 0.127-0.1 0.189-0.153 0.0201-0.017 0.0403-0.0336 0.0602-0.051 0.0792-0.0694 0.158-0.141 0.234-0.216 0.0564-0.0555 0.11-0.114 0.162-0.174 0.103-0.121 0.196-0.251 0.28-0.389 0.0421-0.0688 0.082-0.14 0.12-0.212v-2.29e-4c0.0377-0.0724 0.0733-0.146 0.107-0.222v-2.29e-4c0.0336-0.0756 0.0653-0.153 0.095-0.231v-2.29e-4c0.0297-0.0783 0.0574-0.158 0.0833-0.238v-2.29e-4c0.026-0.0807 0.0501-0.162 0.0726-0.245 0.0449-0.165 0.0831-0.334 0.115-0.504 0.352-1.87-0.0215-3.94-0.0215-3.94h-6.46zm1.8 1.79h5.4s0.473 2.3-0.605 3.24c-1.22 1.06-3.04 0.988-4.1 0.0673-1.16-1.01-0.697-3.3-0.697-3.3z" style="fill:#443f43;stroke-width:.117px;stroke:#433e42"/></svg>
