<svg width="512" height="512" xmlns="http://www.w3.org/2000/svg">
 <!-- Created with Method Draw - http://github.com/duopixel/Method-Draw/ -->

 <g>
  <title>background</title>
  <rect fill="none" id="canvas_background" height="514" width="514" y="-1" x="-1"/>
  <g display="none" overflow="visible" y="0" x="0" height="100%" width="100%" id="canvasGrid">
   <rect fill="url(#gridpattern)" stroke-width="0" y="0" x="0" height="100%" width="100%"/>
  </g>
 </g>
 <g>
  <title>Layer 1</title>
  <!-- Created with Method Draw - http://github.com/duopixel/Method-Draw/ -->
  <g stroke="null" id="svg_153">
   <g stroke="null" transform="matrix(1.7367404807973381,0,0,1.7367404807973381,-13.425788513267378,-164.18341768882522) " id="svg_150">
    <title stroke="null" transform="translate(-0.8225633502006531,0) translate(-0.8225633502006531,0) translate(-0.8225633502006531,0) translate(-0.8225633502006531,0) translate(0,0.8225633502006531) translate(0,-0.8225633502006531) translate(0,-0.8225633502006531) translate(-0.8225633502006531,0) translate(-0.8225633502006531,0) translate(-0.8225633502006531,0) translate(-0.8225633502006531,0) translate(0,-0.8225633502006531) translate(-12.621221542358398,-7.572732925415039) translate(-3.427375555038452,-5.141063690185547) translate(-26.591896057128906,-9.750362396240234) translate(-27.972742080688477,-17.36239242553711) translate(-73.28749084472656,-67.64998626708984) translate(-207.9550323486328,-29.993513107299805) translate(0,-0.9997838139533997) translate(0,-0.9997838139533997) translate(0,-0.9997838139533997) translate(-0.9997838139533997,0) translate(0.9997838139533997,0) translate(0,0.9997838139533997) translate(-0.9997838139533997,0) translate(0,0.9997838139533997) translate(0,0.9997838139533997) translate(0,0.9997838139533997) translate(0,0.9997838139533997) translate(0,0.9997838139533997) translate(0,-0.9997838139533997) translate(0,-0.9997838139533997) translate(0,-0.9997838139533997) translate(0,-0.9997838139533997) translate(0,-0.9997838139533997) translate(0,-0.9997838139533997) translate(0,-0.9997838139533997) translate(0,-0.9997838139533997) translate(0,-0.9997838139533997) translate(0,-0.9997838139533997) translate(0,-0.9997838139533997) translate(0,-0.9997838139533997) translate(0,-0.9997838139533997) translate(0,-0.9997838139533997) translate(0,-0.9997838139533997) translate(0,-0.9997838139533997) translate(0,-0.9997838139533997) translate(0.9997838139533997,0) translate(-0.9997838139533997,0) translate(-1.001732349395752,-1.4210854715202004e-14) translate(-1.4210854715202004e-14,26.198213577270508) translate(-15.699094772338867,-21.97873306274414) translate(-1907.9998779296875,-1961.9998779296875) translate(2047.9998779296875,0) translate(0,2103.999755859375) ">background</title>
    <rect stroke="null" x="-237.136876" y="-7.892792" width="514" height="402" id="svg_148" fill="none"/>
    <g stroke="null" id="svg_147" display="none">
     <rect stroke="null" id="svg_151" width="512" height="512" x="-236.136876" y="-6.892792" stroke-width="0" fill="url(#gridpattern)"/>
    </g>
   </g>
   <g stroke="null" transform="matrix(1.7367404807973381,0,0,1.7367404807973381,-13.425788513267378,-164.18341768882522) " id="svg_152">
    <title stroke="null" transform="translate(-0.8225633502006531,0) translate(-0.8225633502006531,0) translate(-0.8225633502006531,0) translate(-0.8225633502006531,0) translate(0,0.8225633502006531) translate(0,-0.8225633502006531) translate(0,-0.8225633502006531) translate(-0.8225633502006531,0) translate(-0.8225633502006531,0) translate(-0.8225633502006531,0) translate(-0.8225633502006531,0) translate(0,-0.8225633502006531) translate(-12.621221542358398,-7.572732925415039) translate(-3.427375555038452,-5.141063690185547) translate(-26.591896057128906,-9.750362396240234) translate(-27.972742080688477,-17.36239242553711) translate(-73.28749084472656,-67.64998626708984) translate(-207.9550323486328,-29.993513107299805) translate(0,-0.9997838139533997) translate(0,-0.9997838139533997) translate(0,-0.9997838139533997) translate(-0.9997838139533997,0) translate(0.9997838139533997,0) translate(0,0.9997838139533997) translate(-0.9997838139533997,0) translate(0,0.9997838139533997) translate(0,0.9997838139533997) translate(0,0.9997838139533997) translate(0,0.9997838139533997) translate(0,0.9997838139533997) translate(0,-0.9997838139533997) translate(0,-0.9997838139533997) translate(0,-0.9997838139533997) translate(0,-0.9997838139533997) translate(0,-0.9997838139533997) translate(0,-0.9997838139533997) translate(0,-0.9997838139533997) translate(0,-0.9997838139533997) translate(0,-0.9997838139533997) translate(0,-0.9997838139533997) translate(0,-0.9997838139533997) translate(0,-0.9997838139533997) translate(0,-0.9997838139533997) translate(0,-0.9997838139533997) translate(0,-0.9997838139533997) translate(0,-0.9997838139533997) translate(0,-0.9997838139533997) translate(0.9997838139533997,0) translate(-0.9997838139533997,0) translate(-1.001732349395752,-1.4210854715202004e-14) translate(-1.4210854715202004e-14,26.198213577270508) translate(-15.699094772338867,-21.97873306274414) translate(-1907.9998779296875,-1961.9998779296875) translate(2047.9998779296875,0) translate(0,2103.999755859375) ">Layer 1</title>
    <g stroke="null" id="svg_94">
     <g stroke="null" id="svg_109" transform="matrix(0.724688990722112,0,0,0.724688990722112,-1398.2854478560055,-1075.4586792319876) "/>
     <g stroke="null" id="svg_108" transform="matrix(0.724688990722112,0,0,0.724688990722112,-1398.2854478560055,-1075.4586792319876) "/>
     <g stroke="null" id="svg_107" transform="matrix(0.724688990722112,0,0,0.724688990722112,-1398.2854478560055,-1075.4586792319876) "/>
     <g stroke="null" id="svg_106" transform="matrix(0.724688990722112,0,0,0.724688990722112,-1398.2854478560055,-1075.4586792319876) "/>
     <g stroke="null" id="svg_105" transform="matrix(0.724688990722112,0,0,0.724688990722112,-1398.2854478560055,-1075.4586792319876) "/>
     <g stroke="null" id="svg_104" transform="matrix(0.724688990722112,0,0,0.724688990722112,-1398.2854478560055,-1075.4586792319876) "/>
     <g stroke="null" id="svg_103" transform="matrix(0.724688990722112,0,0,0.724688990722112,-1398.2854478560055,-1075.4586792319876) "/>
     <g stroke="null" id="svg_102" transform="matrix(0.724688990722112,0,0,0.724688990722112,-1398.2854478560055,-1075.4586792319876) "/>
     <g stroke="null" id="svg_101" transform="matrix(0.724688990722112,0,0,0.724688990722112,-1398.2854478560055,-1075.4586792319876) "/>
     <g stroke="null" id="svg_100" transform="matrix(0.724688990722112,0,0,0.724688990722112,-1398.2854478560055,-1075.4586792319876) "/>
     <g stroke="null" id="svg_99" transform="matrix(0.724688990722112,0,0,0.724688990722112,-1398.2854478560055,-1075.4586792319876) "/>
     <g stroke="null" id="svg_98" transform="matrix(0.724688990722112,0,0,0.724688990722112,-1398.2854478560055,-1075.4586792319876) "/>
     <g stroke="null" id="svg_97" transform="matrix(0.724688990722112,0,0,0.724688990722112,-1398.2854478560055,-1075.4586792319876) "/>
     <g stroke="null" id="svg_96" transform="matrix(0.724688990722112,0,0,0.724688990722112,-1398.2854478560055,-1075.4586792319876) "/>
     <g stroke="null" id="svg_95" transform="matrix(0.724688990722112,0,0,0.724688990722112,-1398.2854478560055,-1075.4586792319876) "/>
    </g>
    <g stroke="null" id="svg_87">
     <path stroke="null" d="m238.443794,307.254828l-32.55822,-23.25246c-1.4118,-1.00844 -3.10337,-1.5506 -4.84047,-1.5506l-8.91756,-0.00217c-2.20988,0 -4.33083,0.88265 -5.89011,2.44192c-7.95467,7.95684 -18.53777,12.34189 -29.79099,12.34189c-11.25322,0 -21.83416,-4.38505 -29.791,-12.34189c-1.55927,-1.55927 -3.68023,-2.44192 -5.8901,-2.44192l-8.91756,0.00217c-1.73494,0 -3.42867,0.54216 -4.84047,1.5506l-32.55823,23.25246c-20.89511,14.92694 -33.36929,39.16831 -33.36929,64.84535l0,7.8766c0,4.59975 3.73011,8.32769 8.32769,8.32769l214.07792,0c4.59975,0 8.32769,-3.72794 8.32769,-8.32769l0,-7.8766c0,-25.67704 -12.47418,-49.91841 -33.3693,-64.84535zm0,0" fill="#c55f54" id="svg_93"/>
     <path stroke="null" d="m263.485404,388.304468c4.59975,0 8.32769,-3.72794 8.32769,-8.32769l0,-7.8766c0,-25.67704 -12.47418,-49.91841 -33.3693,-64.84535l-32.55605,-23.25246c-1.41397,-1.00844 -3.10553,-1.5506 -4.84047,-1.5506l-8.91973,-0.00217c-2.2077,0 -4.32867,0.88265 -5.89011,2.44192c-7.95467,7.95684 -18.53777,12.34189 -29.79099,12.34189l0,91.07106l107.03896,0zm0,0" fill="#c55f54" id="svg_92"/>
     <path stroke="null" d="m199.861014,344.297848c-4.59758,0 -8.32768,-3.73011 -8.32768,-8.32768l0,-53.52057c0,-4.59758 3.73011,-8.32769 8.32768,-8.32769c4.59974,0 8.32769,3.73011 8.32769,8.32769l0,53.52057c0,4.59974 -3.72795,8.32768 -8.32769,8.32768zm0,0" fill="#ecb402" id="svg_91"/>
     <path stroke="null" d="m113.031874,344.297848c-4.59975,0 -8.32769,-3.73011 -8.32769,-8.32768l0,-53.52057c0,-4.59758 3.72794,-8.32769 8.32769,-8.32769c4.59975,0 8.32768,3.73011 8.32768,8.32769l0,53.52057c0,4.59974 -3.72794,8.32768 -8.32768,8.32768zm0,0" fill="#ffe100" id="svg_90"/>
     <path stroke="null" d="m236.134154,388.304468l-159.37326,0l0,-26.16715c0,-14.45201 11.71514,-26.16716 26.16715,-26.16716l107.0368,0c14.452,0 26.16931,11.71515 26.16931,26.16716l0,26.16715zm0,0" fill="#ecb402" id="svg_89"/>
     <path stroke="null" d="m156.446444,335.970158l0,52.33431l79.68771,0l0,-26.16715c0,-14.45201 -11.71731,-26.16716 -26.16931,-26.16716l-53.5184,0zm0,0" fill="#bb8901" id="svg_88"/>
    </g>
    <g stroke="null" id="svg_81">
     <path stroke="null" d="m228.906654,301.534408c-27.25836,17.79979 -62.62627,10.59503 -92.29228,-2.78756c-13.1649,14.46545 -31.79303,20.6941 -51.25743,18.62254l0,-14.57173c0,-13.82589 8.07831,-25.77322 19.76926,-31.37163c-3.7385,-7.37444 -5.78488,-15.64434 -5.78488,-24.22609l0,-80.86237c0,-31.92169 25.88044,-57.80213 57.80213,-57.80213s57.80212,25.88044 57.80212,57.80213c0.00466,109.65016 -0.03263,108.59807 0.01398,108.59807c8.16735,6.10698 13.56066,15.71379 13.9471,26.59877z" fill="#ff6953" id="svg_86"/>
     <path stroke="null" d="m169.095904,150.083518c-7.69607,-0.67964 -15.69934,-0.72439 -23.90398,0c-19.39727,1.69957 -34.19648,17.91073 -34.19648,37.26372l0,15.40613c0,25.48887 20.6596,46.14847 46.14847,46.14847s46.14847,-20.6596 46.14847,-46.14847l0,-15.40613c-0.00046,-19.34134 -14.78942,-35.56369 -34.19648,-37.26372z" fill="#ffdfba" id="svg_85"/>
     <path stroke="null" d="m136.614374,298.746848c-2.47058,2.71297 -5.66368,5.72428 -9.7005,8.5398c-0.92437,-0.43398 -4.09789,-1.94709 -4.48899,-2.15359c-11.65692,-5.67347 -20.93323,-15.42478 -26.0296,-27.74036c2.57312,-2.40998 5.51451,-4.42839 8.73091,-5.96667c8.74864,17.27584 22.32002,23.17352 31.48818,27.32082z" fill="#e85e43" id="svg_84"/>
     <path stroke="null" d="m172.084364,122.493258c-27.64107,-0.33376 -54.11537,19.37164 -58.23237,50.01562c-0.06433,0.4792 -0.18739,0.95047 -0.3636,1.40077c-3.09008,7.91796 -2.49341,13.16117 -2.49341,28.84372c0,4.7519 0.716,9.33178 2.05244,13.6441c0.17853,0.57662 0.27829,1.17469 0.27829,1.77835c0,0.27456 -0.00047,43.07097 0.00093,43.34553c0.04242,6.76518 -9.45345,8.28808 -11.49284,1.83755c-1.63011,-5.15697 -2.49248,-10.5983 -2.49248,-16.15849l0,-80.19159c0,-37.20499 36.18739,-67.5884 74.52652,-56.01585c6.47803,1.95548 4.98217,11.58233 -1.78348,11.50029z" fill="#e95f43" id="svg_83"/>
     <path stroke="null" d="m145.523824,240.850568c-2.4123,3.59445 -6.685,4.38037 -9.92285,2.64211c-14.65797,-7.86854 -24.60133,-23.49143 -24.60553,-41.26605c-0.00466,-15.86296 -0.16781,-17.32199 0.59667,-21.54062c2.34005,-12.98683 11.40194,-23.72217 23.60098,-28.32816c-4.89453,5.17888 -8.30672,11.73802 -9.61659,19.00524c-0.76915,4.24613 -0.59667,5.62172 -0.59667,22.06736c0,15.63128 7.53712,28.82694 18.67848,37.06048c3.28446,2.42676 4.14124,6.96889 1.86551,10.35964z" fill="#ffebd2" id="svg_82"/>
    </g>
    <g stroke="null" id="svg_76">
     <path stroke="null" d="m180.677354,95.680998l-47.71967,0c-21.63609,0 -39.2385,17.6024 -39.2385,39.2385l0,7.42538c0,4.10136 3.32402,7.42538 7.42538,7.42538l111.34783,0c4.09943,0 7.42538,-3.32402 7.42538,-7.42538l0,-7.42538c0,-21.6361 -17.6024,-39.2385 -39.24042,-39.2385zm0,0" fill="#ffe100" id="svg_80"/>
     <path stroke="null" d="m219.917774,134.921428l0,7.42538c0,4.09943 -3.32595,7.42538 -7.42538,7.42538l-55.67488,0l0,-54.09119l23.85984,0c21.63802,0 39.24042,17.6024 39.24042,39.24043zm0,0" fill="#ecb402" id="svg_79"/>
     <path stroke="null" d="m260.223664,142.348738l-206.80263,0c-4.0975,0 -7.42538,3.33176 -7.42538,7.42925c0,13.46624 10.9157,24.38 24.37999,24.38l172.89341,0c13.4643,0 24.37999,-10.91376 24.37999,-24.38c0,-4.09749 -3.32595,-7.42925 -7.42538,-7.42925zm0,0" fill="#ecb402" id="svg_78"/>
     <path stroke="null" d="m267.649044,149.777988c0,13.4643 -10.91569,24.38 -24.37999,24.38l-86.45154,0l0,-31.81118l103.40615,0c4.09943,0 7.42538,3.33175 7.42538,7.43118zm0,0" fill="#bb8901" id="svg_77"/>
    </g>
   </g>
  </g>
 </g>
</svg>