<svg width="512" height="512" xmlns="http://www.w3.org/2000/svg">
 <!-- Created with Method Draw - http://github.com/duopixel/Method-Draw/ -->

 <g>
  <title>background</title>
  <rect fill="none" id="canvas_background" height="514" width="514" y="-1" x="-1"/>
  <g display="none" overflow="visible" y="0" x="0" height="100%" width="100%" id="canvasGrid">
   <rect fill="url(#gridpattern)" stroke-width="0" y="0" x="0" height="100%" width="100%"/>
  </g>
 </g>
 <g>
  <title>Layer 1</title>
  <!-- Created with Method Draw - http://github.com/duopixel/Method-Draw/ -->
  <g stroke="null" id="svg_210">
   <g stroke="null" transform="matrix(1.2079258452165402,0,0,1.2079258452165402,-330.1087723177426,-385.57691440699875) " id="svg_158">
    <g stroke="null" id="svg_159">
     <path stroke="null" id="svg_160" fill="#FFD24F" d="m567.731205,390.235971c-7.677,-36.192 -29.611,-60.868 -39.482,-65.803c-22.209,-11.104 -29.611,6.58 -39.482,6.58s-17.273,-17.685 -39.482,-6.58c-9.87,4.935 -31.805,29.611 -39.482,65.803s78.964,6.58 78.964,6.58s86.641,29.612 78.964,-6.58z"/>
    </g>
    <g stroke="null" id="svg_161">
     <ellipse stroke="null" id="svg_162" fill="#FFBE1E" ry="55.933" rx="151.347" cy="442.505971" cx="488.767205"/>
    </g>
    <g stroke="null" id="svg_163">
     <path stroke="null" id="svg_164" fill="#FFE1B2" d="m399.718205,483.002971c-9.864,-2.468 -16.326,2.805 -16.326,13.161c0,13.709 13.265,47.296 27.21,26.321s-10.884,-39.482 -10.884,-39.482z"/>
    </g>
    <g stroke="null" id="svg_165">
     <path stroke="null" id="svg_166" fill="#FFE1B2" d="m576.141205,483.002971c10.767,-2.468 17.821,2.805 17.821,13.161c0,13.709 -14.479,47.296 -29.701,26.321s11.88,-39.482 11.88,-39.482z"/>
    </g>
    <g stroke="null" id="svg_167">
     <path stroke="null" id="svg_168" fill="#FFD7A3" d="m416.474205,602.656971c14.716,-9.475 13.07,-37.675 13.07,-44.255l118.446,0c0,6.58 -1.825,34.78 12.89,44.255l-72.113,80.771l-72.293,-80.771z"/>
    </g>
    <g stroke="null" id="svg_169">
     <path stroke="null" id="svg_170" fill="#FDC88E" d="m534.829205,630.785971l26.051,-28.129c-14.716,-9.474 -12.89,-37.675 -12.89,-44.255l-118.446,0c8.498,24.433 64.707,66.352 105.285,72.384z"/>
    </g>
    <g stroke="null" id="svg_171">
     <path stroke="null" id="svg_172" fill="#FF6953" d="m640.114205,741.361971c10.903,0 19.741,-8.838 19.741,-19.741l0,-39.208c0,-28.954 -22.562,-59.864 -50.138,-68.687l-41.168,-13.173c-22.149,16.936 -53.802,40.039 -79.782,40.039s-57.633,-23.103 -79.782,-40.039l-41.168,13.173c-27.576,8.823 -50.138,39.733 -50.138,68.687l0,39.208c0,10.903 8.838,19.741 19.741,19.741l302.694,0z"/>
    </g>
    <g stroke="null" id="svg_173">
     <path stroke="null" id="svg_174" fill="#E95F43" d="m659.426205,725.691971l-10.215,0l0,-13.835l10.644,0l0,-10.074l-10.644,0l0,-13.835l10.644,0l0,-5.536c0,-1.508 -0.097,-3.023 -0.217,-4.538l-10.427,0l0,-13.834l7.738,0c-1.041,-3.417 -2.337,-6.785 -3.884,-10.074l-3.854,0l0,-7.216c-3.667,-6.106 -8.144,-11.757 -13.224,-16.693l-10.684,0l0,-8.691c-4.914,-3.274 -10.146,-5.9 -15.585,-7.641l-23.681,-7.578l-8.552,0l0,-2.737l-8.935,-2.859c-0.37,0.283 -0.763,0.58 -1.139,0.866l0,4.73l-6.266,0c-5.527,4.126 -11.465,8.395 -17.643,12.487l0,11.422l-13.835,0l0,-2.902c-11.606,6.535 -23.519,11.538 -34.666,12.975l0.684,0l0,13.835l-13.835,0l0,-13.835l0.684,0c-11.148,-1.437 -23.061,-6.441 -34.667,-12.976l0,2.902l-13.835,0l0,-11.422c-6.178,-4.092 -12.116,-8.361 -17.643,-12.487l-6.266,0l0,-4.73c-0.375,-0.286 -0.769,-0.583 -1.139,-0.866l-8.935,2.859l0,2.737l-8.552,0l-23.681,7.578c-5.439,1.74 -10.671,4.366 -15.585,7.641l0,8.691l-10.683,0c-5.08,4.936 -9.557,10.586 -13.224,16.693l0,7.216l-3.854,0c-1.546,3.289 -2.842,6.656 -3.884,10.074l7.738,0l0,13.835l-10.428,0c-0.12,1.515 -0.217,3.03 -0.217,4.538l0,5.536l10.644,0l0,13.835l-10.644,0l0,10.074l10.644,0l0,13.835l-10.214,0c0.822,3.915 2.811,7.388 5.577,10.074l4.637,0l0,3.278c2.734,1.431 5.797,2.318 9.097,2.318l0.978,0l0,-5.596l13.835,0l0,5.596l10.075,0l0,-5.596l13.833,0l0,5.596l10.074,0l0,-5.596l13.835,0l0,5.596l10.074,0l0,-5.596l13.835,0l0,5.596l10.074,0l0,-5.596l13.835,0l0,5.596l10.075,0l0,-5.596l13.835,0l0,5.596l10.074,0l0,-5.596l13.835,0l0,5.596l10.074,0l0,-5.596l13.835,0l0,5.596l10.074,0l0,-5.596l13.835,0l0,5.596l10.074,0l0,-5.596l13.835,0l0,5.596l10.074,0l0,-5.596l13.835,0l0,5.596l10.074,0l0,-5.596l13.835,0l0,5.596l10.075,0l0,-5.596l13.835,0l0,5.596l0.978,0c3.3,0 6.363,-0.887 9.097,-2.318l0,-3.278l4.637,0c2.76,-2.686 4.75,-6.159 5.572,-10.074zm-307.194,0l-13.835,0l0,-13.835l13.835,0l0,13.835zm0,-23.908l-13.835,0l0,-13.835l13.835,0l0,13.835zm0,-23.909l-13.835,0l0,-13.835l13.835,0l0,13.835zm0,-23.909l-13.835,0l0,-13.835l13.835,0l0,13.835zm23.909,71.726l-13.835,0l0,-13.835l13.835,0l0,13.835zm0,-23.908l-13.835,0l0,-13.835l13.835,0l0,13.835zm0,-23.909l-13.835,0l0,-13.835l13.835,0l0,13.835zm0,-23.909l-13.835,0l0,-13.835l13.835,0l0,13.835zm0,-23.909l-13.835,0l0,-13.835l13.835,0l0,13.835zm23.909,95.635l-13.835,0l0,-13.835l13.835,0l0,13.835zm0,-23.908l-13.835,0l0,-13.835l13.835,0l0,13.835zm0,-23.909l-13.835,0l0,-13.835l13.835,0l0,13.835zm0,-23.909l-13.835,0l0,-13.835l13.835,0l0,13.835zm0,-23.909l-13.835,0l0,-13.835l13.835,0l0,13.835zm23.908,95.635l-13.835,0l0,-13.835l13.835,0l0,13.835zm0,-23.908l-13.835,0l0,-13.835l13.835,0l0,13.835zm0,-23.909l-13.835,0l0,-13.835l13.835,0l0,13.835zm0,-23.909l-13.835,0l0,-13.835l13.835,0l0,13.835zm0,-23.909l-13.835,0l0,-13.835l13.835,0l0,13.835zm23.909,95.635l-13.835,0l0,-13.835l13.835,0l0,13.835zm0,-23.908l-13.835,0l0,-13.835l13.835,0l0,13.835zm0,-23.909l-13.835,0l0,-13.835l13.835,0l0,13.835zm0,-23.909l-13.835,0l0,-13.835l13.835,0l0,13.835zm23.909,71.726l-13.835,0l0,-13.835l13.835,0l0,13.835zm0,-23.908l-13.835,0l0,-13.835l13.835,0l0,13.835zm0,-23.909l-13.835,0l0,-13.835l13.835,0l0,13.835zm0,-23.909l-13.835,0l0,-13.835l13.835,0l0,13.835zm23.908,71.726l-13.835,0l0,-13.835l13.835,0l0,13.835zm0,-23.908l-13.835,0l0,-13.835l13.835,0l0,13.835zm0,-23.909l-13.835,0l0,-13.835l13.835,0l0,13.835zm23.909,47.817l-13.835,0l0,-13.835l13.835,0l0,13.835zm0,-23.908l-13.835,0l0,-13.835l13.835,0l0,13.835zm0,-23.909l-13.835,0l0,-13.835l13.835,0l0,13.835zm0,-23.909l-13.835,0l0,-13.835l13.835,0l0,13.835zm23.909,71.726l-13.835,0l0,-13.835l13.835,0l0,13.835zm0,-23.908l-13.835,0l0,-13.835l13.835,0l0,13.835zm0,-23.909l-13.835,0l0,-13.835l13.835,0l0,13.835zm0,-23.909l-13.835,0l0,-13.835l13.835,0l0,13.835zm23.909,71.726l-13.835,0l0,-13.835l13.835,0l0,13.835zm0,-23.908l-13.835,0l0,-13.835l13.835,0l0,13.835zm0,-23.909l-13.835,0l0,-13.835l13.835,0l0,13.835zm0,-23.909l-13.835,0l0,-13.835l13.835,0l0,13.835zm0,-23.909l-13.835,0l0,-13.835l13.835,0l0,13.835zm23.908,95.635l-13.835,0l0,-13.835l13.835,0l0,13.835zm0,-23.908l-13.835,0l0,-13.835l13.835,0l0,13.835zm0,-23.909l-13.835,0l0,-13.835l13.835,0l0,13.835zm0,-23.909l-13.835,0l0,-13.835l13.835,0l0,13.835zm0,-23.909l-13.835,0l0,-13.835l13.835,0l0,13.835zm23.909,95.635l-13.835,0l0,-13.835l13.835,0l0,13.835zm0,-23.908l-13.835,0l0,-13.835l13.835,0l0,13.835zm0,-23.909l-13.835,0l0,-13.835l13.835,0l0,13.835zm0,-23.909l-13.835,0l0,-13.835l13.835,0l0,13.835zm0,-23.909l-13.835,0l0,-13.835l13.835,0l0,13.835zm23.909,95.635l-13.835,0l0,-13.835l13.835,0l0,13.835zm0,-23.908l-13.835,0l0,-13.835l13.835,0l0,13.835zm0,-23.909l-13.835,0l0,-13.835l13.835,0l0,13.835zm0,-23.909l-13.835,0l0,-13.835l13.835,0l0,13.835z"/>
    </g>
    <g stroke="null" id="svg_175">
     <path stroke="null" id="svg_176" fill="#FFBE1E" d="m488.767205,640.590971l-27.456,27.456c-2.859,2.859 -7.596,2.487 -9.975,-0.783l-48.113,-66.156l15.326,-15.326c2.475,-2.475 6.454,-2.579 9.055,-0.238l61.163,55.047z"/>
    </g>
    <g stroke="null" id="svg_177">
     <path stroke="null" id="svg_178" fill="#FFBE1E" d="m488.767205,640.590971l27.456,27.456c2.859,2.859 7.596,2.487 9.975,-0.783l48.113,-66.156l-15.326,-15.326c-2.475,-2.475 -6.454,-2.579 -9.055,-0.238l-61.163,55.047z"/>
    </g>
    <g stroke="null" id="svg_179">
     <path stroke="null" id="svg_180" fill="#FFE1B2" d="m400.746205,438.506971c-1.539,9.309 -1.623,20.502 -1.623,33.803c0,52.696 29.526,118.446 89.645,118.446s89.645,-65.75 89.645,-118.446c0,-13.302 -0.084,-24.494 -1.623,-33.803c-24.117,-8.127 -54.708,-13 -88.021,-13s-63.907,4.872 -88.023,13z"/>
    </g>
    <g stroke="null" id="svg_181">
     <path stroke="null" id="svg_182" fill="#A7795E" d="m578.749205,449.151971c-5.267,-6.759 -10.916,-13.704 -10.916,-13.704l0,6.58c1.632,59.634 -19.588,85.544 -19.588,85.544l-27.038,3.027c-21.086,2.361 -42.366,2.361 -63.452,0l-27.038,-3.027c0,0 -21.22,-25.91 -19.588,-85.544l0,-6.58c0,0 -5.649,6.944 -10.916,13.704c-1.372,5.869 -3.571,12.25 -3.571,19.254c0,52.696 31.536,128.671 92.839,128.671s91.41,-75.975 91.41,-128.671c0.001,-7.004 -0.769,-13.385 -2.142,-19.254zm-108.856,94.049l39.176,0c5.371,0 9.976,3.273 11.982,7.944c-7.233,3.172 -18.335,5.216 -30.849,5.216c-13.213,0 -24.826,-2.284 -31.995,-5.765c2.126,-4.364 6.536,-7.395 11.686,-7.395z"/>
    </g>
    <g stroke="null" id="svg_183">
     <path stroke="null" id="svg_184" fill="#543D38" d="m492.263205,537.346971c0,-8.689 -8.431,-10.656 -13.983,-8.55c-10.179,3.861 -21.386,14.632 -30.845,7.971c0,0 3.29,13.903 8.841,13.903c11.104,-0.001 35.987,1.448 35.987,-13.324z"/>
    </g>
    <g stroke="null" id="svg_185">
     <path stroke="null" id="svg_186" fill="#543D38" d="m489.602205,537.346971c0,-8.689 8.431,-10.656 13.983,-8.55c10.179,3.861 21.386,14.632 30.845,7.971c0,0 -3.29,13.903 -8.841,13.903c-11.104,-0.001 -35.987,1.448 -35.987,-13.324z"/>
    </g>
    <g stroke="null" id="svg_187">
     <path stroke="null" id="svg_188" fill="#C55F54" d="m600.633205,609.960971l-26.321,-8.423l0,80.969c0,3.012 -1.999,5.675 -4.923,6.395c-22.275,5.486 -50.216,8.77 -80.621,8.77s-58.346,-3.284 -80.621,-8.77c-2.925,-0.72 -4.923,-3.383 -4.923,-6.395l0,-80.969l-26.321,8.423l0,131.401l223.731,0l0,-131.401l-0.001,0z"/>
    </g>
    <g stroke="null" id="svg_189">
     <path stroke="null" id="svg_190" fill="#543D38" d="m397.084205,483.853971l17.769,3.276c0,0 6.939,-38.912 10.659,-55.078c-9.705,1.937 -18.858,4.267 -27.202,7.003c-1.582,9.309 -1.668,20.502 -1.668,33.803c0.001,3.612 0.157,7.288 0.442,10.996z"/>
    </g>
    <g stroke="null" id="svg_191">
     <path stroke="null" id="svg_192" fill="#543D38" d="m580.450205,483.853971l-17.769,3.276c0,0 -6.939,-38.912 -10.659,-55.078c9.705,1.937 18.858,4.267 27.202,7.003c1.582,9.309 1.668,20.502 1.668,33.803c0,3.612 -0.157,7.288 -0.442,10.996z"/>
    </g>
    <g stroke="null" id="svg_193">
     <path stroke="null" id="svg_194" fill="#543D38" d="m527.427205,448.126971l15.789,-17.973c-16.762,-2.964 -35.121,-4.647 -54.449,-4.647c-11.763,0 -23.16,0.637 -34.079,1.781c10.322,-0.706 50.941,4.764 72.739,20.839z"/>
    </g>
   </g>
   <g stroke="null" transform="matrix(1.2079258452165402,0,0,1.2079258452165402,-330.1087723177426,-385.57691440699875) " id="svg_195"/>
   <g stroke="null" transform="matrix(1.2079258452165402,0,0,1.2079258452165402,-330.1087723177426,-385.57691440699875) " id="svg_196"/>
   <g stroke="null" transform="matrix(1.2079258452165402,0,0,1.2079258452165402,-330.1087723177426,-385.57691440699875) " id="svg_197"/>
   <g stroke="null" transform="matrix(1.2079258452165402,0,0,1.2079258452165402,-330.1087723177426,-385.57691440699875) " id="svg_198"/>
   <g stroke="null" transform="matrix(1.2079258452165402,0,0,1.2079258452165402,-330.1087723177426,-385.57691440699875) " id="svg_199"/>
   <g stroke="null" transform="matrix(1.2079258452165402,0,0,1.2079258452165402,-330.1087723177426,-385.57691440699875) " id="svg_200"/>
   <g stroke="null" transform="matrix(1.2079258452165402,0,0,1.2079258452165402,-330.1087723177426,-385.57691440699875) " id="svg_201"/>
   <g stroke="null" transform="matrix(1.2079258452165402,0,0,1.2079258452165402,-330.1087723177426,-385.57691440699875) " id="svg_202"/>
   <g stroke="null" transform="matrix(1.2079258452165402,0,0,1.2079258452165402,-330.1087723177426,-385.57691440699875) " id="svg_203"/>
   <g stroke="null" transform="matrix(1.2079258452165402,0,0,1.2079258452165402,-330.1087723177426,-385.57691440699875) " id="svg_204"/>
   <g stroke="null" transform="matrix(1.2079258452165402,0,0,1.2079258452165402,-330.1087723177426,-385.57691440699875) " id="svg_205"/>
   <g stroke="null" transform="matrix(1.2079258452165402,0,0,1.2079258452165402,-330.1087723177426,-385.57691440699875) " id="svg_206"/>
   <g stroke="null" transform="matrix(1.2079258452165402,0,0,1.2079258452165402,-330.1087723177426,-385.57691440699875) " id="svg_207"/>
   <g stroke="null" transform="matrix(1.2079258452165402,0,0,1.2079258452165402,-330.1087723177426,-385.57691440699875) " id="svg_208"/>
   <g stroke="null" transform="matrix(1.2079258452165402,0,0,1.2079258452165402,-330.1087723177426,-385.57691440699875) " id="svg_209"/>
  </g>
 </g>
</svg>