<svg width="512" height="512" version="1.1" xmlns="http://www.w3.org/2000/svg"><rect id="canvas_background" x="-1" y="-1" width="514" height="514" fill="none"/><g id="canvasGrid" x="0" y="0" width="100%" height="100%" display="none" overflow="visible"><rect width="100%" height="100%" fill="url(#gridpattern)" stroke-width="0"/></g><g stroke="null"><g transform="matrix(1 0 0 1 -123 -128)"><rect x="121" y="131" width="514" height="402" fill="none"/><g display="none"><rect x="122" y="132" width="512" height="512" fill="url(#gridpattern)" stroke="null" stroke-width="0"/></g></g><g transform="matrix(1 0 0 1 -123 -128)"><g transform="matrix(.725 0 0 .725 -1398 -1075)" stroke="null"><path d="m2356 1862c-7.68-36.2-29.6-60.9-39.5-65.8-22.2-11.1-29.6 6.58-39.5 6.58s-17.3-17.7-39.5-6.58c-9.87 4.94-31.8 29.6-39.5 65.8s79 6.58 79 6.58 86.6 29.6 79-6.58z" fill="#FFD24F" stroke="null"/><ellipse cx="2277" cy="1914" rx="151" ry="55.9" fill="#FFBE1E" stroke="null"/><path d="m2188 1954c-9.86-2.47-16.3 2.8-16.3 13.2 0 13.7 13.3 47.3 27.2 26.3s-10.9-39.5-10.9-39.5z" fill="#FFE1B2" stroke="null"/><path d="m2364 1954c10.8-2.47 17.8 2.8 17.8 13.2 0 13.7-14.5 47.3-29.7 26.3s11.9-39.5 11.9-39.5z" fill="#FFE1B2" stroke="null"/><path d="m2205 2074c14.7-9.48 13.1-37.7 13.1-44.3h118c0 6.58-1.82 34.8 12.9 44.3l-72.1 80.8-72.3-80.8z" fill="#FFD7A3" stroke="null"/><path d="m2323 2102 26.1-28.1c-14.7-9.47-12.9-37.7-12.9-44.3h-118c8.5 24.4 64.7 66.4 105 72.4z" fill="#FDC88E" stroke="null"/><path d="m2428 2213c10.9 0 19.7-8.84 19.7-19.7v-39.2c0-29-22.6-59.9-50.1-68.7l-41.2-13.2c-22.1 16.9-53.8 40-79.8 40s-57.6-23.1-79.8-40l-41.2 13.2c-27.6 8.82-50.1 39.7-50.1 68.7v39.2c0 10.9 8.84 19.7 19.7 19.7h303z" fill="#FF6953" stroke="null"/><path d="m2448 2197h-10.2v-13.8h10.6v-10.1h-10.6v-13.8h10.6v-5.54c0-1.51-0.097-3.02-0.217-4.54h-10.4v-13.8h7.74c-1.04-3.42-2.34-6.78-3.88-10.1h-3.85v-7.22c-3.67-6.11-8.14-11.8-13.2-16.7h-10.7v-8.69c-4.91-3.27-10.1-5.9-15.6-7.64l-23.7-7.58h-8.55v-2.74l-8.94-2.86c-0.37 0.283-0.763 0.58-1.14 0.866v4.73h-6.27c-5.53 4.13-11.5 8.4-17.6 12.5v11.4h-13.8v-2.9c-11.6 6.54-23.5 11.5-34.7 13h0.684v13.8h-13.8v-13.8h0.684c-11.1-1.44-23.1-6.44-34.7-13v2.9h-13.8v-11.4c-6.18-4.09-12.1-8.36-17.6-12.5h-6.27v-4.73c-0.375-0.286-0.769-0.583-1.14-0.866l-8.94 2.86v2.74h-8.55l-23.7 7.58c-5.44 1.74-10.7 4.37-15.6 7.64v8.69h-10.7c-5.08 4.94-9.56 10.6-13.2 16.7v7.22h-3.85c-1.55 3.29-2.84 6.66-3.88 10.1h7.74v13.8h-10.4c-0.12 1.52-0.217 3.03-0.217 4.54v5.54h10.6v13.8h-10.6v10.1h10.6v13.8h-10.2c0.822 3.92 2.81 7.39 5.58 10.1h4.64v3.28c2.73 1.43 5.8 2.32 9.1 2.32h0.978v-5.6h13.8v5.6h10.1v-5.6h13.8v5.6h10.1v-5.6h13.8v5.6h10.1v-5.6h13.8v5.6h10.1v-5.6h13.8v5.6h10.1v-5.6h13.8v5.6h10.1v-5.6h13.8v5.6h10.1v-5.6h13.8v5.6h10.1v-5.6h13.8v5.6h10.1v-5.6h13.8v5.6h10.1v-5.6h13.8v5.6h10.1v-5.6h13.8v5.6h10.1v-5.6h13.8v5.6h0.978c3.3 0 6.36-0.887 9.1-2.32v-3.28h4.64c2.76-2.69 4.75-6.16 5.57-10.1zm-307 0h-13.8v-13.8h13.8v13.8zm0-23.9h-13.8v-13.8h13.8v13.8zm0-23.9h-13.8v-13.8h13.8v13.8zm0-23.9h-13.8v-13.8h13.8v13.8zm23.9 71.7h-13.8v-13.8h13.8v13.8zm0-23.9h-13.8v-13.8h13.8v13.8zm0-23.9h-13.8v-13.8h13.8v13.8zm0-23.9h-13.8v-13.8h13.8v13.8zm0-23.9h-13.8v-13.8h13.8v13.8zm23.9 95.6h-13.8v-13.8h13.8v13.8zm0-23.9h-13.8v-13.8h13.8v13.8zm0-23.9h-13.8v-13.8h13.8v13.8zm0-23.9h-13.8v-13.8h13.8v13.8zm0-23.9h-13.8v-13.8h13.8v13.8zm23.9 95.6h-13.8v-13.8h13.8v13.8zm0-23.9h-13.8v-13.8h13.8v13.8zm0-23.9h-13.8v-13.8h13.8v13.8zm0-23.9h-13.8v-13.8h13.8v13.8zm0-23.9h-13.8v-13.8h13.8v13.8zm23.9 95.6h-13.8v-13.8h13.8v13.8zm0-23.9h-13.8v-13.8h13.8v13.8zm0-23.9h-13.8v-13.8h13.8v13.8zm0-23.9h-13.8v-13.8h13.8v13.8zm23.9 71.7h-13.8v-13.8h13.8v13.8zm0-23.9h-13.8v-13.8h13.8v13.8zm0-23.9h-13.8v-13.8h13.8v13.8zm0-23.9h-13.8v-13.8h13.8v13.8zm23.9 71.7h-13.8v-13.8h13.8v13.8zm0-23.9h-13.8v-13.8h13.8v13.8zm0-23.9h-13.8v-13.8h13.8v13.8zm23.9 47.8h-13.8v-13.8h13.8v13.8zm0-23.9h-13.8v-13.8h13.8v13.8zm0-23.9h-13.8v-13.8h13.8v13.8zm0-23.9h-13.8v-13.8h13.8v13.8zm23.9 71.7h-13.8v-13.8h13.8v13.8zm0-23.9h-13.8v-13.8h13.8v13.8zm0-23.9h-13.8v-13.8h13.8v13.8zm0-23.9h-13.8v-13.8h13.8v13.8zm23.9 71.7h-13.8v-13.8h13.8v13.8zm0-23.9h-13.8v-13.8h13.8v13.8zm0-23.9h-13.8v-13.8h13.8v13.8zm0-23.9h-13.8v-13.8h13.8v13.8zm0-23.9h-13.8v-13.8h13.8v13.8zm23.9 95.6h-13.8v-13.8h13.8v13.8zm0-23.9h-13.8v-13.8h13.8v13.8zm0-23.9h-13.8v-13.8h13.8v13.8zm0-23.9h-13.8v-13.8h13.8v13.8zm0-23.9h-13.8v-13.8h13.8v13.8zm23.9 95.6h-13.8v-13.8h13.8v13.8zm0-23.9h-13.8v-13.8h13.8v13.8zm0-23.9h-13.8v-13.8h13.8v13.8zm0-23.9h-13.8v-13.8h13.8v13.8zm0-23.9h-13.8v-13.8h13.8v13.8zm23.9 95.6h-13.8v-13.8h13.8v13.8zm0-23.9h-13.8v-13.8h13.8v13.8zm0-23.9h-13.8v-13.8h13.8v13.8zm0-23.9h-13.8v-13.8h13.8v13.8z" fill="#E95F43" stroke="null"/><path d="m2277 2112-27.5 27.5c-2.86 2.86-7.6 2.49-9.98-0.783l-48.1-66.2 15.3-15.3c2.48-2.48 6.45-2.58 9.06-0.238l61.2 55z" fill="#FFBE1E" stroke="null"/><path d="m2277 2112 27.5 27.5c2.86 2.86 7.6 2.49 9.98-0.783l48.1-66.2-15.3-15.3c-2.48-2.48-6.45-2.58-9.06-0.238l-61.2 55z" fill="#FFBE1E" stroke="null"/><path d="m2189 1910c-1.54 9.31-1.62 20.5-1.62 33.8 0 52.7 29.5 118 89.6 118s89.6-65.8 89.6-118c0-13.3-0.084-24.5-1.62-33.8-24.1-8.13-54.7-13-88-13s-63.9 4.87-88 13z" fill="#FFE1B2" stroke="null"/><path d="m2367 1921c-5.27-6.76-10.9-13.7-10.9-13.7v6.58c1.63 59.6-19.6 85.5-19.6 85.5l-27 3.03c-21.1 2.36-42.4 2.36-63.5 0l-27-3.03s-21.2-25.9-19.6-85.5v-6.58s-5.65 6.94-10.9 13.7c-1.37 5.87-3.57 12.2-3.57 19.3 0 52.7 31.5 129 92.8 129s91.4-76 91.4-129c1e-3 -7-0.769-13.4-2.14-19.3zm-109 94h39.2c5.37 0 9.98 3.27 12 7.94-7.23 3.17-18.3 5.22-30.8 5.22-13.2 0-24.8-2.28-32-5.76 2.13-4.36 6.54-7.4 11.7-7.4z" fill="#A7795E" stroke="null"/><path d="m2280 2009c0-8.69-8.43-10.7-14-8.55-10.2 3.86-21.4 14.6-30.8 7.97 0 0 3.29 13.9 8.84 13.9 11.1-1e-3 36 1.45 36-13.3z" fill="#543D38" stroke="null"/><path d="m2278 2009c0-8.69 8.43-10.7 14-8.55 10.2 3.86 21.4 14.6 30.8 7.97 0 0-3.29 13.9-8.84 13.9-11.1-1e-3 -36 1.45-36-13.3z" fill="#543D38" stroke="null"/><path d="m2389 2081-26.3-8.42v81c0 3.01-2 5.68-4.92 6.4-22.3 5.49-50.2 8.77-80.6 8.77s-58.3-3.28-80.6-8.77c-2.92-0.72-4.92-3.38-4.92-6.4v-81l-26.3 8.42v131h224v-131h-1e-3z" fill="#C55F54" stroke="null"/><path d="m2185 1955 17.8 3.28s6.94-38.9 10.7-55.1c-9.7 1.94-18.9 4.27-27.2 7-1.58 9.31-1.67 20.5-1.67 33.8 1e-3 3.61 0.157 7.29 0.442 11z" fill="#543D38" stroke="null"/><path d="m2369 1955-17.8 3.28s-6.94-38.9-10.7-55.1c9.7 1.94 18.9 4.27 27.2 7 1.58 9.31 1.67 20.5 1.67 33.8 0 3.61-0.157 7.29-0.442 11z" fill="#543D38" stroke="null"/><path d="m2316 1920 15.8-18c-16.8-2.96-35.1-4.65-54.4-4.65-11.8 0-23.2 0.637-34.1 1.78 10.3-0.706 50.9 4.76 72.7 20.8z" fill="#543D38" stroke="null"/></g><path d="m597 446-32.6-23.3c-1.41-1.01-3.1-1.55-4.84-1.55l-8.92-0.00217c-2.21 0-4.33 0.883-5.89 2.44-7.95 7.96-18.5 12.3-29.8 12.3s-21.8-4.39-29.8-12.3c-1.56-1.56-3.68-2.44-5.89-2.44l-8.92 0.00217c-1.73 0-3.43 0.542-4.84 1.55l-32.6 23.3c-20.9 14.9-33.4 39.2-33.4 64.8v7.88c0 4.6 3.73 8.33 8.33 8.33h214c4.6 0 8.33-3.73 8.33-8.33v-7.88c0-25.7-12.5-49.9-33.4-64.8z" fill="#c55f54"/><path d="m622 527c4.6 0 8.33-3.73 8.33-8.33v-7.88c0-25.7-12.5-49.9-33.4-64.8l-32.6-23.3c-1.41-1.01-3.11-1.55-4.84-1.55l-8.92-0.00217c-2.21 0-4.33 0.883-5.89 2.44-7.95 7.96-18.5 12.3-29.8 12.3v91.1h107z" fill="#c55f54"/><path d="m558 483c-4.6 0-8.33-3.73-8.33-8.33v-53.5c0-4.6 3.73-8.33 8.33-8.33 4.6 0 8.33 3.73 8.33 8.33v53.5c0 4.6-3.73 8.33-8.33 8.33z" fill="#ecb402"/><path d="m471 483c-4.6 0-8.33-3.73-8.33-8.33v-53.5c0-4.6 3.73-8.33 8.33-8.33s8.33 3.73 8.33 8.33v53.5c0 4.6-3.73 8.33-8.33 8.33z" fill="#ffe100"/><path d="m595 527h-159v-26.2c0-14.5 11.7-26.2 26.2-26.2h107c14.5 0 26.2 11.7 26.2 26.2v26.2z" fill="#ecb402"/><path d="m515 475v52.3h79.7v-26.2c0-14.5-11.7-26.2-26.2-26.2h-53.5z" fill="#bb8901"/><path d="m587 441c-27.3 17.8-62.6 10.6-92.3-2.79-13.2 14.5-31.8 20.7-51.3 18.6v-14.6c0-13.8 8.08-25.8 19.8-31.4-3.74-7.37-5.78-15.6-5.78-24.2v-80.9c0-31.9 25.9-57.8 57.8-57.8s57.8 25.9 57.8 57.8c0.00466 110-0.0326 109 0.014 109 8.17 6.11 13.6 15.7 13.9 26.6z" fill="#ff6953"/><path d="m528 289c-7.7-0.68-15.7-0.724-23.9 0-19.4 1.7-34.2 17.9-34.2 37.3v15.4c0 25.5 20.7 46.1 46.1 46.1s46.1-20.7 46.1-46.1v-15.4c-4.6e-4 -19.3-14.8-35.6-34.2-37.3z" fill="#ffdfba"/><path d="m495 438c-2.47 2.71-5.66 5.72-9.7 8.54-0.924-0.434-4.1-1.95-4.49-2.15-11.7-5.67-20.9-15.4-26-27.7 2.57-2.41 5.51-4.43 8.73-5.97 8.75 17.3 22.3 23.2 31.5 27.3z" fill="#e85e43"/><path d="m531 262c-27.6-0.334-54.1 19.4-58.2 50-0.0643 0.479-0.187 0.95-0.364 1.4-3.09 7.92-2.49 13.2-2.49 28.8 0 4.75 0.716 9.33 2.05 13.6 0.179 0.577 0.278 1.17 0.278 1.78 0 0.275-4.7e-4 43.1 9.3e-4 43.3 0.0424 6.77-9.45 8.29-11.5 1.84-1.63-5.16-2.49-10.6-2.49-16.2v-80.2c0-37.2 36.2-67.6 74.5-56 6.48 1.96 4.98 11.6-1.78 11.5z" fill="#e95f43"/><path d="m504 380c-2.41 3.59-6.68 4.38-9.92 2.64-14.7-7.87-24.6-23.5-24.6-41.3-0.00466-15.9-0.168-17.3 0.597-21.5 2.34-13 11.4-23.7 23.6-28.3-4.89 5.18-8.31 11.7-9.62 19-0.769 4.25-0.597 5.62-0.597 22.1 0 15.6 7.54 28.8 18.7 37.1 3.28 2.43 4.14 6.97 1.87 10.4z" fill="#ffebd2"/><path d="m539 235h-47.7c-21.6 0-39.2 17.6-39.2 39.2v7.43c0 4.1 3.32 7.43 7.43 7.43h111c4.1 0 7.43-3.32 7.43-7.43v-7.43c0-21.6-17.6-39.2-39.2-39.2z" fill="#ffe100"/><path d="m578 274v7.43c0 4.1-3.33 7.43-7.43 7.43h-55.7v-54.1h23.9c21.6 0 39.2 17.6 39.2 39.2z" fill="#ecb402"/><path d="m619 281h-207c-4.1 0-7.43 3.33-7.43 7.43 0 13.5 10.9 24.4 24.4 24.4h173c13.5 0 24.4-10.9 24.4-24.4 0-4.1-3.33-7.43-7.43-7.43z" fill="#ecb402"/><path d="m626 289c0 13.5-10.9 24.4-24.4 24.4h-86.5v-31.8h103c4.1 0 7.43 3.33 7.43 7.43z" fill="#bb8901"/></g></g></svg>
