<svg width="152" height="182" viewBox="0 0 152 182" fill="none" xmlns="http://www.w3.org/2000/svg">
<path d="M145.856 43.7908C145.856 41.7697 144.172 40.4222 142.488 40.4222H109.477V10.1055L100.718 0H50.8645L42.1063 10.1055V40.4222H9.76867C7.74755 40.4222 6.40017 42.1065 6.40017 43.7908L0 178.194C0 180.215 1.68425 181.563 3.36849 181.563H148.551C150.572 181.563 151.92 179.879 151.92 178.194L145.856 43.7908ZM50.8645 10.1055H100.382V40.4222H50.8645V10.1055Z" fill="#CBA677"/>
<path d="M76.1709 58.5458C98.8086 58.3539 122.559 69.9409 132.475 91.0199C140.579 107.562 136.482 128.453 123.748 141.507C120.118 144.25 117.218 148.047 118.056 152.806C117.863 156.888 118.462 161.084 117.718 165.089C112.882 169.291 106.612 162.01 101.301 160.913C95.8612 157.183 89.7486 160.206 83.904 160.694C60.087 163.507 33.7578 153.268 21.502 131.936C12.2181 116.213 14.251 95.0942 25.9615 81.1548C37.9267 66.1861 57.2808 58.4868 76.1709 58.5458Z" stroke="#035000" stroke-width="7"/>
<ellipse cx="50.5" cy="107.5" rx="19.5" ry="18.5" fill="#035000"/>
<ellipse cx="102" cy="107.5" rx="20" ry="18.5" fill="#035000"/>
<path d="M112.702 89.8436C116.671 92.2165 118.648 92.1063 122.816 92.3721C124.54 92.482 125 93.4715 125 94.1311C125 95.3404 123.318 96 122.471 96C120.977 96 115.602 95.923 110.403 93.0317C105.46 90.2833 102.472 84.7865 101.322 82.258C100.943 81.4237 100.633 79.8394 102.012 79.1798C103.621 78.4102 104.771 80.3157 105.115 81.0487C106.15 83.2475 107.184 86.5455 112.702 89.8436Z" fill="#035000"/>
<circle cx="54" cy="112" r="4" fill="white"/>
<ellipse cx="107.5" cy="112" rx="3.5" ry="4" fill="white"/>
<path fill-rule="evenodd" clip-rule="evenodd" d="M34.6246 95.8201C36.583 93.2639 39.1497 91.1985 42.1086 89.8403C42.211 89.8364 42.314 89.8345 42.4174 89.8345C46.8705 89.8345 50.4804 93.4444 50.4804 97.8974C50.4804 102.35 46.8705 105.96 42.4174 105.96C37.9644 105.96 34.3545 102.35 34.3545 97.8974C34.3545 97.1792 34.4484 96.4828 34.6246 95.8201Z" fill="white"/>
<path fill-rule="evenodd" clip-rule="evenodd" d="M86.1373 95.8201C88.0957 93.2639 90.6624 91.1985 93.6213 89.8403C93.7237 89.8364 93.8267 89.8345 93.9301 89.8345C98.3832 89.8345 101.993 93.4444 101.993 97.8974C101.993 102.35 98.3832 105.96 93.9301 105.96C89.4771 105.96 85.8672 102.35 85.8672 97.8974C85.8672 97.1792 85.9611 96.4828 86.1373 95.8201Z" fill="white"/>
<rect x="71" y="138" width="10" height="3" rx="1.5" fill="#035000"/>
<path d="M39.2984 89.8436C35.3285 92.2165 33.3522 92.1063 29.1838 92.3721C27.4598 92.482 27 93.4715 27 94.1311C27 95.3404 28.6817 96 29.5287 96C31.0229 96 36.3977 95.923 41.5972 93.0317C46.5397 90.2833 49.5281 84.7865 50.6775 82.258C51.0568 81.4237 51.3669 79.8394 49.9878 79.1798C48.3786 78.4102 47.2293 80.3157 46.8845 81.0487C45.8501 83.2475 44.8161 86.5455 39.2984 89.8436Z" fill="#035000"/>
</svg>
