<svg xmlns="http://www.w3.org/2000/svg" width="512" height="256">
    <g transform="matrix(0.5526510085897949,0,0,0.6691182836267091,-8461.418344538222,-7550.738363829515)">
        <g transform="translate(0,11580.072265625) scale(0.11999999731779099) ">
            <path fill="#808080" d="m135280.712185,-606.737384c0,-602 -587,-1028 -1351,-1028c-959,0 -2144,1013 -2438,1454c-59,88 -29,206 117,88c588,-470 1052,-1087 1909,-1087c338,0 675,176 675,514c0,690 -773,710 -1043,279c-73,-117 -220,-73 -147,88c145,318 565,675 1116,675c441,0 1160,-367 1160,-984l2,1z" />
            <path fill="#808080" d="m127611.712185,-930.737374c81,596.99999 720,939.99999 1477,836.99999c951,-129 1827,-1189 2059,-1665c46,-95 1,-208 -128,-72c-519,544 -647,1057 -1496,1172c-335,45 -653,-81 -650,-419c4,-523 462,-709 673,-505c100,96 228,43 134,-107c-186,-296 -533,-476 -1079,-402c-437,59 -1071,549 -988,1160l-2,1l0,0.00001z" />
            <path fill="#808080" d="m130674.712185,-664.737374c1391,-1391 2265,-1708 3172,-1442c202,59 174,194 -35,168c-332,-40 -1327,100 -2144,1200c-969,1303.99999 -2719,1331.99999 -3348,1040.99999c-191,-88 -144,-217 59,-162c323,88 1326,162 2296,-807l0,2l0,0.00001z" />
        </g>
    </g>
</svg>