<svg width="512" height="512" enable-background="new 0 0 723.86 406.83" version="1.1" viewBox="0 0 512 512"
	xml:space="preserve" xmlns="http://www.w3.org/2000/svg">
	<defs>
		<linearGradient id="linearGradient12765" x1="512.75" x2="-1.1051" y1="366.88" y2="367.99"
			gradientUnits="userSpaceOnUse">
			<stop style="stop-color:#b6e337" offset="0" />
			<stop style="stop-color:#6cdc2d" offset="1" />
		</linearGradient>
		<style>

		</style>
	</defs>
	<defs>
		<style>
			#khorshid {
				animation: 5s ease-in-out infinite alternate khorshidAnim;
			}
			@keyframes khorshidAnim {
				0% {
					transform: translate(-150px, -20px);

				}

				to {
					transform: translate(512px, 40px);
				}
			}
		</style>
	</defs>
	<rect x="-1.1051" y="240.9" width="514.96" height="272.95"
		style="fill:url(#linearGradient12765);paint-order:markers fill stroke;stroke-linecap:round;stroke-linejoin:round;stroke-width:.3" />
	<rect x="-1.1051" y="-.65091" width="514.96" height="241.56">
		<animate attributeName="fill" values="#92eaff;#1d1f2f;#92eaff" dur="7s" repeatCount="indefinite" />
	</rect>
	<path
		d="m236.1 241.03-38.82 0.01-169.71 0.03-28.671-0.16977c40.819-46.2 63.706-73.658 93.671-105.9l47.31 48.7c2.26 2.35 6.02 2.4 8.32 0.09 3.84-3.84 7.32-7.34 7.36-7.39l9.48-9.48z"
		fill="#7e7f92" />
	<path
		d="m197.28 241.04-169.71 0.03 65.01-65.19 47.3 48.72c2.26 2.36 6.02 2.4 8.32 0.09 6.3011-7.128 11.593-13.641 17.16-21.03 9.0158 11.079 22.089 27.02 31.92 37.38z"
		fill="#6e6f83" />
	<g transform="translate(-15.214 3.9139)">
		<path
			d="m383.32 478.13c-20.237 11.636-42.219 20.58-65.455 26.342-9.154 2.27-18.502-1.743-28.015-0.491-1.549 0.206-3.102 6.187-4.66 6.366-46.766-0.59356-100.95 0.0115-138.87-0.29024-7.2901-8.7652-28.964-64.063-26.99-81.057 7.5-56 122.5-62.83 122.5-91.5 0-15.83-27.38-21.25-55.5-41.25-12.14-8.63-19.11-20.44-13.57-34.21 4.63-11.52 27.95-20.71 61.52-26.88h42.44c-15.67 3.92-57.19 15.52-57.08 27.7 0.21 22.15 116.17 38.81 114.68 83.64-1 30-53.41 51.24-49.2 74.69 3.79 21.16 57.57 43.18 98.2 56.94z"
			fill="#9596a5" />
		<path
			d="m256 374.67v-65.8c14.17 8.07 26.92 15.9 29.7 20.08 6.05 9.1 5.15 15.54-0.23 22.04-7.06 8.52-18.53 16.34-29.47 23.68z"
			fill="#7e7f92" />
		<path
			d="m289.85 509.77c-11.883 1.3012-23.424 0.32977-33.709 0.32977l-0.14076-31c14.17 8.07 26.92 15.9 29.7 20.08 2.63 3.96 3.95 7.41 4.15 10.59z"
			fill="#7e7f92" />
		<path
			d="m465.29 509.78c-59.933 0.79729-109.51-0.50383-162.17 0.51741 0.83972-14.464-42.987-21.921-47.125-24.097v-111.53c10.94-7.34 22.41-15.16 29.47-23.68 5.38-6.5 6.28-12.94 0.23-22.04-2.78-4.18-15.53-12.01-29.7-20.08v-21.8c33.94 14.26 79.26 31.3 78.32 59.43-1 30-53.41 51.24-49.2 74.69 3.79 21.16 139.54 74.829 180.17 88.589z"
			fill="#6e6f83" />
		<g fill="#7e7f92">
			<path
				d="m219.64 262.86c0.07 8.25 16.22 15.74 36.36 24.21v21.8c-14.5-8.26-30.48-16.78-38.82-21.93-16.5-10.18-19.21-15.33-20.24-19.97s0.52-8.89 5.87-12.81c8.83-6.46 33.85-14.77 47.48-19h26.43c-5 1.25-12.64 3.28-20.72 5.88-17.22 5.51-36.43 13.53-36.36 21.82z" />
			<path
				d="m242.82 383.72c4.05-2.94 8.57-5.95 13.18-9.05v111.53c-15.68-8.19-32.96-19.11-49.83-34.42-4.87-4.41-11.83-13.98-8.97-26.3 2.77-11.92 31.96-31.83 45.62-41.76z" />
		</g>
	</g>
	<path
		d="m312.41 514.08c-13.028 0.30159-29.861 0.18719-42.258 0.15102-9.88-4.63-19.82-9.54-29.37-14.64-34.44-18.38-63.77-39.16-66.6-57.68-2.86-18.71 8.97-28.27 38.64-49.07 10.37-7.27 19.85-13.51 27.96-19.07 17.55-12.07 28.73-21 28.78-30.51 0.06-9.41-12.75-18.29-28.78-27.29-20.38-11.45-45.98-23.1-56.96-36.27-5.21-6.24-5.66-13.03-3.56-16.6 5.88-10.03 37.63-19.8 52.99-24.03h3.71c-16.96 4.94-51.64 16.3-53.17 27.01-0.2 2.87 0.11 5.55 2.49 8.7 9.13 12.14 33.16 23.26 54.5 34.65 19.95 10.64 37.57 21.52 38.52 33.67 0.94 12.13-18.44 27.4-38.52 41.49-8.85 6.22-17.84 12.21-25.28 17.6-22.1 16.03-26.84 24.54-25.91 34.37 0.93 9.84 22.6 28.75 47.27 41.92 1.18 0.63 2.49 1.31 3.92 2.04 13.49 6.81 46.848 23.169 71.628 33.559z"
		fill="#fdd500" />
	<g transform="translate(-58.55 -32.352)">
		<path
			d="m160.39 141.75c0-0.063 5e-3 -0.124 5e-3 -0.187 0-11.447-9.28-20.727-20.727-20.727-2.719 0-5.314 0.529-7.693 1.481-4.596-8.234-13.391-13.805-23.49-13.805-13.116 0-24.032 9.393-26.405 21.817-0.707-0.101-1.43-0.157-2.165-0.157-7.131 0-13.105 4.936-14.702 11.577h95.177z"
			fill="#ffffff" />
		<path
			d="m140.17 141.75c0-0.036 3e-3 -0.071 3e-3 -0.107 0-6.582-5.336-11.918-11.918-11.918-1.564 0-3.056 0.304-4.424 0.852-2.643-4.735-7.7-7.938-13.507-7.938-7.542 0-13.819 5.401-15.183 12.545-0.407-0.058-0.822-0.09-1.245-0.09-4.101 0-7.536 2.839-8.454 6.657h54.728z"
			fill="#dff7fd" />
	</g>
	<g transform="translate(-58.55 -14.352)">
		<path
			d="m311.43 68.581c0-0.078 6e-3 -0.154 6e-3 -0.232 0-14.204-11.514-25.718-25.718-25.718-3.374 0-6.594 0.657-9.546 1.838-5.703-10.217-16.615-17.13-29.147-17.13-16.274 0-29.819 11.655-32.763 27.071-0.878-0.126-1.774-0.194-2.686-0.194-8.848 0-16.261 6.125-18.243 14.365z"
			fill="#ffffff" />
		<path
			d="m286.34 68.581c0-0.045 3e-3 -0.089 3e-3 -0.133 0-8.168-6.621-14.788-14.788-14.788-1.94 0-3.792 0.377-5.489 1.057-3.279-5.875-9.554-9.85-16.76-9.85-9.358 0-17.147 6.702-18.84 15.567-0.505-0.072-1.02-0.112-1.544-0.112-5.088 0-9.351 3.522-10.49 8.26h67.908z"
			fill="#dff7fd" />
	</g>
	<g transform="translate(-90.55 -8.3518)">
		<path
			d="m317.86 153.45c-1e-3 -0.078-6e-3 -0.154-6e-3 -0.232 0-14.204 11.515-25.718 25.718-25.718 3.374 0 6.594 0.656 9.546 1.838 5.703-10.217 16.615-17.13 29.147-17.13 16.274 0 29.82 11.655 32.763 27.071 0.878-0.126 1.774-0.194 2.686-0.194 8.848 0 16.262 6.125 18.243 14.365z"
			fill="#ffffff" />
		<path
			d="m342.95 153.45c0-0.045-3e-3 -0.089-3e-3 -0.133 0-8.167 6.621-14.788 14.789-14.788 1.94 0 3.792 0.378 5.489 1.057 3.279-5.875 9.554-9.85 16.76-9.85 9.358 0 17.147 6.702 18.84 15.567 0.505-0.072 1.02-0.112 1.545-0.112 5.088 0 9.351 3.522 10.49 8.26h-67.91z"
			fill="#dff7fd" />
	</g>
	<g transform="matrix(.81816 0 0 .81816 -15.3 68.199)">
		<path d="m158.29 226.81h8.234v49.734h-8.234z" fill="#ec771b" />
		<path d="m162.41 226.81h4.117v49.734h-4.117z" fill="#c55732" />
		<path d="m158.29 226.81h4.117v34.216h-4.117z" fill="#c55732" />
		<path d="m162.41 226.81h4.117v34.216h-4.117z" fill="#a44e3e" />
		<path
			d="m193.29 239.35c0.084 8.45-7.02 15.362-15.467 15.362h-30.836c-8.45 0-15.552-6.912-15.471-15.362 0.044-4.184 1.775-7.964 4.55-10.688 1.315-1.295 1.987-3.113 1.873-4.959-0.02-0.318-0.03-0.642-0.03-0.967 0-5.141 2.549-9.687 6.456-12.439 1.754-1.237 2.833-3.221 2.833-5.368v-0.25c0-8.399 6.807-15.21 15.207-15.21 0.088 0 0.172 3e-3 0.26 3e-3 4.171 0.068 7.906 1.849 10.603 4.651 2.694 2.805 4.347 6.635 4.347 10.806 0 2.146 1.078 4.13 2.832 5.368 3.904 2.751 6.456 7.298 6.456 12.439 0 0.324-0.01 0.649-0.03 0.967-0.118 1.846 0.554 3.664 1.872 4.959 2.771 2.725 4.505 6.504 4.545 10.688z"
			fill="#43af3e" />
		<path
			d="m193.29 239.35c0.084 8.45-7.02 15.362-15.467 15.362h-22.717c-3.999 0-7.362-6.912-7.321-15.362 0.02-4.184 0.838-7.964 2.153-10.688 0.622-1.295 0.94-3.113 0.886-4.959-0.01-0.318-0.014-0.642-0.014-0.967 0-5.141 1.207-9.687 3.056-12.439 0.828-1.237 1.339-3.221 1.339-5.368v-0.25c0-8.399 3.225-15.21 7.2-15.21 0.041 0 0.081 3e-3 0.122 3e-3h0.139c4.171 0.068 7.906 1.849 10.603 4.651 2.694 2.805 4.347 6.635 4.347 10.806 0 2.146 1.078 4.13 2.833 5.368 3.904 2.751 6.456 7.298 6.456 12.439 0 0.324-0.01 0.649-0.03 0.967-0.118 1.846 0.554 3.664 1.872 4.959 2.769 2.725 4.503 6.504 4.543 10.688z"
			fill="#00a23e" />
		<path
			d="m193.29 239.35c0.084 8.45-7.02 15.362-15.467 15.362h-15.42v-65.242c0.088 0 0.172 3e-3 0.26 3e-3 4.171 0.068 7.906 1.849 10.603 4.651 2.694 2.805 4.347 6.635 4.347 10.806 0 2.146 1.078 4.13 2.832 5.368 3.904 2.751 6.456 7.298 6.456 12.439 0 0.324-0.01 0.649-0.03 0.967-0.118 1.846 0.554 3.664 1.872 4.959 2.773 2.724 4.507 6.503 4.547 10.687z"
			fill="#008839" />
	</g>
	<g transform="matrix(.46342 0 0 .46342 -46.722 188.5)">
		<path
			d="m338.23 251.6v109.12h-164.47v-109.12l9.393-16.393 12.015-20.964 6.191-10.819 17.839-10.164 36.798-20.964 36.798 20.964 17.839 10.164 6.191 10.819 12.016 20.964z"
			fill="#fe3345" />
		<g fill="#de1263">
			<path d="m338.24 251.6-27.61-48.171-54.633-31.135v188.42h82.243z" />
			<path d="m316.82 214.24h-121.66l6.191-10.819 17.839-10.164h73.596l17.839 10.164z" />
			<path d="m338.23 251.6v4.571h-164.47v-4.571l9.393-16.393h145.69z" />
			<path d="m173.75 277.13h164.47v20.983h-164.47z" />
			<path d="m173.75 319.08h164.47v20.964h-164.47z" />
		</g>
		<g fill="#ce0557">
			<path d="m316.82 214.24h-60.828v-20.983h36.798l17.839 10.164z" />
			<path d="m338.23 251.6v4.571h-82.236v-20.964h72.844z" />
			<path d="m255.99 277.13h82.236v20.983h-82.236z" />
			<path d="m255.99 319.08h82.236v20.964h-82.236z" />
		</g>
		<path
			d="m281.27 312.45v48.273h-50.529v-48.273c0-7.02 5.689-12.709 12.69-12.709h25.149c7.001 0 12.69 5.689 12.69 12.709z"
			fill="#384c81" />
		<path d="m281.27 312.45v48.273h-25.265v-60.982h12.575c7.001 0 12.69 5.689 12.69 12.709z" fill="#1a3863" />
		<path d="m230.74 211.75h50.529v35.004h-50.529z" fill="#384c81" />
		<path d="m256 211.75h25.264v35.004h-25.264z" fill="#1a3863" />
		<path d="m224.91 206.77h11.656v44.973h-11.656z" fill="#ffffff" />
		<path d="m275.44 206.77h11.656v44.973h-11.656z" fill="#dff7fd" />
		<path
			d="m360.46 251.6h-22.23l-5.56-9.7-22.02-38.48-54.64-31.13-0.02 0.02-54.62 31.11-22.04 38.48-5.56 9.7h-22.23l11.05-19.29 22.04-38.48 2.62-4.57 4.58-2.6 54.63-31.13 9.53-5.42 0.02-0.02 9.55 5.44 54.63 31.13 4.57 2.6 2.63 4.57 22.02 38.48z"
			fill="#384c81" />
		<path d="m158.89 340.04h71.849v20.669h-71.849z" fill="#a44e3e" />
		<path d="m281.27 340.04h71.849v20.669h-71.849z" fill="#913d31" />
		<g fill="#384c81">
			<path
				d="m222.23 301.59v18.855h-38.088v-18.855c0-1.022 0.828-1.85 1.85-1.85h34.388c1.022 1e-3 1.85 0.829 1.85 1.85z" />
			<path
				d="m327.86 301.59v18.855h-38.088v-18.855c0-1.022 0.828-1.85 1.85-1.85h34.388c1.022 1e-3 1.85 0.829 1.85 1.85z" />
		</g>
	</g>
	<g transform="matrix(.34768 0 0 .34768 303.71 62.738)">

		<path
			d="m351.5 276c-31.301 0-118.94 62.846-177.39 71.899 40.54 49.298 97.885 80.101 161.51 80.101 51.83 0 212.18 85.27 266.25 86.487-62.1-81.973-135.11-233.51-250.38-238.49z"
			style="fill:#f9be58" />


		<path
			d="m604.72 514.43c-34.823-15.561-126.12-241.91-253.22-238.43-1.1036 0.0303-2.432 0.248-3.672 0.399-13.774 3.559-25.449 25.381-12.199 50.252 12.743 23.918 34.753 61.204 0 101.3l0.032 0.044c23.02-4e-3 109.54 83.698 139.02 86.841 70.74 0.35431 73.02-0.61832 130.03-0.41036z"
			style="fill:#ffd267" />

	</g>
	<g transform="matrix(.34768 0 0 .34768 303.71 62.738)">

		<path
			d="m126.22 292c-76.404 43.49-281.16 180.15-278.79 220.39 90.371 0.46353 90.308 0.50894 161.01 0.31306 0 0 218.53-100.32 256.9-150.78-31.736-13.997-105.5-69.925-139.11-69.925z"
			style="fill:#f9be58" />


		<path
			d="m265.33 361.92c-31.737-13.996-105.51-69.924-139.12-69.924-1.043 0-2.297 0.248-3.469 0.399-13.01 3.559-24.038 25.381-11.523 50.252 41.01 97.743-21.834 116.06-103.19 171.07 131.9 3.7151 209.93-73.191 257.3-151.79z"
			style="fill:#ffd267" />

	</g>
	<g transform="matrix(.34768 0 0 .34768 303.71 62.738)">
		<path
			d="m274.27 360c-36.026 0-174.43 113.61-230.66 152.47 138.82 0.18457 139.15 0.60983 212.39 0.60983 74.219 0 138.28-5.2673 211.1-0.19051-38.673-13.996-151.87-152.89-192.83-152.89z"
			style="fill:#ecab4e" />
	</g>
	<g transform="matrix(.34768 0 0 .34768 303.71 62.738)">
		<path
			d="m469.09 513.55c-28.655-21.036-153.87-153.55-194.82-153.55-1.271 0-2.799 0.248-4.227 0.399-15.854 3.559-29.292 25.381-14.041 50.252 14.667 23.918 40 62.362 0 102.46 54.954-3e-3 55.83-0.0695 213.09 0.43447z"
			style="fill:#ffc353" />
	</g>
	<g transform="matrix(.12246 0 0 .12246 447.16 223.55)">
		<path
			d="m152.42 7.307c-32.499-14.65-70.73-6.817-94.848 19.435-4.164 4.165-4.164 10.917 0 15.083l42.667 42.667c4.165 4.164 10.917 4.164 15.083 0l3.136-3.221v16.917c-1e-3 3.75 1.967 7.225 5.184 9.152l46.443 27.861c0.671 0.414 1.387 0.75 2.133 1.003 21.047 6.594 40.241 18.062 56.021 33.472 1.994 2.023 4.712 3.167 7.552 3.179 1.399 3e-3 2.784-0.273 4.075-0.811 3.989-1.649 6.591-5.539 6.592-9.856 0-66.092-40.534-132.67-94.038-154.88z"
			style="fill:#388e3c" />
		<path
			d="m414.01 26.741c-24.125-26.23-62.353-34.031-94.827-19.349-53.525 22.123-94.059 88.704-94.059 154.8 1e-3 4.317 2.603 8.207 6.592 9.856 1.291 0.538 2.676 0.813 4.075 0.811 2.831 5e-3 5.548-1.115 7.552-3.115 15.758-15.421 34.928-26.911 55.957-33.536 0.748-0.25 1.464-0.586 2.133-1.003l46.443-27.861c3.217-1.927 5.185-5.402 5.184-9.152v-16.918l3.115 3.115c4.165 4.164 10.917 4.164 15.083 0l42.667-42.667c4.164-4.165 4.164-10.917 0-15.083z"
			style="fill:#4caf50" />
		<path
			d="m267.79 172.06c-0.443-5.873-5.562-10.275-11.435-9.835-5.53 0.477-9.77 5.116-9.749 10.667h-21.611c-0.442-5.874-5.563-10.278-11.438-9.836-4.961 0.374-9.005 4.127-9.746 9.046l-21.333 288c-0.436 5.875 3.973 10.991 9.848 11.427 0.272 0.02 0.545 0.03 0.819 0.029h85.333c5.891 0.016 10.68-4.746 10.696-10.637 1e-3 -0.273-9e-3 -0.546-0.029-0.819z"
			style="fill:#6d4c41" />
		<path
			d="m267.79 407.52h-64c-5.891 0-10.667-4.776-10.667-10.667s4.776-10.667 10.667-10.667h64c5.891 0 10.667 4.776 10.667 10.667s-4.776 10.667-10.667 10.667z"
			style="fill:#795548" />
		<path
			d="m257.12 343.52h-42.667c-5.891 0-10.667-4.776-10.667-10.667s4.776-10.667 10.667-10.667h42.667c5.891 0 10.667 4.776 10.667 10.667s-4.775 10.667-10.667 10.667z"
			style="fill:#795548" />
		<path
			d="m257.12 279.52h-42.667c-5.891 0-10.667-4.776-10.667-10.667s4.776-10.667 10.667-10.667h42.667c5.891 0 10.667 4.776 10.667 10.667s-4.775 10.667-10.667 10.667z"
			style="fill:#795548" />
		<path
			d="m257.12 215.52h-42.667c-5.891 0-10.667-4.776-10.667-10.667s4.776-10.667 10.667-10.667h42.667c5.891 0 10.667 4.776 10.667 10.667s-4.775 10.667-10.667 10.667z"
			style="fill:#795548" />
		<path
			d="m400.06 117.64c-59.628-21.895-126.54-7.448-171.82 37.099-4.17 4.161-4.178 10.914-0.018 15.085 1.458 1.462 3.31 2.469 5.33 2.899l124.1 26.453c4.606 0.988 9.315-1.163 11.584-5.291l4.757-8.661 6.912 13.824c1.5 2.996 4.32 5.113 7.616 5.717l58.667 10.667c0.633 0.118 1.276 0.175 1.92 0.171 5.891 0 10.667-4.776 10.667-10.667 0.652-38.826-23.291-73.829-59.712-87.296z"
			style="fill:#388e3c" />
		<path
			d="m243.34 154.74c-45.264-44.58-112.19-59.031-171.82-37.099-36.393 13.447-60.337 48.397-59.733 87.189 0 5.891 4.776 10.667 10.667 10.667 0.644 5e-3 1.287-0.053 1.92-0.171l58.667-10.667c3.296-0.604 6.116-2.721 7.616-5.717l6.912-13.824 4.757 8.661c2.269 4.128 6.978 6.279 11.584 5.291l124.01-26.453c5.762-1.227 9.438-6.893 8.211-12.654-0.43-2.02-1.437-3.871-2.899-5.33z"
			style="fill:#4caf50" />
	</g>
	<g transform="matrix(.10831 0 0 .10831 232.61 228.2)">
		<path
			d="m152.42 7.307c-32.499-14.65-70.73-6.817-94.848 19.435-4.164 4.165-4.164 10.917 0 15.083l42.667 42.667c4.165 4.164 10.917 4.164 15.083 0l3.136-3.221v16.917c-1e-3 3.75 1.967 7.225 5.184 9.152l46.443 27.861c0.671 0.414 1.387 0.75 2.133 1.003 21.047 6.594 40.241 18.062 56.021 33.472 1.994 2.023 4.712 3.167 7.552 3.179 1.399 3e-3 2.784-0.273 4.075-0.811 3.989-1.649 6.591-5.539 6.592-9.856 0-66.092-40.534-132.67-94.038-154.88z"
			style="fill:#388e3c" />
		<path
			d="m414.01 26.741c-24.125-26.23-62.353-34.031-94.827-19.349-53.525 22.123-94.059 88.704-94.059 154.8 1e-3 4.317 2.603 8.207 6.592 9.856 1.291 0.538 2.676 0.813 4.075 0.811 2.831 5e-3 5.548-1.115 7.552-3.115 15.758-15.421 34.928-26.911 55.957-33.536 0.748-0.25 1.464-0.586 2.133-1.003l46.443-27.861c3.217-1.927 5.185-5.402 5.184-9.152v-16.918l3.115 3.115c4.165 4.164 10.917 4.164 15.083 0l42.667-42.667c4.164-4.165 4.164-10.917 0-15.083z"
			style="fill:#4caf50" />
		<path
			d="m267.79 172.06c-0.443-5.873-5.562-10.275-11.435-9.835-5.53 0.477-9.77 5.116-9.749 10.667h-21.611c-0.442-5.874-5.563-10.278-11.438-9.836-4.961 0.374-9.005 4.127-9.746 9.046l-21.333 288c-0.436 5.875 3.973 10.991 9.848 11.427 0.272 0.02 0.545 0.03 0.819 0.029h85.333c5.891 0.016 10.68-4.746 10.696-10.637 1e-3 -0.273-9e-3 -0.546-0.029-0.819z"
			style="fill:#6d4c41" />
		<path
			d="m267.79 407.52h-64c-5.891 0-10.667-4.776-10.667-10.667s4.776-10.667 10.667-10.667h64c5.891 0 10.667 4.776 10.667 10.667s-4.776 10.667-10.667 10.667z"
			style="fill:#795548" />
		<path
			d="m257.12 343.52h-42.667c-5.891 0-10.667-4.776-10.667-10.667s4.776-10.667 10.667-10.667h42.667c5.891 0 10.667 4.776 10.667 10.667s-4.775 10.667-10.667 10.667z"
			style="fill:#795548" />
		<path
			d="m257.12 279.52h-42.667c-5.891 0-10.667-4.776-10.667-10.667s4.776-10.667 10.667-10.667h42.667c5.891 0 10.667 4.776 10.667 10.667s-4.775 10.667-10.667 10.667z"
			style="fill:#795548" />
		<path
			d="m257.12 215.52h-42.667c-5.891 0-10.667-4.776-10.667-10.667s4.776-10.667 10.667-10.667h42.667c5.891 0 10.667 4.776 10.667 10.667s-4.775 10.667-10.667 10.667z"
			style="fill:#795548" />
		<path
			d="m400.06 117.64c-59.628-21.895-126.54-7.448-171.82 37.099-4.17 4.161-4.178 10.914-0.018 15.085 1.458 1.462 3.31 2.469 5.33 2.899l124.1 26.453c4.606 0.988 9.315-1.163 11.584-5.291l4.757-8.661 6.912 13.824c1.5 2.996 4.32 5.113 7.616 5.717l58.667 10.667c0.633 0.118 1.276 0.175 1.92 0.171 5.891 0 10.667-4.776 10.667-10.667 0.652-38.826-23.291-73.829-59.712-87.296z"
			style="fill:#388e3c" />
		<path
			d="m243.34 154.74c-45.264-44.58-112.19-59.031-171.82-37.099-36.393 13.447-60.337 48.397-59.733 87.189 0 5.891 4.776 10.667 10.667 10.667 0.644 5e-3 1.287-0.053 1.92-0.171l58.667-10.667c3.296-0.604 6.116-2.721 7.616-5.717l6.912-13.824 4.757 8.661c2.269 4.128 6.978 6.279 11.584 5.291l124.01-26.453c5.762-1.227 9.438-6.893 8.211-12.654-0.43-2.02-1.437-3.871-2.899-5.33z"
			style="fill:#4caf50" />
	</g>
	<g transform="matrix(.16449 0 0 .16449 274.37 236.6)">
		<path
			d="m152.42 7.307c-32.499-14.65-70.73-6.817-94.848 19.435-4.164 4.165-4.164 10.917 0 15.083l42.667 42.667c4.165 4.164 10.917 4.164 15.083 0l3.136-3.221v16.917c-1e-3 3.75 1.967 7.225 5.184 9.152l46.443 27.861c0.671 0.414 1.387 0.75 2.133 1.003 21.047 6.594 40.241 18.062 56.021 33.472 1.994 2.023 4.712 3.167 7.552 3.179 1.399 3e-3 2.784-0.273 4.075-0.811 3.989-1.649 6.591-5.539 6.592-9.856 0-66.092-40.534-132.67-94.038-154.88z"
			style="fill:#388e3c" />
		<path
			d="m414.01 26.741c-24.125-26.23-62.353-34.031-94.827-19.349-53.525 22.123-94.059 88.704-94.059 154.8 1e-3 4.317 2.603 8.207 6.592 9.856 1.291 0.538 2.676 0.813 4.075 0.811 2.831 5e-3 5.548-1.115 7.552-3.115 15.758-15.421 34.928-26.911 55.957-33.536 0.748-0.25 1.464-0.586 2.133-1.003l46.443-27.861c3.217-1.927 5.185-5.402 5.184-9.152v-16.918l3.115 3.115c4.165 4.164 10.917 4.164 15.083 0l42.667-42.667c4.164-4.165 4.164-10.917 0-15.083z"
			style="fill:#4caf50" />
		<path
			d="m267.79 172.06c-0.443-5.873-5.562-10.275-11.435-9.835-5.53 0.477-9.77 5.116-9.749 10.667h-21.611c-0.442-5.874-5.563-10.278-11.438-9.836-4.961 0.374-9.005 4.127-9.746 9.046l-21.333 288c-0.436 5.875 3.973 10.991 9.848 11.427 0.272 0.02 0.545 0.03 0.819 0.029h85.333c5.891 0.016 10.68-4.746 10.696-10.637 1e-3 -0.273-9e-3 -0.546-0.029-0.819z"
			style="fill:#6d4c41" />
		<path
			d="m267.79 407.52h-64c-5.891 0-10.667-4.776-10.667-10.667s4.776-10.667 10.667-10.667h64c5.891 0 10.667 4.776 10.667 10.667s-4.776 10.667-10.667 10.667z"
			style="fill:#795548" />
		<path
			d="m257.12 343.52h-42.667c-5.891 0-10.667-4.776-10.667-10.667s4.776-10.667 10.667-10.667h42.667c5.891 0 10.667 4.776 10.667 10.667s-4.775 10.667-10.667 10.667z"
			style="fill:#795548" />
		<path
			d="m257.12 279.52h-42.667c-5.891 0-10.667-4.776-10.667-10.667s4.776-10.667 10.667-10.667h42.667c5.891 0 10.667 4.776 10.667 10.667s-4.775 10.667-10.667 10.667z"
			style="fill:#795548" />
		<path
			d="m257.12 215.52h-42.667c-5.891 0-10.667-4.776-10.667-10.667s4.776-10.667 10.667-10.667h42.667c5.891 0 10.667 4.776 10.667 10.667s-4.775 10.667-10.667 10.667z"
			style="fill:#795548" />
		<path
			d="m400.06 117.64c-59.628-21.895-126.54-7.448-171.82 37.099-4.17 4.161-4.178 10.914-0.018 15.085 1.458 1.462 3.31 2.469 5.33 2.899l124.1 26.453c4.606 0.988 9.315-1.163 11.584-5.291l4.757-8.661 6.912 13.824c1.5 2.996 4.32 5.113 7.616 5.717l58.667 10.667c0.633 0.118 1.276 0.175 1.92 0.171 5.891 0 10.667-4.776 10.667-10.667 0.652-38.826-23.291-73.829-59.712-87.296z"
			style="fill:#388e3c" />
		<path
			d="m243.34 154.74c-45.264-44.58-112.19-59.031-171.82-37.099-36.393 13.447-60.337 48.397-59.733 87.189 0 5.891 4.776 10.667 10.667 10.667 0.644 5e-3 1.287-0.053 1.92-0.171l58.667-10.667c3.296-0.604 6.116-2.721 7.616-5.717l6.912-13.824 4.757 8.661c2.269 4.128 6.978 6.279 11.584 5.291l124.01-26.453c5.762-1.227 9.438-6.893 8.211-12.654-0.43-2.02-1.437-3.871-2.899-5.33z"
			style="fill:#4caf50" />
	</g>
	<g transform="matrix(.14198 0 0 .14198 410.13 257.31)">
		<path
			d="m152.42 7.307c-32.499-14.65-70.73-6.817-94.848 19.435-4.164 4.165-4.164 10.917 0 15.083l42.667 42.667c4.165 4.164 10.917 4.164 15.083 0l3.136-3.221v16.917c-1e-3 3.75 1.967 7.225 5.184 9.152l46.443 27.861c0.671 0.414 1.387 0.75 2.133 1.003 21.047 6.594 40.241 18.062 56.021 33.472 1.994 2.023 4.712 3.167 7.552 3.179 1.399 3e-3 2.784-0.273 4.075-0.811 3.989-1.649 6.591-5.539 6.592-9.856 0-66.092-40.534-132.67-94.038-154.88z"
			style="fill:#388e3c" />
		<path
			d="m414.01 26.741c-24.125-26.23-62.353-34.031-94.827-19.349-53.525 22.123-94.059 88.704-94.059 154.8 1e-3 4.317 2.603 8.207 6.592 9.856 1.291 0.538 2.676 0.813 4.075 0.811 2.831 5e-3 5.548-1.115 7.552-3.115 15.758-15.421 34.928-26.911 55.957-33.536 0.748-0.25 1.464-0.586 2.133-1.003l46.443-27.861c3.217-1.927 5.185-5.402 5.184-9.152v-16.918l3.115 3.115c4.165 4.164 10.917 4.164 15.083 0l42.667-42.667c4.164-4.165 4.164-10.917 0-15.083z"
			style="fill:#4caf50" />
		<path
			d="m267.79 172.06c-0.443-5.873-5.562-10.275-11.435-9.835-5.53 0.477-9.77 5.116-9.749 10.667h-21.611c-0.442-5.874-5.563-10.278-11.438-9.836-4.961 0.374-9.005 4.127-9.746 9.046l-21.333 288c-0.436 5.875 3.973 10.991 9.848 11.427 0.272 0.02 0.545 0.03 0.819 0.029h85.333c5.891 0.016 10.68-4.746 10.696-10.637 1e-3 -0.273-9e-3 -0.546-0.029-0.819z"
			style="fill:#6d4c41" />
		<path
			d="m267.79 407.52h-64c-5.891 0-10.667-4.776-10.667-10.667s4.776-10.667 10.667-10.667h64c5.891 0 10.667 4.776 10.667 10.667s-4.776 10.667-10.667 10.667z"
			style="fill:#795548" />
		<path
			d="m257.12 343.52h-42.667c-5.891 0-10.667-4.776-10.667-10.667s4.776-10.667 10.667-10.667h42.667c5.891 0 10.667 4.776 10.667 10.667s-4.775 10.667-10.667 10.667z"
			style="fill:#795548" />
		<path
			d="m257.12 279.52h-42.667c-5.891 0-10.667-4.776-10.667-10.667s4.776-10.667 10.667-10.667h42.667c5.891 0 10.667 4.776 10.667 10.667s-4.775 10.667-10.667 10.667z"
			style="fill:#795548" />
		<path
			d="m257.12 215.52h-42.667c-5.891 0-10.667-4.776-10.667-10.667s4.776-10.667 10.667-10.667h42.667c5.891 0 10.667 4.776 10.667 10.667s-4.775 10.667-10.667 10.667z"
			style="fill:#795548" />
		<path
			d="m400.06 117.64c-59.628-21.895-126.54-7.448-171.82 37.099-4.17 4.161-4.178 10.914-0.018 15.085 1.458 1.462 3.31 2.469 5.33 2.899l124.1 26.453c4.606 0.988 9.315-1.163 11.584-5.291l4.757-8.661 6.912 13.824c1.5 2.996 4.32 5.113 7.616 5.717l58.667 10.667c0.633 0.118 1.276 0.175 1.92 0.171 5.891 0 10.667-4.776 10.667-10.667 0.652-38.826-23.291-73.829-59.712-87.296z"
			style="fill:#388e3c" />
		<path
			d="m243.34 154.74c-45.264-44.58-112.19-59.031-171.82-37.099-36.393 13.447-60.337 48.397-59.733 87.189 0 5.891 4.776 10.667 10.667 10.667 0.644 5e-3 1.287-0.053 1.92-0.171l58.667-10.667c3.296-0.604 6.116-2.721 7.616-5.717l6.912-13.824 4.757 8.661c2.269 4.128 6.978 6.279 11.584 5.291l124.01-26.453c5.762-1.227 9.438-6.893 8.211-12.654-0.43-2.02-1.437-3.871-2.899-5.33z"
			style="fill:#4caf50" />
	</g>
	<g transform="matrix(.10293 0 0 .10293 357.29 220.92)">
		<path
			d="m152.42 7.307c-32.499-14.65-70.73-6.817-94.848 19.435-4.164 4.165-4.164 10.917 0 15.083l42.667 42.667c4.165 4.164 10.917 4.164 15.083 0l3.136-3.221v16.917c-1e-3 3.75 1.967 7.225 5.184 9.152l46.443 27.861c0.671 0.414 1.387 0.75 2.133 1.003 21.047 6.594 40.241 18.062 56.021 33.472 1.994 2.023 4.712 3.167 7.552 3.179 1.399 3e-3 2.784-0.273 4.075-0.811 3.989-1.649 6.591-5.539 6.592-9.856 0-66.092-40.534-132.67-94.038-154.88z"
			style="fill:#388e3c" />
		<path
			d="m414.01 26.741c-24.125-26.23-62.353-34.031-94.827-19.349-53.525 22.123-94.059 88.704-94.059 154.8 1e-3 4.317 2.603 8.207 6.592 9.856 1.291 0.538 2.676 0.813 4.075 0.811 2.831 5e-3 5.548-1.115 7.552-3.115 15.758-15.421 34.928-26.911 55.957-33.536 0.748-0.25 1.464-0.586 2.133-1.003l46.443-27.861c3.217-1.927 5.185-5.402 5.184-9.152v-16.918l3.115 3.115c4.165 4.164 10.917 4.164 15.083 0l42.667-42.667c4.164-4.165 4.164-10.917 0-15.083z"
			style="fill:#4caf50" />
		<path
			d="m267.79 172.06c-0.443-5.873-5.562-10.275-11.435-9.835-5.53 0.477-9.77 5.116-9.749 10.667h-21.611c-0.442-5.874-5.563-10.278-11.438-9.836-4.961 0.374-9.005 4.127-9.746 9.046l-21.333 288c-0.436 5.875 3.973 10.991 9.848 11.427 0.272 0.02 0.545 0.03 0.819 0.029h85.333c5.891 0.016 10.68-4.746 10.696-10.637 1e-3 -0.273-9e-3 -0.546-0.029-0.819z"
			style="fill:#6d4c41" />
		<path
			d="m267.79 407.52h-64c-5.891 0-10.667-4.776-10.667-10.667s4.776-10.667 10.667-10.667h64c5.891 0 10.667 4.776 10.667 10.667s-4.776 10.667-10.667 10.667z"
			style="fill:#795548" />
		<path
			d="m257.12 343.52h-42.667c-5.891 0-10.667-4.776-10.667-10.667s4.776-10.667 10.667-10.667h42.667c5.891 0 10.667 4.776 10.667 10.667s-4.775 10.667-10.667 10.667z"
			style="fill:#795548" />
		<path
			d="m257.12 279.52h-42.667c-5.891 0-10.667-4.776-10.667-10.667s4.776-10.667 10.667-10.667h42.667c5.891 0 10.667 4.776 10.667 10.667s-4.775 10.667-10.667 10.667z"
			style="fill:#795548" />
		<path
			d="m257.12 215.52h-42.667c-5.891 0-10.667-4.776-10.667-10.667s4.776-10.667 10.667-10.667h42.667c5.891 0 10.667 4.776 10.667 10.667s-4.775 10.667-10.667 10.667z"
			style="fill:#795548" />
		<path
			d="m400.06 117.64c-59.628-21.895-126.54-7.448-171.82 37.099-4.17 4.161-4.178 10.914-0.018 15.085 1.458 1.462 3.31 2.469 5.33 2.899l124.1 26.453c4.606 0.988 9.315-1.163 11.584-5.291l4.757-8.661 6.912 13.824c1.5 2.996 4.32 5.113 7.616 5.717l58.667 10.667c0.633 0.118 1.276 0.175 1.92 0.171 5.891 0 10.667-4.776 10.667-10.667 0.652-38.826-23.291-73.829-59.712-87.296z"
			style="fill:#388e3c" />
		<path
			d="m243.34 154.74c-45.264-44.58-112.19-59.031-171.82-37.099-36.393 13.447-60.337 48.397-59.733 87.189 0 5.891 4.776 10.667 10.667 10.667 0.644 5e-3 1.287-0.053 1.92-0.171l58.667-10.667c3.296-0.604 6.116-2.721 7.616-5.717l6.912-13.824 4.757 8.661c2.269 4.128 6.978 6.279 11.584 5.291l124.01-26.453c5.762-1.227 9.438-6.893 8.211-12.654-0.43-2.02-1.437-3.871-2.899-5.33z"
			style="fill:#4caf50" />
	</g>
	<g transform="matrix(.17867 0 0 .17867 333.85 267.52)">
		<path
			d="m152.42 7.307c-32.499-14.65-70.73-6.817-94.848 19.435-4.164 4.165-4.164 10.917 0 15.083l42.667 42.667c4.165 4.164 10.917 4.164 15.083 0l3.136-3.221v16.917c-1e-3 3.75 1.967 7.225 5.184 9.152l46.443 27.861c0.671 0.414 1.387 0.75 2.133 1.003 21.047 6.594 40.241 18.062 56.021 33.472 1.994 2.023 4.712 3.167 7.552 3.179 1.399 3e-3 2.784-0.273 4.075-0.811 3.989-1.649 6.591-5.539 6.592-9.856 0-66.092-40.534-132.67-94.038-154.88z"
			style="fill:#388e3c" />
		<path
			d="m414.01 26.741c-24.125-26.23-62.353-34.031-94.827-19.349-53.525 22.123-94.059 88.704-94.059 154.8 1e-3 4.317 2.603 8.207 6.592 9.856 1.291 0.538 2.676 0.813 4.075 0.811 2.831 5e-3 5.548-1.115 7.552-3.115 15.758-15.421 34.928-26.911 55.957-33.536 0.748-0.25 1.464-0.586 2.133-1.003l46.443-27.861c3.217-1.927 5.185-5.402 5.184-9.152v-16.918l3.115 3.115c4.165 4.164 10.917 4.164 15.083 0l42.667-42.667c4.164-4.165 4.164-10.917 0-15.083z"
			style="fill:#4caf50" />
		<path
			d="m267.79 172.06c-0.443-5.873-5.562-10.275-11.435-9.835-5.53 0.477-9.77 5.116-9.749 10.667h-21.611c-0.442-5.874-5.563-10.278-11.438-9.836-4.961 0.374-9.005 4.127-9.746 9.046l-21.333 288c-0.436 5.875 3.973 10.991 9.848 11.427 0.272 0.02 0.545 0.03 0.819 0.029h85.333c5.891 0.016 10.68-4.746 10.696-10.637 1e-3 -0.273-9e-3 -0.546-0.029-0.819z"
			style="fill:#6d4c41" />
		<path
			d="m267.79 407.52h-64c-5.891 0-10.667-4.776-10.667-10.667s4.776-10.667 10.667-10.667h64c5.891 0 10.667 4.776 10.667 10.667s-4.776 10.667-10.667 10.667z"
			style="fill:#795548" />
		<path
			d="m257.12 343.52h-42.667c-5.891 0-10.667-4.776-10.667-10.667s4.776-10.667 10.667-10.667h42.667c5.891 0 10.667 4.776 10.667 10.667s-4.775 10.667-10.667 10.667z"
			style="fill:#795548" />
		<path
			d="m257.12 279.52h-42.667c-5.891 0-10.667-4.776-10.667-10.667s4.776-10.667 10.667-10.667h42.667c5.891 0 10.667 4.776 10.667 10.667s-4.775 10.667-10.667 10.667z"
			style="fill:#795548" />
		<path
			d="m257.12 215.52h-42.667c-5.891 0-10.667-4.776-10.667-10.667s4.776-10.667 10.667-10.667h42.667c5.891 0 10.667 4.776 10.667 10.667s-4.775 10.667-10.667 10.667z"
			style="fill:#795548" />
		<path
			d="m400.06 117.64c-59.628-21.895-126.54-7.448-171.82 37.099-4.17 4.161-4.178 10.914-0.018 15.085 1.458 1.462 3.31 2.469 5.33 2.899l124.1 26.453c4.606 0.988 9.315-1.163 11.584-5.291l4.757-8.661 6.912 13.824c1.5 2.996 4.32 5.113 7.616 5.717l58.667 10.667c0.633 0.118 1.276 0.175 1.92 0.171 5.891 0 10.667-4.776 10.667-10.667 0.652-38.826-23.291-73.829-59.712-87.296z"
			style="fill:#388e3c" />
		<path
			d="m243.34 154.74c-45.264-44.58-112.19-59.031-171.82-37.099-36.393 13.447-60.337 48.397-59.733 87.189 0 5.891 4.776 10.667 10.667 10.667 0.644 5e-3 1.287-0.053 1.92-0.171l58.667-10.667c3.296-0.604 6.116-2.721 7.616-5.717l6.912-13.824 4.757 8.661c2.269 4.128 6.978 6.279 11.584 5.291l124.01-26.453c5.762-1.227 9.438-6.893 8.211-12.654-0.43-2.02-1.437-3.871-2.899-5.33z"
			style="fill:#4caf50" />
	</g>
	<path d="m389.71 358.43c-0.18924-21.285 20.144-38.562 43.455-38.286 23.311 0.27638 41.061 17.574 40.731 38.009z"
		style="fill:#ffb300" />
	<g transform="matrix(1.0191 0 0 1.0191 -680.44 174.15)">
		<ellipse transform="scale(1,-1)"
			d="m 1127.4706,-180.08833 a 37.407562,29.703846 0 0 1 -18.0512,27.13784 37.407562,29.703846 0 0 1 -38.6503,-0.0282 37.407562,29.703846 0 0 1 -17.9884,-27.16413"
			style="fill:#ffb300;paint-order:markers fill stroke" />
		<path
			d="m1029.8 180.03h121.12c5.5799 0 10.072 4.4921 10.072 10.072-0.259 20.073-0.2678 20.972-0.4065 64.679-47.903 0.0515-47.958 0.12178-140.66-0.435 0.2238-33.94 0.03-33.908 0.01-64.603 0-5.876 4.7818-9.3237 9.869-9.7134z"
			style="fill:#ffb300;paint-order:markers fill stroke" />
		<path
			d="m1101.9 254.34 0.2103-74.628 46.543 0.21567s6.9219-0.83429 10.095 3.7441c3.2907 4.7479 2.1985 10.164 2.1985 10.164l0.2292 60.712z"
			style="fill:#ff7d00" />
		<path
			d="m1034.7 238.61-0.1694-18.797s1.2388-8.132 8.6367-8.4673c8.4041-0.38094 10.669 7.4512 10.669 7.4512v19.813z"
			style="fill:#ff7d00" />
		<path
			d="m1048.9 212.66c-3.6697 2.3826-4.4082 7.1484-4.4082 7.1484l0.1699 18.799h9.1347v-19.814s-1.1696-3.9889-4.8964-6.1328z"
			style="fill:#000000" />
		<path
			d="m1066.7 238.61-0.1694-18.797s1.2388-8.132 8.6367-8.4673c8.4041-0.38094 10.669 7.4512 10.669 7.4512v19.813z"
			style="fill:#ff7d00" />
		<path
			d="m1080.9 212.66c-3.6697 2.3826-4.4082 7.1484-4.4082 7.1484l0.1699 18.799h9.1347v-19.814s-1.1696-3.9889-4.8964-6.1328z"
			style="fill:#000000" />
		<path
			d="m1114.2 254.61-0.2766-30.7s2.0231-13.281 14.106-13.829c13.726-0.62215 17.424 12.169 17.424 12.169v32.36z"
			style="fill:#0b0b0b" />
		<path
			d="m1129.3 210.06c-0.4095-6e-3 -0.8289 2e-3 -1.2578 0.0215-0.7051 0.032-1.3735 0.10913-2.0117 0.22265 10.466 1.7033 13.436 11.945 13.436 11.945v32.359h6v-32.359s-3.4703-12.005-16.166-12.189z"
			style="fill:#ffb300" />
	</g>
	<g transform="matrix(.24563 0 0 .24563 266.83 325.98)">
		<path
			d="m152.42 7.307c-32.499-14.65-70.73-6.817-94.848 19.435-4.164 4.165-4.164 10.917 0 15.083l42.667 42.667c4.165 4.164 10.917 4.164 15.083 0l3.136-3.221v16.917c-1e-3 3.75 1.967 7.225 5.184 9.152l46.443 27.861c0.671 0.414 1.387 0.75 2.133 1.003 21.047 6.594 40.241 18.062 56.021 33.472 1.994 2.023 4.712 3.167 7.552 3.179 1.399 3e-3 2.784-0.273 4.075-0.811 3.989-1.649 6.591-5.539 6.592-9.856 0-66.092-40.534-132.67-94.038-154.88z"
			style="fill:#388e3c" />
		<path
			d="m414.01 26.741c-24.125-26.23-62.353-34.031-94.827-19.349-53.525 22.123-94.059 88.704-94.059 154.8 1e-3 4.317 2.603 8.207 6.592 9.856 1.291 0.538 2.676 0.813 4.075 0.811 2.831 5e-3 5.548-1.115 7.552-3.115 15.758-15.421 34.928-26.911 55.957-33.536 0.748-0.25 1.464-0.586 2.133-1.003l46.443-27.861c3.217-1.927 5.185-5.402 5.184-9.152v-16.918l3.115 3.115c4.165 4.164 10.917 4.164 15.083 0l42.667-42.667c4.164-4.165 4.164-10.917 0-15.083z"
			style="fill:#4caf50" />
		<path
			d="m267.79 172.06c-0.443-5.873-5.562-10.275-11.435-9.835-5.53 0.477-9.77 5.116-9.749 10.667h-21.611c-0.442-5.874-5.563-10.278-11.438-9.836-4.961 0.374-9.005 4.127-9.746 9.046l-21.333 288c-0.436 5.875 3.973 10.991 9.848 11.427 0.272 0.02 0.545 0.03 0.819 0.029h85.333c5.891 0.016 10.68-4.746 10.696-10.637 1e-3 -0.273-9e-3 -0.546-0.029-0.819z"
			style="fill:#6d4c41" />
		<path
			d="m267.79 407.52h-64c-5.891 0-10.667-4.776-10.667-10.667s4.776-10.667 10.667-10.667h64c5.891 0 10.667 4.776 10.667 10.667s-4.776 10.667-10.667 10.667z"
			style="fill:#795548" />
		<path
			d="m257.12 343.52h-42.667c-5.891 0-10.667-4.776-10.667-10.667s4.776-10.667 10.667-10.667h42.667c5.891 0 10.667 4.776 10.667 10.667s-4.775 10.667-10.667 10.667z"
			style="fill:#795548" />
		<path
			d="m257.12 279.52h-42.667c-5.891 0-10.667-4.776-10.667-10.667s4.776-10.667 10.667-10.667h42.667c5.891 0 10.667 4.776 10.667 10.667s-4.775 10.667-10.667 10.667z"
			style="fill:#795548" />
		<path
			d="m257.12 215.52h-42.667c-5.891 0-10.667-4.776-10.667-10.667s4.776-10.667 10.667-10.667h42.667c5.891 0 10.667 4.776 10.667 10.667s-4.775 10.667-10.667 10.667z"
			style="fill:#795548" />
		<path
			d="m400.06 117.64c-59.628-21.895-126.54-7.448-171.82 37.099-4.17 4.161-4.178 10.914-0.018 15.085 1.458 1.462 3.31 2.469 5.33 2.899l124.1 26.453c4.606 0.988 9.315-1.163 11.584-5.291l4.757-8.661 6.912 13.824c1.5 2.996 4.32 5.113 7.616 5.717l58.667 10.667c0.633 0.118 1.276 0.175 1.92 0.171 5.891 0 10.667-4.776 10.667-10.667 0.652-38.826-23.291-73.829-59.712-87.296z"
			style="fill:#388e3c" />
		<path
			d="m243.34 154.74c-45.264-44.58-112.19-59.031-171.82-37.099-36.393 13.447-60.337 48.397-59.733 87.189 0 5.891 4.776 10.667 10.667 10.667 0.644 5e-3 1.287-0.053 1.92-0.171l58.667-10.667c3.296-0.604 6.116-2.721 7.616-5.717l6.912-13.824 4.757 8.661c2.269 4.128 6.978 6.279 11.584 5.291l124.01-26.453c5.762-1.227 9.438-6.893 8.211-12.654-0.43-2.02-1.437-3.871-2.899-5.33z"
			style="fill:#4caf50" />
	</g>
	<g transform="matrix(.27346 0 0 .27346 386.44 426.75)">
		<path
			d="m152.42 7.307c-32.499-14.65-70.73-6.817-94.848 19.435-4.164 4.165-4.164 10.917 0 15.083l42.667 42.667c4.165 4.164 10.917 4.164 15.083 0l3.136-3.221v16.917c-1e-3 3.75 1.967 7.225 5.184 9.152l46.443 27.861c0.671 0.414 1.387 0.75 2.133 1.003 21.047 6.594 40.241 18.062 56.021 33.472 1.994 2.023 4.712 3.167 7.552 3.179 1.399 3e-3 2.784-0.273 4.075-0.811 3.989-1.649 6.591-5.539 6.592-9.856 0-66.092-40.534-132.67-94.038-154.88z"
			style="fill:#388e3c" />
		<path
			d="m414.01 26.741c-24.125-26.23-62.353-34.031-94.827-19.349-53.525 22.123-94.059 88.704-94.059 154.8 1e-3 4.317 2.603 8.207 6.592 9.856 1.291 0.538 2.676 0.813 4.075 0.811 2.831 5e-3 5.548-1.115 7.552-3.115 15.758-15.421 34.928-26.911 55.957-33.536 0.748-0.25 1.464-0.586 2.133-1.003l46.443-27.861c3.217-1.927 5.185-5.402 5.184-9.152v-16.918l3.115 3.115c4.165 4.164 10.917 4.164 15.083 0l42.667-42.667c4.164-4.165 4.164-10.917 0-15.083z"
			style="fill:#4caf50" />
		<path
			d="m267.79 172.06c-0.443-5.873-5.562-10.275-11.435-9.835-5.53 0.477-9.77 5.116-9.749 10.667h-21.611c-0.442-5.874-5.563-10.278-11.438-9.836-4.961 0.374-9.005 4.127-9.746 9.046-12.802 83.544-10.575 145.98-10.575 145.98l88.733 0.32206s-2.6546-51.398-14.18-146.34z"
			style="fill:#6d4c41" />


		<path
			d="m257.12 279.52h-42.667c-5.891 0-10.667-4.776-10.667-10.667s4.776-10.667 10.667-10.667h42.667c5.891 0 10.667 4.776 10.667 10.667s-4.775 10.667-10.667 10.667z"
			style="fill:#795548" />
		<path
			d="m257.12 215.52h-42.667c-5.891 0-10.667-4.776-10.667-10.667s4.776-10.667 10.667-10.667h42.667c5.891 0 10.667 4.776 10.667 10.667s-4.775 10.667-10.667 10.667z"
			style="fill:#795548" />
		<path
			d="m400.06 117.64c-59.628-21.895-126.54-7.448-171.82 37.099-4.17 4.161-4.178 10.914-0.018 15.085 1.458 1.462 3.31 2.469 5.33 2.899l124.1 26.453c4.606 0.988 9.315-1.163 11.584-5.291l4.757-8.661 6.912 13.824c1.5 2.996 4.32 5.113 7.616 5.717l58.667 10.667c0.633 0.118 1.276 0.175 1.92 0.171 5.891 0 10.667-4.776 10.667-10.667 0.652-38.826-23.291-73.829-59.712-87.296z"
			style="fill:#388e3c" />
		<path
			d="m243.34 154.74c-45.264-44.58-112.19-59.031-171.82-37.099-36.393 13.447-60.337 48.397-59.733 87.189 0 5.891 4.776 10.667 10.667 10.667 0.644 5e-3 1.287-0.053 1.92-0.171l58.667-10.667c3.296-0.604 6.116-2.721 7.616-5.717l6.912-13.824 4.757 8.661c2.269 4.128 6.978 6.279 11.584 5.291l124.01-26.453c5.762-1.227 9.438-6.893 8.211-12.654-0.43-2.02-1.437-3.871-2.899-5.33z"
			style="fill:#4caf50" />
	</g>
	<g transform="matrix(.68266 0 0 .68266 26.192 94.904)">
		<path d="m190.21 201.9h6.74v40.712h-6.74z" fill="#ec771b" />
		<path d="m193.58 201.9h3.37v40.712h-3.37z" fill="#c55732" />
		<path d="m190.21 201.9h3.37v28.009h-3.37z" fill="#c55732" />
		<path d="m193.58 201.9h3.37v28.009h-3.37z" fill="#a44e3e" />
		<path
			d="m218.86 212.16c0.069 6.917-5.747 12.575-12.661 12.575h-25.242c-6.917 0-12.73-5.658-12.664-12.575 0.036-3.425 1.453-6.519 3.724-8.749 1.076-1.06 1.627-2.548 1.533-4.059-0.017-0.26-0.025-0.526-0.025-0.791 0-4.208 2.086-7.93 5.285-10.182 1.436-1.013 2.319-2.637 2.319-4.394v-0.205c0-6.876 5.572-12.451 12.448-12.451 0.072 0 0.141 3e-3 0.213 3e-3 3.414 0.055 6.472 1.513 8.68 3.807 2.205 2.296 3.558 5.431 3.558 8.846 0 1.757 0.883 3.381 2.319 4.394 3.196 2.252 5.285 5.974 5.285 10.182 0 0.266-8e-3 0.531-0.025 0.791-0.097 1.511 0.454 2.999 1.533 4.059 2.268 2.23 3.687 5.324 3.72 8.749z"
			fill="#43af3e" />
		<path
			d="m218.86 212.16c0.069 6.917-5.747 12.575-12.661 12.575h-18.596c-3.273 0-6.026-5.658-5.993-12.575 0.017-3.425 0.686-6.519 1.762-8.749 0.509-1.06 0.769-2.548 0.725-4.059-8e-3 -0.26-0.011-0.526-0.011-0.791 0-4.208 0.988-7.93 2.501-10.182 0.678-1.013 1.096-2.637 1.096-4.394v-0.205c0-6.876 2.64-12.451 5.893-12.451 0.033 0 0.066 3e-3 0.1 3e-3h0.113c3.414 0.055 6.472 1.513 8.68 3.807 2.205 2.296 3.558 5.431 3.558 8.846 0 1.757 0.883 3.381 2.319 4.394 3.196 2.252 5.285 5.974 5.285 10.182 0 0.266-8e-3 0.531-0.025 0.791-0.097 1.511 0.454 2.999 1.533 4.059 2.269 2.23 3.688 5.324 3.721 8.749z"
			fill="#00a23e" />
		<path
			d="m218.86 212.16c0.069 6.917-5.747 12.575-12.661 12.575h-12.622v-53.406c0.072 0 0.141 3e-3 0.213 3e-3 3.414 0.055 6.472 1.513 8.68 3.807 2.205 2.296 3.558 5.431 3.558 8.846 0 1.757 0.883 3.381 2.319 4.394 3.196 2.252 5.285 5.974 5.285 10.182 0 0.266-8e-3 0.531-0.025 0.791-0.097 1.511 0.454 2.999 1.533 4.059 2.268 2.23 3.687 5.324 3.72 8.749z"
			fill="#008839" />
	</g>
	<g transform="matrix(.94127 0 0 .94127 2.1641 34.647)">
		<path d="m184.89 272.16h7.752v46.821h-7.752z" fill="#ec771b" />
		<path d="m188.77 272.16h3.876v46.821h-3.876z" fill="#c55732" />
		<path d="m184.89 272.16h3.876v32.212h-3.876z" fill="#c55732" />
		<path d="m188.77 272.16h3.876v32.212h-3.876z" fill="#a44e3e" />
		<path
			d="m217.84 283.97c0.079 7.955-6.609 14.463-14.561 14.463h-29.03c-7.955 0-14.641-6.507-14.564-14.463 0.041-3.939 1.671-7.497 4.283-10.062 1.238-1.219 1.871-2.931 1.763-4.668-0.019-0.299-0.029-0.604-0.029-0.91 0-4.84 2.399-9.12 6.078-11.71 1.652-1.165 2.667-3.033 2.667-5.053v-0.235c0-7.907 6.409-14.319 14.316-14.319 0.083 0 0.162 3e-3 0.245 3e-3 3.927 0.064 7.443 1.741 9.982 4.378 2.536 2.641 4.092 6.247 4.092 10.173 0 2.021 1.015 3.889 2.667 5.053 3.675 2.59 6.078 6.87 6.078 11.71 0 0.306-0.01 0.611-0.029 0.91-0.111 1.737 0.522 3.449 1.763 4.668 2.608 2.565 4.241 6.122 4.279 10.062z"
			fill="#43af3e" />
		<path
			d="m217.84 283.97c0.08 7.955-6.609 14.463-14.561 14.463h-21.387c-3.764 0-6.931-6.507-6.892-14.463 0.019-3.939 0.789-7.497 2.027-10.062 0.585-1.219 0.885-2.931 0.834-4.668-0.01-0.299-0.013-0.604-0.013-0.91 0-4.84 1.136-9.12 2.877-11.71 0.78-1.165 1.26-3.033 1.26-5.053v-0.235c0-7.907 3.036-14.319 6.778-14.319 0.038 0 0.076 3e-3 0.115 3e-3h0.13c3.927 0.064 7.443 1.741 9.982 4.378 2.536 2.641 4.092 6.247 4.092 10.173 0 2.021 1.015 3.889 2.667 5.053 3.675 2.59 6.078 6.87 6.078 11.71 0 0.306-9e-3 0.611-0.029 0.91-0.111 1.737 0.522 3.449 1.763 4.668 2.608 2.565 4.241 6.122 4.279 10.062z"
			fill="#00a23e" />
		<path
			d="m217.84 283.97c0.079 7.955-6.609 14.463-14.561 14.463h-14.517v-61.421c0.083 0 0.162 3e-3 0.245 3e-3 3.927 0.064 7.443 1.741 9.982 4.378 2.536 2.641 4.092 6.247 4.092 10.173 0 2.021 1.015 3.889 2.667 5.053 3.675 2.59 6.078 6.87 6.078 11.71 0 0.306-0.01 0.611-0.029 0.91-0.111 1.737 0.522 3.449 1.763 4.668 2.609 2.566 4.242 6.123 4.28 10.063z"
			fill="#008839" />
	</g>
	<g transform="matrix(1.0717 0 0 1.0717 -84.433 2.9813)">
		<path d="m211.78 296.45h8.461v51.107h-8.461z" fill="#ec771b" />
		<path d="m216.01 296.45h4.231v51.107h-4.231z" fill="#c55732" />
		<path d="m211.78 296.45h4.231v35.161h-4.231z" fill="#c55732" />
		<path d="m216.01 296.45h4.231v35.161h-4.231z" fill="#a44e3e" />
		<path
			d="m247.75 309.34c0.087 8.684-7.214 15.787-15.894 15.787h-31.688c-8.684 0-15.981-7.103-15.898-15.787 0.045-4.3 1.823-8.183 4.675-10.983 1.351-1.33 2.042-3.199 1.924-5.096-0.021-0.326-0.031-0.66-0.031-0.993 0-5.283 2.619-9.955 6.634-12.782 1.803-1.271 2.911-3.31 2.911-5.516v-0.257c0-8.631 6.995-15.63 15.627-15.63 0.09 0 0.177 4e-3 0.268 4e-3 4.286 0.069 8.124 1.9 10.896 4.779 2.768 2.883 4.467 6.818 4.467 11.104 0 2.206 1.108 4.245 2.911 5.516 4.012 2.827 6.634 7.499 6.634 12.782 0 0.333-0.01 0.667-0.031 0.993-0.122 1.897 0.57 3.765 1.924 5.096 2.847 2.8 4.629 6.683 4.671 10.983z"
			fill="#43af3e" />
		<path
			d="m247.75 309.34c0.087 8.684-7.214 15.787-15.894 15.787h-23.345c-4.109 0-7.565-7.103-7.523-15.787 0.021-4.3 0.861-8.183 2.213-10.983 0.639-1.33 0.966-3.199 0.91-5.096-0.01-0.326-0.014-0.66-0.014-0.993 0-5.283 1.24-9.955 3.14-12.782 0.851-1.271 1.376-3.31 1.376-5.516v-0.257c0-8.631 3.314-15.63 7.398-15.63 0.042 0 0.083 4e-3 0.125 4e-3h0.142c4.286 0.069 8.124 1.9 10.896 4.779 2.768 2.883 4.467 6.818 4.467 11.104 0 2.206 1.108 4.245 2.911 5.516 4.012 2.827 6.634 7.499 6.634 12.782 0 0.333-0.01 0.667-0.031 0.993-0.122 1.897 0.57 3.765 1.924 5.096 2.847 2.8 4.629 6.683 4.671 10.983z"
			fill="#00a23e" />
		<path
			d="m247.75 309.34c0.087 8.684-7.214 15.787-15.894 15.787h-15.846v-67.043c0.09 0 0.177 4e-3 0.268 4e-3 4.286 0.069 8.124 1.9 10.896 4.779 2.768 2.883 4.467 6.818 4.467 11.104 0 2.206 1.108 4.245 2.911 5.516 4.012 2.827 6.634 7.499 6.634 12.782 0 0.333-0.01 0.667-0.031 0.993-0.122 1.897 0.57 3.765 1.924 5.096 2.847 2.799 4.629 6.682 4.671 10.982z"
			fill="#008839" />
	</g>
	<g transform="matrix(1.3836 0 0 1.3836 -28.473 -43.639)">
		<path d="m104.68 361.65h10.006l-0.24444 41.737h-10.006z" fill="#ec771b" />
		<path d="m109.68 361.65h5.003l0.12222 41.615h-5.003z" fill="#c55732" />
		<path d="m104.68 361.65h5.003v41.58h-5.003z" fill="#c55732" />
		<path d="m109.68 361.65h5.003v41.58h-5.003z" fill="#a44e3e" />
		<path
			d="m147.21 376.89c0.103 10.269-8.531 18.668-18.796 18.668h-37.472c-10.269 0-18.899-8.4-18.8-18.668 0.053-5.085 2.156-9.677 5.529-12.988 1.598-1.573 2.415-3.783 2.275-6.026-0.025-0.386-0.037-0.78-0.037-1.175 0-6.248 3.097-11.772 7.845-15.116 2.132-1.503 3.442-3.914 3.442-6.523v-0.304c0-10.207 8.273-18.484 18.479-18.484 0.107 0 0.21 4e-3 0.316 4e-3 5.069 0.082 9.607 2.247 12.885 5.652 3.273 3.409 5.282 8.063 5.282 13.132 0 2.608 1.31 5.019 3.442 6.523 4.744 3.344 7.845 8.868 7.845 15.116 0 0.394-0.012 0.789-0.037 1.175-0.144 2.243 0.674 4.453 2.275 6.026 3.371 3.311 5.478 7.903 5.527 12.988z"
			fill="#43af3e" />
		<path
			d="m147.21 376.89c0.103 10.269-8.531 18.668-18.796 18.668h-27.606c-4.859 0-8.946-8.4-8.897-18.668 0.025-5.085 1.019-9.677 2.617-12.988 0.756-1.573 1.142-3.783 1.076-6.026-0.012-0.386-0.016-0.78-0.016-1.175 0-6.248 1.466-11.772 3.713-15.116 1.006-1.503 1.627-3.914 1.627-6.523v-0.304c0-10.207 3.918-18.484 8.749-18.484 0.049 0 0.099 4e-3 0.148 4e-3h0.168c5.069 0.082 9.607 2.247 12.885 5.652 3.273 3.409 5.282 8.063 5.282 13.132 0 2.608 1.31 5.019 3.442 6.523 4.744 3.344 7.845 8.868 7.845 15.116 0 0.394-0.012 0.789-0.037 1.175-0.144 2.243 0.674 4.453 2.275 6.026 3.369 3.311 5.476 7.903 5.525 12.988z"
			fill="#00a23e" />
		<path
			d="m147.21 376.89c0.103 10.269-8.531 18.668-18.796 18.668h-18.738v-79.282c0.107 0 0.21 4e-3 0.316 4e-3 5.069 0.082 9.607 2.247 12.885 5.652 3.273 3.409 5.282 8.063 5.282 13.132 0 2.608 1.31 5.019 3.442 6.523 4.744 3.344 7.845 8.868 7.845 15.116 0 0.394-0.012 0.789-0.037 1.175-0.144 2.243 0.674 4.453 2.275 6.026 3.37 3.309 5.477 7.901 5.526 12.986z"
			fill="#008839" />
	</g>
	<g transform="matrix(.77885 0 0 .77885 -36.7 31.63)">
		<path d="m81.466 267.35h8.234v49.734h-8.234z" fill="#ec771b" />
		<path d="m85.583 267.35h4.117v49.734h-4.117z" fill="#c55732" />
		<path d="m81.466 267.35h4.117v34.216h-4.117z" fill="#c55732" />
		<path d="m85.583 267.35h4.117v34.216h-4.117z" fill="#a44e3e" />
		<path
			d="m116.47 279.89c0.084 8.45-7.02 15.362-15.467 15.362h-30.836c-8.45 0-15.552-6.912-15.471-15.362 0.044-4.184 1.775-7.963 4.55-10.688 1.315-1.295 1.987-3.113 1.872-4.959-0.02-0.318-0.03-0.642-0.03-0.967 0-5.141 2.549-9.687 6.456-12.439 1.754-1.237 2.832-3.221 2.832-5.368v-0.25c0-8.399 6.807-15.21 15.207-15.21 0.088 0 0.172 3e-3 0.26 3e-3 4.171 0.068 7.906 1.849 10.603 4.651 2.694 2.805 4.347 6.635 4.347 10.806 0 2.146 1.078 4.13 2.832 5.368 3.904 2.751 6.456 7.297 6.456 12.439 0 0.324-0.01 0.649-0.03 0.967-0.118 1.846 0.554 3.664 1.872 4.959 2.772 2.724 4.506 6.503 4.547 10.688z"
			fill="#43af3e" />
		<path
			d="m116.47 279.89c0.084 8.45-7.02 15.362-15.467 15.362h-22.717c-3.999 0-7.362-6.912-7.321-15.362 0.02-4.184 0.838-7.963 2.153-10.688 0.622-1.295 0.94-3.113 0.886-4.959-0.01-0.318-0.014-0.642-0.014-0.967 0-5.141 1.207-9.687 3.056-12.439 0.828-1.237 1.339-3.221 1.339-5.368v-0.25c0-8.399 3.225-15.21 7.2-15.21 0.041 0 0.081 3e-3 0.122 3e-3h0.139c4.171 0.068 7.906 1.849 10.603 4.651 2.694 2.805 4.347 6.635 4.347 10.806 0 2.146 1.078 4.13 2.833 5.368 3.904 2.751 6.456 7.297 6.456 12.439 0 0.324-0.01 0.649-0.03 0.967-0.118 1.846 0.554 3.664 1.872 4.959 2.768 2.724 4.502 6.503 4.543 10.688z"
			fill="#00a23e" />
		<path
			d="m116.47 279.89c0.084 8.45-7.02 15.362-15.467 15.362h-15.42v-65.242c0.088 0 0.172 3e-3 0.26 3e-3 4.171 0.068 7.906 1.849 10.603 4.651 2.694 2.805 4.347 6.635 4.347 10.806 0 2.146 1.078 4.13 2.832 5.368 3.904 2.751 6.456 7.297 6.456 12.439 0 0.324-0.01 0.649-0.03 0.967-0.118 1.846 0.554 3.664 1.872 4.959 2.772 2.723 4.506 6.502 4.547 10.687z"
			fill="#008839" />
	</g>
	<g transform="matrix(1.1811 0 0 1.1811 -86.283 -32.546)">
		<path d="m104.68 361.65h10.006v60.437h-10.006z" fill="#ec771b" />
		<path d="m109.68 361.65h5.003v60.437h-5.003z" fill="#c55732" />
		<path d="m104.68 361.65h5.003v41.58h-5.003z" fill="#c55732" />
		<path d="m109.68 361.65h5.003v41.58h-5.003z" fill="#a44e3e" />
		<path
			d="m147.21 376.89c0.103 10.269-8.531 18.668-18.796 18.668h-37.472c-10.269 0-18.899-8.4-18.8-18.668 0.053-5.085 2.156-9.677 5.529-12.988 1.598-1.573 2.415-3.783 2.275-6.026-0.025-0.386-0.037-0.78-0.037-1.175 0-6.248 3.097-11.772 7.845-15.116 2.132-1.503 3.442-3.914 3.442-6.523v-0.304c0-10.207 8.273-18.484 18.479-18.484 0.107 0 0.21 4e-3 0.316 4e-3 5.069 0.082 9.607 2.247 12.885 5.652 3.273 3.409 5.282 8.063 5.282 13.132 0 2.608 1.31 5.019 3.442 6.523 4.744 3.344 7.845 8.868 7.845 15.116 0 0.394-0.012 0.789-0.037 1.175-0.144 2.243 0.674 4.453 2.275 6.026 3.371 3.311 5.478 7.903 5.527 12.988z"
			fill="#43af3e" />
		<path
			d="m147.21 376.89c0.103 10.269-8.531 18.668-18.796 18.668h-27.606c-4.859 0-8.946-8.4-8.897-18.668 0.025-5.085 1.019-9.677 2.617-12.988 0.756-1.573 1.142-3.783 1.076-6.026-0.012-0.386-0.016-0.78-0.016-1.175 0-6.248 1.466-11.772 3.713-15.116 1.006-1.503 1.627-3.914 1.627-6.523v-0.304c0-10.207 3.918-18.484 8.749-18.484 0.049 0 0.099 4e-3 0.148 4e-3h0.168c5.069 0.082 9.607 2.247 12.885 5.652 3.273 3.409 5.282 8.063 5.282 13.132 0 2.608 1.31 5.019 3.442 6.523 4.744 3.344 7.845 8.868 7.845 15.116 0 0.394-0.012 0.789-0.037 1.175-0.144 2.243 0.674 4.453 2.275 6.026 3.369 3.311 5.476 7.903 5.525 12.988z"
			fill="#00a23e" />
		<path
			d="m147.21 376.89c0.103 10.269-8.531 18.668-18.796 18.668h-18.738v-79.282c0.107 0 0.21 4e-3 0.316 4e-3 5.069 0.082 9.607 2.247 12.885 5.652 3.273 3.409 5.282 8.063 5.282 13.132 0 2.608 1.31 5.019 3.442 6.523 4.744 3.344 7.845 8.868 7.845 15.116 0 0.394-0.012 0.789-0.037 1.175-0.144 2.243 0.674 4.453 2.275 6.026 3.37 3.309 5.477 7.901 5.526 12.986z"
			fill="#008839" />
	</g>
	<g transform="matrix(.49338 0 0 .49338 -20.368 129)">
		<path d="m190.21 201.9h6.74v40.712h-6.74z" fill="#ec771b" />
		<path d="m193.58 201.9h3.37v40.712h-3.37z" fill="#c55732" />
		<path d="m190.21 201.9h3.37v28.009h-3.37z" fill="#c55732" />
		<path d="m193.58 201.9h3.37v28.009h-3.37z" fill="#a44e3e" />
		<path
			d="m218.86 212.16c0.069 6.917-5.747 12.575-12.661 12.575h-25.242c-6.917 0-12.73-5.658-12.664-12.575 0.036-3.425 1.453-6.519 3.724-8.749 1.076-1.06 1.627-2.548 1.533-4.059-0.017-0.26-0.025-0.526-0.025-0.791 0-4.208 2.086-7.93 5.285-10.182 1.436-1.013 2.319-2.637 2.319-4.394v-0.205c0-6.876 5.572-12.451 12.448-12.451 0.072 0 0.141 3e-3 0.213 3e-3 3.414 0.055 6.472 1.513 8.68 3.807 2.205 2.296 3.558 5.431 3.558 8.846 0 1.757 0.883 3.381 2.319 4.394 3.196 2.252 5.285 5.974 5.285 10.182 0 0.266-8e-3 0.531-0.025 0.791-0.097 1.511 0.454 2.999 1.533 4.059 2.268 2.23 3.687 5.324 3.72 8.749z"
			fill="#43af3e" />
		<path
			d="m218.86 212.16c0.069 6.917-5.747 12.575-12.661 12.575h-18.596c-3.273 0-6.026-5.658-5.993-12.575 0.017-3.425 0.686-6.519 1.762-8.749 0.509-1.06 0.769-2.548 0.725-4.059-8e-3 -0.26-0.011-0.526-0.011-0.791 0-4.208 0.988-7.93 2.501-10.182 0.678-1.013 1.096-2.637 1.096-4.394v-0.205c0-6.876 2.64-12.451 5.893-12.451 0.033 0 0.066 3e-3 0.1 3e-3h0.113c3.414 0.055 6.472 1.513 8.68 3.807 2.205 2.296 3.558 5.431 3.558 8.846 0 1.757 0.883 3.381 2.319 4.394 3.196 2.252 5.285 5.974 5.285 10.182 0 0.266-8e-3 0.531-0.025 0.791-0.097 1.511 0.454 2.999 1.533 4.059 2.269 2.23 3.688 5.324 3.721 8.749z"
			fill="#00a23e" />
		<path
			d="m218.86 212.16c0.069 6.917-5.747 12.575-12.661 12.575h-12.622v-53.406c0.072 0 0.141 3e-3 0.213 3e-3 3.414 0.055 6.472 1.513 8.68 3.807 2.205 2.296 3.558 5.431 3.558 8.846 0 1.757 0.883 3.381 2.319 4.394 3.196 2.252 5.285 5.974 5.285 10.182 0 0.266-8e-3 0.531-0.025 0.791-0.097 1.511 0.454 2.999 1.533 4.059 2.268 2.23 3.687 5.324 3.72 8.749z"
			fill="#008839" />
	</g>
	<g id="khorshid">
		<circle cx="64" cy="63.997" r="39.247" fill="#fedb41" />
		<g fill="#fea832">
			<path
				d="m95.247 65.747a1.749 1.749 0 0 1-1.747-1.747 29.53 29.53 0 0 0-29.5-29.5 1.75 1.75 0 0 1 0-3.5 33.035 33.035 0 0 1 33 33 1.749 1.749 0 0 1-1.753 1.747z" />
			<path
				d="m64 16.75a47.252 47.252 0 0 1 8.5 0.781c0.038-0.545 0.063-1.1 0.063-1.658-1e-3 -7.801-8.563-14.126-8.563-14.126s-8.563 6.325-8.563 14.126c0 0.562 0.026 1.113 0.064 1.658a47.243 47.243 0 0 1 8.499-0.781z" />
			<path
				d="m64 111.24a47.343 47.343 0 0 0 8.5-0.78c0.038 0.544 0.063 1.095 0.063 1.657 0 7.8-8.562 14.126-8.562 14.126s-8.563-6.324-8.563-14.126c0-0.562 0.026-1.113 0.064-1.657a47.335 47.335 0 0 0 8.498 0.78z" />
			<path
				d="m97.409 30.588a47.349 47.349 0 0 1 5.457 6.562c0.413-0.358 0.82-0.73 1.217-1.127 5.517-5.517 3.934-16.043 3.934-16.043s-10.526-1.58-16.043 3.934c-0.4 0.4-0.769 0.8-1.127 1.217a47.349 47.349 0 0 1 6.562 5.457z" />
			<path
				d="m30.591 97.406a47.232 47.232 0 0 0 6.562 5.457c-0.358 0.413-0.73 0.82-1.127 1.217-5.517 5.517-16.043 3.934-16.043 3.934s-1.583-10.526 3.934-16.043c0.4-0.4 0.8-0.769 1.217-1.127a47.291 47.291 0 0 0 5.457 6.562z" />
			<path
				d="m111.25 64a47.335 47.335 0 0 1-0.78 8.5c0.544 0.038 1.095 0.064 1.657 0.064 7.8 0 14.126-8.563 14.126-8.563s-6.325-8.562-14.126-8.562c-0.562 0-1.113 0.025-1.657 0.063a47.343 47.343 0 0 1 0.78 8.498z" />
			<path
				d="m16.753 64a47.335 47.335 0 0 0 0.78 8.5c-0.544 0.038-1.1 0.064-1.657 0.064-7.801-4e-3 -14.126-8.564-14.126-8.564s6.325-8.562 14.126-8.562c0.562 0 1.113 0.025 1.657 0.063a47.343 47.343 0 0 0-0.78 8.499z" />
			<path
				d="m97.409 97.406a47.349 47.349 0 0 1-6.562 5.457c0.358 0.413 0.73 0.82 1.127 1.217 5.517 5.517 16.043 3.934 16.043 3.934s1.583-10.526-3.934-16.043c-0.4-0.4-0.8-0.769-1.217-1.127a47.291 47.291 0 0 1-5.457 6.562z" />
			<path
				d="m30.591 30.588a47.349 47.349 0 0 0-5.457 6.562c-0.413-0.358-0.82-0.73-1.217-1.127-5.517-5.517-3.934-16.043-3.934-16.043s10.526-1.58 16.043 3.934c0.4 0.4 0.769 0.8 1.127 1.217a47.291 47.291 0 0 0-6.562 5.457z" />
		</g>
	</g>
</svg>