<?xml version="1.0" encoding="UTF-8" standalone="no"?>
<svg
   xmlns:dc="http://purl.org/dc/elements/1.1/"
   xmlns:cc="http://creativecommons.org/ns#"
   xmlns:rdf="http://www.w3.org/1999/02/22-rdf-syntax-ns#"
   xmlns:svg="http://www.w3.org/2000/svg"
   xmlns="http://www.w3.org/2000/svg"
   xmlns:sodipodi="http://sodipodi.sourceforge.net/DTD/sodipodi-0.dtd"
   xmlns:inkscape="http://www.inkscape.org/namespaces/inkscape"
   inkscape:version="1.0 (4035a4f, 2020-05-01)"
   inkscape:export-ydpi="96.000008"
   inkscape:export-xdpi="96.000008"
   inkscape:export-filename="/Users/SaaMoj/Downloads/paym.png"
   sodipodi:docname="payment.svg"
   id="svg897"
   version="1.1"
   height="128"
   width="128">
  <metadata
     id="metadata903">
    <rdf:RDF>
      <cc:Work
         rdf:about="">
        <dc:format>image/svg+xml</dc:format>
        <dc:type
           rdf:resource="http://purl.org/dc/dcmitype/StillImage" />
        <dc:title></dc:title>
      </cc:Work>
    </rdf:RDF>
  </metadata>
  <defs
     id="defs901">
    <clipPath
       id="clipPath914"
       clipPathUnits="userSpaceOnUse">
      <path
         id="path912-8"
         d="m 8342.61,2598.16 59.16,204.09 300.17,-74.66 -94.58,-34.07 -197.48,49.12 -2.72,-10.92 181.14,-45.06 -55.24,-19.9 -134.22,33.38 -16.09,-64.67 37.52,-9.34 -77.66,-27.97 m 519.79,187.23 -384.16,95.56 c 10.44,3.16 21.41,4.83 32.58,4.83 9.04,0 18.22,-1.09 27.37,-3.37 l 351.1,-87.33 -26.89,-9.69" />
    </clipPath>
    <linearGradient
       id="linearGradient920"
       spreadMethod="pad"
       gradientTransform="matrix(468.695,-116.585,-116.585,-468.695,8381.61,2754.92)"
       gradientUnits="userSpaceOnUse"
       y2="0"
       x2="1"
       y1="0"
       x1="0">
      <stop
         id="stop916"
         offset="0"
         style="stop-opacity:1;stop-color:#057f00" />
      <stop
         id="stop918"
         offset="1"
         style="stop-opacity:1;stop-color:#035000" />
    </linearGradient>
    <clipPath
       id="clipPath930"
       clipPathUnits="userSpaceOnUse">
      <path
         id="path928-2"
         d="m 8701.94,2727.59 -300.17,74.66 0.56,1.93 c 11.04,38.09 40.43,66.03 75.91,76.77 l 384.16,-95.56 -160.46,-57.8" />
    </clipPath>
    <linearGradient
       id="linearGradient936"
       spreadMethod="pad"
       gradientTransform="matrix(468.695,-116.585,-116.585,-468.695,8381.61,2754.92)"
       gradientUnits="userSpaceOnUse"
       y2="0"
       x2="1"
       y1="0"
       x1="0">
      <stop
         id="stop932"
         offset="0"
         style="stop-opacity:1;stop-color:#022900" />
      <stop
         id="stop934"
         offset="1"
         style="stop-opacity:1;stop-color:#011a00" />
    </linearGradient>
    <clipPath
       id="clipPath946"
       clipPathUnits="userSpaceOnUse">
      <path
         id="path944"
         d="m 8588.3,2686.66 -181.14,45.06 2.72,10.92 197.48,-49.12 -19.06,-6.86" />
    </clipPath>
    <linearGradient
       id="linearGradient952"
       spreadMethod="pad"
       gradientTransform="matrix(468.695,-116.585,-116.585,-468.695,8381.61,2754.92)"
       gradientUnits="userSpaceOnUse"
       y2="0"
       x2="1"
       y1="0"
       x1="0">
      <stop
         id="stop948-9"
         offset="0"
         style="stop-opacity:1;stop-color:#bba9ff" />
      <stop
         id="stop950"
         offset="1"
         style="stop-opacity:1;stop-color:#8376ff" />
    </linearGradient>
    <clipPath
       id="clipPath962"
       clipPathUnits="userSpaceOnUse">
      <path
         id="path960"
         d="m 8420.27,2626.13 -37.52,9.34 16.09,64.67 134.22,-33.38 -112.79,-40.63" />
    </clipPath>
    <clipPath
       id="clipPath702-7"
       clipPathUnits="userSpaceOnUse">
      <path
         id="path700-5"
         d="m 5093.61,15009.7 c -136.48,0 -260.11,21.5 -323.59,28.6 v 0 c 63.48,-7.1 187.11,-28.6 323.59,-28.6 v 0 m -593.33,118.7 c 0.77,25.5 4.03,47.7 8.47,66.5 v 0 c -4.44,-18.8 -7.7,-41 -8.47,-66.5" />
    </clipPath>
    <linearGradient
       id="linearGradient708-7"
       spreadMethod="pad"
       gradientTransform="matrix(720.686,-521.882,-521.882,-720.686,5127.23,15493)"
       gradientUnits="userSpaceOnUse"
       y2="0"
       x2="1"
       y1="0"
       x1="0">
      <stop
         id="stop704-2"
         offset="0"
         style="stop-opacity:1;stop-color:#ea5724" />
      <stop
         id="stop706-9"
         offset="1"
         style="stop-opacity:1;stop-color:#9d3a18" />
    </linearGradient>
    <linearGradient
       id="SVGID_5_"
       gradientUnits="userSpaceOnUse"
       x1="383.5715"
       y1="149.3136"
       x2="407.73151"
       y2="48.4137"
       gradientTransform="matrix(1.0039,0,0,-1.0038999,0.19224719,516.56079)">
      <stop
         offset="0"
         style="stop-color:#FFF465"
         id="stop3124" />
      <stop
         offset="1"
         style="stop-color:#FFE600"
         id="stop3126" />
    </linearGradient>
    <linearGradient
       id="SVGID_6_"
       gradientUnits="userSpaceOnUse"
       x1="406.88708"
       y1="93.312698"
       x2="377.76709"
       y2="247.2627"
       gradientTransform="matrix(1.0039,0,0,-1.0038999,0.19224719,516.56079)">
      <stop
         offset="0"
         style="stop-color:#FFE600;stop-opacity:0"
         id="stop3141" />
      <stop
         offset="1"
         style="stop-color:#F59500"
         id="stop3143" />
    </linearGradient>
    <linearGradient
       id="SVGID_7_"
       gradientUnits="userSpaceOnUse"
       x1="385.2998"
       y1="216.0007"
       x2="1.5398"
       y2="162.8607"
       gradientTransform="matrix(1.0039,0,0,-1.0038999,0.19224719,516.56079)">
      <stop
         offset="0"
         style="stop-color:#FFF465"
         id="stop3148" />
      <stop
         offset="1"
         style="stop-color:#FFE600"
         id="stop3150" />
    </linearGradient>
    <linearGradient
       id="SVGID_4_"
       gradientUnits="userSpaceOnUse"
       x1="387.4371"
       y1="332.323"
       x2="387.4371"
       y2="235.353"
       gradientTransform="matrix(1.0039,0,0,-1.0038999,0.19224719,516.56079)">
      <stop
         offset="0"
         style="stop-color:#C3C3C3"
         id="stop3117" />
      <stop
         offset="1"
         style="stop-color:#777777"
         id="stop3119" />
    </linearGradient>
    <linearGradient
       id="SVGID_1_"
       gradientUnits="userSpaceOnUse"
       x1="171.8584"
       y1="373.82239"
       x2="570.73853"
       y2="-25.0576"
       gradientTransform="matrix(0.14543415,0,0,-0.14543415,377.12019,-0.58681506)">
      <stop
         offset="0"
         style="stop-color:#035000;stop-opacity:1"
         id="stop3833" />
      <stop
         offset="1"
         style="stop-color:#033d00;stop-opacity:1"
         id="stop3835" />
    </linearGradient>
    <linearGradient
       id="SVGID_2_"
       gradientUnits="userSpaceOnUse"
       x1="447.2291"
       y1="259.543"
       x2="178.84911"
       y2="259.543"
       gradientTransform="matrix(0.14543415,0,0,-0.14543415,377.12019,-0.58681506)">
      <stop
         offset="0"
         style="stop-color:#035200;stop-opacity:0"
         id="stop3840" />
      <stop
         offset="1"
         style="stop-color:#035000;stop-opacity:1"
         id="stop3842" />
    </linearGradient>
    <linearGradient
       id="SVGID_3_"
       gradientUnits="userSpaceOnUse"
       x1="175.201"
       y1="366.76501"
       x2="393.26111"
       y2="148.705"
       gradientTransform="matrix(0.14543415,0,0,-0.14543415,377.12019,-0.58681506)">
      <stop
         offset="0"
         style="stop-color:#035000;stop-opacity:1"
         id="stop3847" />
      <stop
         offset="1"
         style="stop-color:#034700;stop-opacity:1"
         id="stop3849" />
    </linearGradient>
    <linearGradient
       id="SVGID_4_-7"
       gradientUnits="userSpaceOnUse"
       x1="427.87909"
       y1="259.543"
       x2="159.679"
       y2="259.543"
       gradientTransform="matrix(0.14543415,0,0,-0.14543415,377.12019,-0.58681506)">
      <stop
         offset="0"
         style="stop-color:#61DB99;stop-opacity:0"
         id="stop3856" />
      <stop
         offset="1"
         style="stop-color:#009E74"
         id="stop3858" />
    </linearGradient>
    <linearGradient
       id="SVGID_5_-7"
       gradientUnits="userSpaceOnUse"
       x1="403.53909"
       y1="163.033"
       x2="301.37909"
       y2="265.19299"
       gradientTransform="matrix(0.14543415,0,0,-0.14543415,56.750601,75.140883)">
      <stop
         offset="0"
         style="stop-color:#61DB99;stop-opacity:0"
         id="stop3863" />
      <stop
         offset="1"
         style="stop-color:#035000;stop-opacity:1"
         id="stop3865" />
    </linearGradient>
    <linearGradient
       id="SVGID_6_-4"
       gradientUnits="userSpaceOnUse"
       x1="272.53448"
       y1="297.08301"
       x2="272.53448"
       y2="178.673"
       gradientTransform="matrix(0.14543415,0,0,-0.14543415,56.750601,75.140883)">
      <stop
         offset="0"
         style="stop-color:#ffc300;stop-opacity:1"
         id="stop3870" />
      <stop
         offset="1"
         style="stop-color:#FFE600"
         id="stop3872" />
    </linearGradient>
    <clipPath
       id="clipPath914-4"
       clipPathUnits="userSpaceOnUse">
      <path
         id="path912-8-8"
         d="m 8342.61,2598.16 59.16,204.09 300.17,-74.66 -94.58,-34.07 -197.48,49.12 -2.72,-10.92 181.14,-45.06 -55.24,-19.9 -134.22,33.38 -16.09,-64.67 37.52,-9.34 -77.66,-27.97 m 519.79,187.23 -384.16,95.56 c 10.44,3.16 21.41,4.83 32.58,4.83 9.04,0 18.22,-1.09 27.37,-3.37 l 351.1,-87.33 -26.89,-9.69" />
    </clipPath>
    <linearGradient
       id="linearGradient920-8"
       spreadMethod="pad"
       gradientTransform="matrix(468.695,-116.585,-116.585,-468.695,8381.61,2754.92)"
       gradientUnits="userSpaceOnUse"
       y2="0"
       x2="1"
       y1="0"
       x1="0">
      <stop
         id="stop916-7"
         offset="0"
         style="stop-opacity:1;stop-color:#8a6cff" />
      <stop
         id="stop918-1"
         offset="1"
         style="stop-opacity:1;stop-color:#614cd4" />
    </linearGradient>
    <clipPath
       id="clipPath930-9"
       clipPathUnits="userSpaceOnUse">
      <path
         id="path928-2-3"
         d="m 8701.94,2727.59 -300.17,74.66 0.56,1.93 c 11.04,38.09 40.43,66.03 75.91,76.77 l 384.16,-95.56 -160.46,-57.8" />
    </clipPath>
    <linearGradient
       id="linearGradient936-1"
       spreadMethod="pad"
       gradientTransform="matrix(468.695,-116.585,-116.585,-468.695,8381.61,2754.92)"
       gradientUnits="userSpaceOnUse"
       y2="0"
       x2="1"
       y1="0"
       x1="0">
      <stop
         id="stop932-1"
         offset="0"
         style="stop-opacity:1;stop-color:#462a96" />
      <stop
         id="stop934-4"
         offset="1"
         style="stop-opacity:1;stop-color:#311e69" />
    </linearGradient>
    <clipPath
       id="clipPath946-9"
       clipPathUnits="userSpaceOnUse">
      <path
         id="path944-5"
         d="m 8588.3,2686.66 -181.14,45.06 2.72,10.92 197.48,-49.12 -19.06,-6.86" />
    </clipPath>
    <clipPath
       id="clipPath962-9"
       clipPathUnits="userSpaceOnUse">
      <path
         id="path960-3"
         d="m 8420.27,2626.13 -37.52,9.34 16.09,64.67 134.22,-33.38 -112.79,-40.63" />
    </clipPath>
    <clipPath
       id="clipPath702-7-4"
       clipPathUnits="userSpaceOnUse">
      <path
         id="path700-5-0"
         d="m 5093.61,15009.7 c -136.48,0 -260.11,21.5 -323.59,28.6 v 0 c 63.48,-7.1 187.11,-28.6 323.59,-28.6 v 0 m -593.33,118.7 c 0.77,25.5 4.03,47.7 8.47,66.5 v 0 c -4.44,-18.8 -7.7,-41 -8.47,-66.5" />
    </clipPath>
  </defs>
  <sodipodi:namedview
     inkscape:current-layer="layer1"
     inkscape:window-maximized="0"
     inkscape:window-y="28"
     inkscape:window-x="0"
     inkscape:cy="87.56921"
     inkscape:cx="89.036945"
     inkscape:zoom="1.7158451"
     inkscape:snap-nodes="false"
     inkscape:showpageshadow="false"
     showgrid="false"
     id="namedview899"
     inkscape:window-height="740"
     inkscape:window-width="1366"
     inkscape:pageshadow="2"
     inkscape:pageopacity="0"
     guidetolerance="10"
     gridtolerance="10"
     objecttolerance="10"
     borderopacity="1"
     bordercolor="#666666"
     pagecolor="#ffffff" />
  <!-- Created with Method Draw - http://github.com/duopixel/Method-Draw/ -->
  <path
     d="M 122.12442,60.993236 30.068613,27.586165 C 25.457266,25.914417 20.361584,28.295974 18.688035,32.90695 L 0.65088523,82.612656 C -1.0227708,87.225169 1.3589972,92.319578 5.971776,93.991696 l 92.057539,33.407124 c 4.609285,1.67333 9.705175,-0.70843 11.378625,-5.31931 l 18.03731,-49.705803 c 1.67365,-4.612512 -0.70833,-9.706922 -5.32083,-11.380471"
     style="fill:#3497fd;fill-opacity:1;fill-rule:nonzero;stroke:none;stroke-width:0.154169"
     id="path36196" />
  <g
     id="g36230"
     transform="matrix(0.15247766,0.01746818,0.01746818,-0.15247766,-1309.2836,315.40744)">
    <g
       id="g36228"
       clip-path="url(#clipPath962)" />
  </g>
  <path
     sodipodi:nodetypes="ccccccccccccccccccccccccccccccccccccccccccccccccccccccccccccccccccccccccccccccccccccccccccccccccccccccccccccccccccccccccccccccccccccccccccccccccccccccccccccccccccccccccccccccccccccccccccccccccccccccccccccccccccccccccccccccccccccccccc"
     id="path22-9"
     style="clip-rule:evenodd;fill:#ffffff;fill-opacity:1;fill-rule:nonzero;stroke:none;stroke-width:0.0154816;image-rendering:optimizeQuality;shape-rendering:geometricPrecision;text-rendering:geometricPrecision"
     d="M 125.87263,75.546501 C 108.53594,69.312207 91.196227,63.081786 73.860097,56.845927 72.958108,56.401976 71.990659,56.118105 71.062126,55.741659 70.445617,55.375686 69.721373,55.258 69.086628,54.932984 68.565806,54.666935 67.997552,54.511968 67.4613,54.283097 c -2.139217,-0.924996 -4.300114,-1.823244 -6.414594,-2.811418 -2.419491,-1.063436 -4.602359,-2.568382 -6.939227,-3.78908 -2.621953,-1.44788 -5.469678,-2.425734 -8.37444,-3.140315 -1.338235,-0.305527 -2.816239,-0.585882 -4.12416,-0.01358 -0.609304,0.227107 -1.01854,0.87734 -0.963825,1.517131 0.201299,0.946829 0.941618,1.669014 1.734231,2.177115 0.513817,0.379931 1.183876,0.437427 1.719953,0.779078 0.765516,0.329373 1.586151,0.530797 2.329587,0.916242 2.644843,1.052585 5.383534,1.886192 8.186809,2.408392 0.136624,0.03746 0.274818,0.07578 0.4123,0.1155 0.939771,0.165717 1.87217,0.369538 2.807352,0.55645 3.609034,0.787272 7.123301,1.948949 10.651149,3.002302 1.439742,0.49302 2.893415,0.943434 4.350526,1.380344 17.580053,6.323493 35.162329,12.641092 52.743009,18.963145 l -1.59637,4.347691 C 105.46132,74.02498 86.928357,67.386824 68.412422,60.70234 68.179146,60.562868 67.93394,60.446671 67.698191,60.314325 c -0.562258,-0.25262 -1.107468,-0.53759 -1.660673,-0.805393 -3.428509,-1.742777 -6.799596,-3.624053 -10.384106,-5.040668 -1.08748,-0.564832 -2.321337,-0.790217 -3.406579,-1.360837 -4.714974,-1.71626 -9.440599,-3.398931 -14.161497,-5.099307 -1.364278,-0.319881 -2.626813,-0.957656 -3.992367,-1.274548 -1.406168,-0.494062 -2.915589,-1.153166 -4.430906,-0.74642 -0.817685,0.168637 -1.652315,0.838213 -1.616074,1.730555 0.0388,0.916328 0.778012,1.578973 1.479953,2.072532 1.421103,0.9489 3.098465,1.389577 4.682731,1.988642 1.74722,0.790534 3.594022,1.341226 5.387148,2.020365 1.985136,0.746483 4.022372,1.364043 5.959939,2.226304 3.251002,1.153973 6.470894,2.401807 9.804297,3.299937 0.643354,0.198388 1.292235,0.385861 1.948993,0.538275 1.456149,0.398792 2.925488,0.743301 4.394453,1.08927 0.404047,0.09754 0.81163,0.190071 1.221087,0.273351 0.861088,0.217595 1.728891,0.403374 2.594032,0.601155 0.136204,0.0343 0.271977,0.07 0.409706,0.104706 2.29228,0.414008 4.380063,1.484476 6.619826,2.073094 9.059994,3.255479 18.119704,6.515802 27.181645,9.770337 0.391411,0.132218 0.803531,0.198501 1.192481,0.346721 7.499,2.700897 15.00268,5.39354 22.50264,8.091481 l -1.56957,4.275346 -46.896864,-16.859739 c -0.869506,-0.284676 -1.709042,-0.647251 -2.527498,-1.048104 -2.556243,-1.119172 -5.07225,-2.328823 -7.630303,-3.446983 -2.06916,-0.958741 -4.15914,-1.874164 -6.268276,-2.742319 -3.305841,-1.428001 -6.66413,-2.740341 -10.070688,-3.925634 -1.985812,-0.879643 -4.072271,-1.516542 -6.105417,-2.28026 -3.406563,-1.226367 -6.817012,-2.445808 -10.222737,-3.678443 -0.227551,-0.08309 -0.460666,-0.150967 -0.701224,-0.184816 -0.913872,-0.280963 -1.796298,-0.65217 -2.705504,-0.946357 -1.491015,-0.344104 -2.887904,-1.174382 -4.460732,-1.106564 -0.958677,0.0032 -2.014391,0.401197 -2.388981,1.34932 -0.105833,0.518083 0.01031,1.084729 0.357404,1.495026 0.763298,0.970022 1.922679,1.537773 3.061793,1.962039 1.290384,0.606626 2.681252,0.989685 4.013076,1.501779 2.37882,1.015983 4.853327,1.798923 7.278631,2.702035 2.337537,0.840377 4.675652,1.679254 7.012625,2.521046 2.458895,1.108804 5.080042,1.793591 7.629404,2.660816 5.680736,1.733886 11.404604,3.347024 17.127515,4.948374 1.908523,0.56307 3.814804,1.127031 5.716636,1.704085 8.18176,2.944713 16.365648,5.883614 24.547936,8.826828 1.028282,0.356468 2.034254,0.778904 3.095014,1.033918 6.52882,2.338969 13.0522,4.692393 19.57941,7.035597 l -1.51649,4.130444 C 104.34156,86.592678 88.904634,81.039648 73.465601,75.492562 72.153714,75.07018 70.97733,74.342108 69.720706,73.791897 69.306792,73.572501 68.883885,73.372928 68.460459,73.174761 68.046056,72.957162 67.623681,72.755845 67.198913,72.557167 66.785,72.337771 66.360557,72.137658 65.936704,71.941012 65.011159,71.470506 64.070908,71.027408 63.123207,70.599762 60.782689,69.492553 58.396139,68.475173 55.978312,67.547114 55.09858,67.060242 54.078837,66.892149 53.18879,66.424527 51.697241,65.793159 50.116039,65.383806 48.652423,64.685401 42.422436,62.442348 36.191904,60.20577 29.961995,57.962763 c -0.179702,-0.05981 -0.363532,-0.104355 -0.551686,-0.132917 -1.502503,-0.474571 -2.947963,-1.118917 -4.477154,-1.507872 -1.004084,-0.418346 -2.068416,-0.650083 -3.086347,-1.025898 -1.026151,-0.295115 -2.187937,-0.401065 -3.167168,0.108422 -0.706175,0.302316 -1.175482,1.170399 -0.890328,1.902866 0.386049,1.047674 1.41552,1.667146 2.372101,2.142299 0.964572,0.512444 2.053868,0.730184 3.024582,1.230276 1.626078,0.656779 3.330741,1.121907 4.921307,1.866054 1.750449,0.637443 3.507009,1.254109 5.256345,1.89458 0.932149,0.456556 1.928006,0.762069 2.900752,1.121616 1.851712,0.66406 3.703101,1.332993 5.557161,1.994544 1.990812,0.874848 4.075781,1.529246 6.119624,2.277142 1.144648,0.247531 2.193437,0.796503 3.330695,1.072744 4.536972,1.462079 9.125538,2.783549 13.734648,4.027162 1.434293,0.422144 2.888094,0.782404 4.331455,1.179874 0.365268,0.07728 0.719982,0.201319 1.08655,0.279062 2.250685,0.513858 4.379207,1.410273 6.554273,2.165997 7.06036,2.539874 14.122749,5.073884 21.18138,7.618152 2.434725,0.70632 4.785975,1.671364 7.183505,2.497227 l 13.87757,4.989042 -1.43667,3.913033 C 103.07796,92.290685 88.373665,86.999413 73.663988,81.717838 72.848136,81.449081 72.127379,80.975105 71.354414,80.612149 70.984586,80.41687 70.613568,80.229148 70.238336,80.048478 69.409866,79.611141 68.555897,79.225357 67.71511,78.813182 67.255401,78.569208 66.784061,78.348898 66.308657,78.143469 64.62918,77.344473 62.924799,76.603757 61.205146,75.900224 c -0.772344,-0.405568 -1.643484,-0.577692 -2.413205,-0.985667 -0.939699,-0.413255 -1.950302,-0.65187 -2.865876,-1.122168 -2.128661,-0.832492 -4.336421,-1.476912 -6.424496,-2.406422 -7.89076,-2.831855 -15.776994,-5.671962 -23.665135,-8.506116 -0.471198,-0.16285 -0.928526,-0.37649 -1.423422,-0.447768 -1.157769,-0.355533 -2.26388,-0.864761 -3.445645,-1.141924 -1.352111,-0.49273 -2.791834,-1.09392 -4.259574,-0.771799 -0.789025,0.108458 -1.542822,0.670832 -1.699921,1.472395 -0.125852,0.671659 0.32804,1.25976 0.758284,1.722822 0.829319,0.777234 1.890121,1.243917 2.948213,1.627538 1.320561,0.655187 2.795782,0.952586 4.115703,1.614178 1.312045,0.502917 2.646308,0.949681 3.964267,1.436657 2.16113,0.991804 4.495253,1.566869 6.659018,2.556371 2.619355,0.982745 5.297722,1.817606 7.871131,2.916638 2.637444,0.933457 5.263459,1.906992 7.90723,2.827943 1.057204,0.219247 2.02213,0.735094 3.071251,0.986015 4.173481,1.357684 8.376327,2.648826 12.620884,3.785902 0.827567,0.277926 1.68433,0.453012 2.522514,0.69694 0.55778,0.125141 1.110268,0.277612 1.661325,0.434813 0.460172,0.09302 0.915871,0.207909 1.370039,0.326724 0.83444,0.2002 1.681291,0.361546 2.505436,0.598807 7.993146,2.868632 15.981437,5.745449 23.973972,8.615544 1.45339,0.375001 2.837774,0.964401 4.255671,1.449535 l 15.93315,5.728074 c -0.50706,1.376234 -1.01011,2.755604 -1.5184,4.131314 -15.53328,-5.587567 -31.068676,-11.169377 -46.604067,-16.756111 -0.41801,-0.15828 -0.812047,-0.369216 -1.208188,-0.573742 -0.602984,-0.285496 -1.203831,-0.577195 -1.806764,-0.862849 -0.414611,-0.217827 -0.836787,-0.418933 -1.260209,-0.61712 -0.414503,-0.217826 -0.838314,-0.419505 -1.261635,-0.617647 -0.882935,-0.442104 -1.772545,-0.870198 -2.667948,-1.287203 -0.506643,-0.26417 -1.024911,-0.501421 -1.551473,-0.720203 -1.309581,-0.626683 -2.638998,-1.212857 -3.984746,-1.759029 -1.083229,-0.491151 -2.194399,-0.928294 -3.308153,-1.35009 -0.881589,-0.485894 -1.901386,-0.654004 -2.79148,-1.121655 -1.221284,-0.516091 -2.501525,-0.88455 -3.72956,-1.386753 -0.336968,-0.208124 -0.717492,-0.325225 -1.08762,-0.456672 -6.289696,-2.251351 -12.569808,-4.52873 -18.862767,-6.771445 -1.554267,-0.370105 -2.989037,-1.110676 -4.539639,-1.49094 -0.740639,-0.198823 -1.425897,-0.580161 -2.18532,-0.705265 -1.080254,-0.400147 -2.236679,-0.790986 -3.403082,-0.550749 -0.708628,0.155186 -1.521512,0.504609 -1.72722,1.267362 -0.225583,0.479944 -0.02335,1.017131 0.246551,1.432197 0.589327,0.845189 1.515735,1.38493 2.452671,1.779158 0.894028,0.460841 1.903958,0.651669 2.794258,1.127594 1.313024,0.504746 2.64622,0.954575 3.967227,1.437674 1.937016,0.863742 3.977748,1.4809 5.965292,2.224834 3.379962,1.438338 6.93865,2.438842 10.31744,3.879914 1.421437,0.497826 2.830662,1.028923 4.255194,1.518357 1.193788,0.261552 2.289994,0.834744 3.475173,1.124608 3.993882,1.288172 8.024107,2.477799 12.073861,3.59576 1.297544,0.371495 2.598652,0.732477 3.904983,1.075827 0.599198,0.169499 1.196359,0.344575 1.804817,0.484772 1.266298,0.361732 2.5468,0.67114 3.817444,1.021344 8.138562,2.922494 16.276102,5.848 24.412561,8.776478 2.042634,0.571927 4.005488,1.387452 6.00991,2.076909 l 15.925709,5.725475 -1.43668,3.91292 C 97.757264,103.17418 81.882133,97.463601 66.004834,91.758964 65.498572,91.570307 65.023053,91.315756 64.522095,91.117612 64.190016,90.940885 63.837149,90.812076 63.505975,90.637469 56.883634,87.697286 50.261758,84.742459 43.521989,82.086465 42.448463,81.564398 41.270072,81.296626 40.186618,80.802095 39.699709,80.551587 39.173565,80.390234 38.661207,80.204437 L 24.931113,75.268479 c -1.451265,-0.556183 -2.963392,-0.924323 -4.408527,-1.501229 -1.425795,-0.323972 -2.741123,-1.097083 -4.23293,-1.114978 -0.894091,-6.66e-4 -1.952814,0.201901 -2.445885,1.026988 -0.479473,0.647895 -0.131323,1.519514 0.356954,2.054337 0.737739,0.747565 1.675525,1.288069 2.664026,1.640266 1.610345,0.726616 3.305028,1.245543 4.961306,1.860698 2.565661,1.092995 5.234736,1.931168 7.848429,2.906839 2.520721,0.940642 5.096574,1.748604 7.569278,2.806613 2.425881,0.847513 4.821649,1.803907 7.302559,2.47434 0.983997,0.32437 1.974233,0.640864 2.973676,0.909971 0.74419,0.224563 1.486338,0.460489 2.24308,0.642362 1.388843,0.428691 2.79506,0.801311 4.197484,1.184194 3.327335,0.941818 6.678932,1.803916 9.997384,2.778712 1.890623,0.512352 3.711159,1.234044 5.555704,1.885691 l 19.867699,7.142577 c 0.469597,0.16263 0.927468,0.37439 1.42472,0.44829 7.434419,2.6285 14.84341,5.33135 22.2684,7.98599 -0.50251,1.37785 -1.01158,2.75502 -1.51552,4.13235 L 56.324343,94.674734 C 54.867782,94.205328 53.551653,93.407272 52.178944,92.74974 51.617132,92.455818 51.049956,92.171609 50.495746,91.865735 50.038556,91.628959 49.588107,91.378581 49.121595,91.158406 47.928229,90.525956 46.71851,89.915472 45.487653,89.358172 44.185292,88.752141 42.86755,88.174683 41.510331,87.700189 40.724567,87.304595 39.879839,87.046815 39.054998,86.743768 L 26.210251,82.125983 c -0.535053,-0.191274 -1.060896,-0.407717 -1.617162,-0.532153 -0.988812,-0.244189 -1.896928,-0.747658 -2.897738,-0.945097 -1.174563,-0.37299 -2.325926,-0.939564 -3.590366,-0.89204 -0.870961,-0.0065 -1.832987,0.31724 -2.31513,1.080594 -0.342321,0.549561 -0.138027,1.249693 0.196165,1.753789 0.765495,0.969084 1.914109,1.547719 3.055291,1.971058 1.926964,0.886511 4.011825,1.38814 5.9332,2.28565 4.383207,1.57904 8.768555,3.152264 13.152402,4.730079 0.964787,0.309144 1.889179,0.759437 2.882826,0.972353 0.832513,0.28591 1.67254,0.556894 2.532319,0.751259 1.497713,0.438325 3.020144,0.79212 4.541883,1.142308 0.403626,0.09904 0.811727,0.190097 1.219068,0.274427 0.404429,0.100994 0.813215,0.190528 1.222036,0.27522 0.860518,0.219388 1.73005,0.400394 2.592941,0.604072 0.45465,0.117248 0.909406,0.234848 1.372816,0.3196 2.039477,0.660999 4.012472,1.521306 6.081774,2.087959 8.665271,3.118569 17.333642,6.233339 26.000022,9.348929 0.972419,0.33821 1.926201,0.74003 2.932877,0.97563 7.166345,2.56657 14.327145,5.15231 21.492925,7.72035 -0.53537,1.4759 -1.08142,2.94968 -1.62125,4.4241 l -46.460104,-16.7027 c -2.742083,-0.99922 -5.51202,-1.92756 -8.204839,-3.04823 -1.082553,-0.49266 -2.196614,-0.922502 -3.306325,-1.354364 C 48.541129,98.148749 45.652808,96.9528 42.866008,95.552288 41.346588,94.72711 39.843067,93.871634 38.313739,93.064184 37.811484,92.801655 37.309,92.543892 36.796826,92.303923 36.07693,91.927064 35.321806,91.627717 34.558284,91.351601 33.314992,90.69298 31.906195,90.485072 30.616797,89.942799 29.586879,89.68084 28.606211,89.270775 27.573252,89.025765 c -1.012072,-0.09462 -2.182101,-0.06609 -2.963419,0.670358 -0.633642,0.554664 -0.671062,1.54853 -0.242999,2.234024 0.674911,1.148263 1.847079,1.905887 3.033692,2.462123 0.454577,0.248712 0.923335,0.471345 1.40544,0.66765 2.503969,1.170856 5.183805,1.97523 7.922822,2.388945 1.734686,0.279279 3.470396,0.551987 5.207646,0.810743 2.165057,0.499502 4.301887,1.11171 6.441311,1.698888 3.152417,0.936434 6.280666,1.937984 9.406882,2.950324 17.088636,6.14849 34.18197,12.28872 51.273203,18.43478"
     inkscape:export-xdpi="91.790001"
     inkscape:export-ydpi="91.790001" />
  <g
     transform="matrix(0.13415115,0,0,0.13415115,59.931923,0.16688462)"
     id="g10520">
    <path
       style="fill:#023e00;fill-opacity:1"
       d="M 269.6,8.4 254,0 238.4,8.4 C 165.3,47.8 83.4,68.4 0,68.4 V 186.7 C 0,338.4 104.6,470.6 254,508 v 0 0 C 403.4,470.6 508,338.4 508,186.8 V 68.5 C 424.7,68.5 342.7,47.8 269.6,8.4 Z"
       id="path10459" />
    <path
       style="fill:#035000;fill-opacity:1"
       d="M 254,464.2 C 128.8,428.2 42.3,315.6 42.3,186.8 v -77.6 c 73.9,-5.8 146.2,-26.6 211.7,-61.1 65.5,34.5 137.8,55.3 211.7,61.1 v 77.6 c 0,128.8 -86.5,241.4 -211.7,277.4 z"
       id="path10461" />
    <g
       id="g10465">
</g>
    <g
       id="g10467">
</g>
    <g
       id="g10469">
</g>
    <g
       id="g10471">
</g>
    <g
       id="g10473">
</g>
    <g
       id="g10475">
</g>
    <g
       id="g10477">
</g>
    <g
       id="g10479">
</g>
    <g
       id="g10481">
</g>
    <g
       id="g10483">
</g>
    <g
       id="g10485">
</g>
    <g
       id="g10487">
</g>
    <g
       id="g10489">
</g>
    <g
       id="g10491">
</g>
    <g
       id="g10493">
</g>
    <g
       transform="matrix(8.4063481,0,0,8.4063481,1150.4576,1373.6529)"
       inkscape:label="Layer 1"
       id="layer1">
      <path
         d="m -106.34202,-150.19005 c 6.643713,-0.0563 13.613915,3.34425 16.524307,9.53054 2.378372,4.85481 1.175876,10.98593 -2.561388,14.81686 -1.065409,0.80508 -1.91628,1.91952 -1.670503,3.31606 -0.0565,1.19814 0.119071,2.42959 -0.09914,3.60488 -1.419425,1.23313 -3.259339,-0.90345 -4.818148,-1.22554 -1.596418,-1.09473 -3.390338,-0.20755 -5.105628,-0.0644 -6.98983,0.82552 -14.71696,-2.17926 -18.3138,-8.43994 -2.72463,-4.61416 -2.12802,-10.81225 1.3088,-14.90322 3.51154,-4.39302 9.19159,-6.65262 14.7355,-6.6353 z"
         style="fill:none;fill-opacity:1;stroke:#ffffff;stroke-width:2.29831;stroke-miterlimit:4;stroke-dasharray:none;stroke-opacity:1;opacity:0.5"
         id="path11271" />
      <g
         transform="matrix(0.54074433,0,0,0.54074433,-174.46462,-27.679497)"
         id="g11279">
        <g
           inkscape:export-ydpi="91.790001"
           inkscape:export-xdpi="91.790001"
           aria-label="пе"
           transform="matrix(2.6001613,0,0,2.6001613,9046.603,-3001.8834)"
           id="g11275"
           style="font-style:normal;font-variant:normal;font-weight:normal;font-stretch:normal;font-size:35.2511px;line-height:1.45;font-family:Aviny;-inkscape-font-specification:Aviny;text-align:end;text-anchor:end;white-space:pre;shape-inside:url(#rect3271);fill:#035000;fill-opacity:1;stroke:#035000;stroke-width:0.425717;stroke-miterlimit:4;stroke-dasharray:none;stroke-opacity:1">
          <path
             id="path11273"
             style="font-style:normal;font-variant:normal;font-weight:normal;font-stretch:normal;font-size:35.25110000000000099px;font-family:Aviny;-inkscape-font-specification:Aviny;fill:#ffffff;fill-opacity:1;stroke:#ffffff;stroke-width:0.28606;stroke-miterlimit:4;stroke-dasharray:none;stroke-opacity:1;opacity:0.5"
             d="m -3422.8493,1075.6244 c 0.2119,1.6371 -0.7776,3.2159 -2.1392,4.0586 -2.1384,1.4447 -4.8182,1.7429 -7.3378,1.6617 -2.201,-0.1197 -4.5302,-0.8305 -5.9983,-2.5624 -0.8149,-0.9875 -1.005,-2.4888 -0.2724,-3.5752 0.9707,-1.5081 2.8044,-2.0718 4.4778,-2.3606 1.4605,-0.2447 2.9872,-0.2266 4.4084,0.2198 0.4596,0.6251 -0.8825,0.6135 -1.2928,0.6562 -1.8881,0.2044 -3.9226,0.3363 -5.5089,1.499 -0.7425,0.5285 -0.8788,1.6554 -0.1728,2.2771 1.076,1.1982 2.7892,1.3829 4.3023,1.5103 2.1694,0.149 4.4383,-0.052 6.407,-1.0354 0.7913,-0.4421 1.4344,-1.2872 1.3393,-2.2317 0.064,-0.6413 0.8744,-1.308 1.4673,-0.8434 0.2092,0.1811 0.2789,0.4641 0.3201,0.726 z" />
        </g>
        <path
           inkscape:export-ydpi="91.790001"
           inkscape:export-xdpi="91.790001"
           d="m 130.10735,-183.54072 a 4.8996147,4.8996147 0 0 1 -4.89682,4.90011 4.8996147,4.8996147 0 0 1 -4.90501,-4.90011 4.8996147,4.8996147 0 0 1 4.90501,-4.89928 4.8996147,4.8996147 0 0 1 4.89682,4.89928 z"
           style="fill:#ffffff;fill-opacity:1;stroke:none;stroke-width:1.03713;stroke-linecap:round;stroke-linejoin:round;stroke-miterlimit:4;stroke-dasharray:none;stroke-opacity:1;paint-order:markers fill stroke;opacity:0.5"
           id="path11277" />
      </g>
    </g>
  </g>
</svg>
