<svg width="700" height="700" version="1.1" xmlns="http://www.w3.org/2000/svg"><defs><style>@keyframes anim-noq {
                0% {
                    transform: translate(-185px, -167px)
                }

                to {
                    transform: translate(-145px, -167px)
                }
            }</style></defs><g transform="translate(-174 -165)"><g id="prefix__body_1_"><g id="prefix__body_2_"><path id="prefix__body_6_" d="m630 617c-33.1-69-101-123-180-123-79.3 0-147 54.3-180 123-33.1 69-33.1 152-33.1 152 72.1 48.7 213 52.6 213 52.6s141-3.89 213-52.6c-5e-3 1e-3 -0.037-82.6-33.1-152z" fill="#986844"/><g fill="#895d3d"><path d="m324 804c-82.1-74.2-31.1-206-31.1-206l23.8-33.1s-8.01 2.64-15.6 4.85a237 237 0 0 0-30.6 47.9c-30.8 64.3-33 140-33.1 150v0.054l-4e-3 0.347v0.063a10.9 10.9 0 0 0-3e-3 0.244l-1e-3 0.102v0.331c23.8 16.1 55.2 27.3 86.5 35.1z"/><path d="m577 804c82.1-74.2 31.1-206 31.1-206l-23.8-33.1s8.02 2.64 15.6 4.85a237 237 0 0 1 30.5 47.9c30.8 64.3 33 140 33.1 150l1e-3 0.059c3e-3 0.128 3e-3 0.238 6e-3 0.343v0.064c2e-3 0.09 2e-3 0.172 2e-3 0.244l2e-3 0.103 1e-3 0.134v0.196c-23.8 16.1-55.2 27.3-86.5 35.1z"/></g></g><g id="prefix__belly_2_"><path d="m450 658c-90.8 0-170 25.7-209 63.5-3.73 27.7-3.74 47-3.74 47 72.1 48.7 213 52.6 213 52.6s141-3.89 213-52.6c0 0-0.01-19.2-3.73-46.9-39.8-37.8-119-63.6-210-63.6z" fill="#b78563"/><g id="prefix__belly_shadow_1_" fill="#a57859"><path d="m323 804s-43.2-33.4-46.5-108c0 0-26.3 14.4-36.3 25.6-3.73 27.7-3.73 46.9-3.73 46.9 23.8 16.1 55.2 27.3 86.5 35.1-2e-3 0-2e-3 0 0 0z"/><path d="m577 804s43.2-33.4 46.5-108c0 0 26.3 14.4 36.3 25.6 3.72 27.7 3.73 46.9 3.73 46.9-23.8 16.1-55.2 27.3-86.5 35.1z"/></g></g></g><g id="prefix__legs_2_"><g id="prefix__leg_4_"><path d="m361 715v-3e-3c-12.2-22.1-38.3-37.4-68.4-37.4-41.9 0-75.8 29.5-75.8 65.9 0 32 26 60.9 60 66.1 34 5.23 100 4.68 100 4.68 16.3-11.9-1.99-74.5-15.9-99.2z" fill="#986844"/><g id="prefix__shadow_6_" fill="#895d3d"><path d="m293 810c-95.1-56.2-16-131-16-131-34.2 6.38-59.8 32.8-59.8 64.4 0 32 26 60.8 60 66.1 5.27 0.812 11.3 1.48 17.8 2.04-0.619-0.369-1.25-0.745-1.9-1.13z"/><ellipse transform="rotate(240 278 783)" cx="278" cy="783" rx="26.6" ry="23.8"/></g><ellipse transform="rotate(240 281 789)" cx="281" cy="789" rx="26.6" ry="23.8" fill="#7a5336"/><ellipse transform="rotate(240 284 794)" cx="284" cy="794" rx="16.1" ry="14.4" fill="#af7146"/></g><g id="prefix__leg_2_"><path d="m540 715c0-2e-3 0-2e-3 3e-3 -3e-3 12.2-22.1 38.3-37.4 68.4-37.4 41.9 0 75.8 29.5 75.8 65.9 0 32-26 60.9-60 66.1-34 5.23-100 4.68-100 4.68-16.3-11.9 2-74.5 15.9-99.2z" fill="#986844"/><g id="prefix__shadow_5_" fill="#895d3d"><path d="m609 810c95.1-56.2 16-131 16-131 34.2 6.38 59.8 32.8 59.8 64.4 0 32-26 60.8-60 66.1-5.27 0.812-11.3 1.48-17.8 2.04 0.62-0.369 1.25-0.745 1.9-1.13z"/><ellipse transform="rotate(120 624 783)" cx="624" cy="783" rx="26.6" ry="23.8"/></g><ellipse transform="rotate(120 621 789)" cx="621" cy="789" rx="26.6" ry="23.8" fill="#7a5336"/><ellipse transform="rotate(120 618 794)" cx="618" cy="794" rx="16.1" ry="14.4" fill="#af7146"/></g></g></g><path id="prefix__box" d="m131 482h265v199h-265z" fill="#9a4121" style="fill:#cba677"/><path d="m299 681h99.5v-99.5z" opacity=".1"/><g id="prefix__arm_7_" transform="translate(-174 -165)"><path id="prefix__arm_8_" d="m661 636c27 52.5 18.4 64.4 0.904 88.6-6.29 8.72-65 61.4-139 61.4 0-51.3 32.9-126 32.9-126s63.9-105 105-23.8z" fill="#986844"/><path d="m522 786c74.3 0 133-52.7 139-61.4 17.5-24.2 26.1-36.1-0.905-88.6a108 108 0 0 0-1.59-2.96c0.083 0.797 9.56 97-137 153z" opacity=".1"/></g><g id="prefix__npm_-_wombat_-_face_1_" transform="translate(-174 -165)"><path d="m381 304c-62.9 63.3-98 155-98 155 10.3 36.9 35.9 68.1 64.8 93.1-5e-3 -9e-3 -0.011-0.018-0.015-0.028 54.4 47 121 72.1 121 72.1s66.2 25.8 138 27.3l-7e-3 3e-3c6.46 0.139 12.9 0.078 19.4-0.218 31.7-1.45 64-8.36 91.1-25.6 1.43-3.75 2.72-7.54 3.99-11.3 7.85-23.5 14.1-47.7 18.7-72 6.27-32.9 9.76-66.6 7.72-100-1.96-31.9-9.11-63.7-21.8-93.1 1.59-9.66 5.55-39.9-1.51-68.3l-36.3 7.96c-16.8-19-37.1-34.8-60.1-45.5-30.5-14.2-64.5-19-97.9-15.1l0.013-0.012v-5e-3h2e-3 -2e-3l-21.6-30.2c-24.3 16.4-41.6 41.6-46.8 49.8-29.5 13.5-57.1 33-80.6 56.7-62.9 63.3 23.5-23.6 0 0z" opacity=".1"/><g id="prefix__ears_1_"><g id="prefix__ear_3_"><path d="m462 237 42.7 4.38 27.5-26.7-21.6-30.2c-29.3 19.8-48.5 52.5-48.5 52.5z" fill="#986844"/><path d="m532 215-6.24 6.06-20.8 2.09 5.35-38.3z" fill="#895d3d"/></g><g id="prefix__ear_2_"><path d="m727 339-34.7-25.3-2.58-38.2 36.3-7.96c8.54 34.4 0.946 71.5 0.943 71.5z" fill="#986844"/><path d="m690 276 0.583 8.68 14 15.4 21.7-32.1z" fill="#895d3d"/></g></g><path id="prefix__head_1_" d="m285 446c29.7 106 186 165 186 165s155 60.6 249 1.54c0 0 35-91.3 30.6-180-4.44-89.2-50.3-176-131-207-80.8-31-173 2.58-236 65.9-62.9 63.3-98 155-98 155z" fill="#986844"/><ellipse id="prefix__nose_1_" transform="rotate(21 484 576)" cx="484" cy="576" rx="68.4" ry="33.1"/><g id="prefix__face_1_"><g id="prefix__eyes_1_"><g id="prefix__eye_2_"><path d="m585 546c7.68 2.95 11.5 11.6 8.57 19.2-2.95 7.68-11.6 11.5-19.2 8.57-7.68-2.95-11.5-11.6-8.57-19.2 2.95-7.68 11.6-11.5 19.2-8.57z" fill="#b78563"/><circle cx="576" cy="562" r="11.1"/><circle cx="576" cy="559" r="3.6" fill="#fff"/></g><g id="prefix__eye_1_"><path d="m428 486c-7.68-2.95-16.3 0.887-19.2 8.56-2.95 7.68 0.889 16.3 8.57 19.2 7.68 2.95 16.3-0.887 19.2-8.56 2.95-7.68-0.89-16.3-8.57-19.2z" fill="#b78563"/><circle cx="424" cy="503" r="11.1"/><circle cx="426" cy="501" r="3.6" fill="#fff"/></g></g></g><path d="m690 276c36.4 41.2 56.9 98.3 59.8 156 4.43 89.2-30.6 180-30.6 180-32.3 20.5-72.2 26.6-110 25.8 39.6-15.9 73-43 73-43 85.8-214 9.76-318 8.24-320zm-158-60.6c-54.6 6.32-108 35-149 76.2-62.9 63.3-98 155-98 155 10.3 36.9 35.9 68.1 64.8 93.1-18.8-38.3-25.5-80.8-25.5-80.8 79.7-217 205-243 208-243z" fill="#895d3d"/></g><g style="animation:1s ease-in-out -.7s infinite alternate-reverse anim-noq"><path d="m270 459c-44.3 21.7-51.8 68.2-42.8 93.1 3.22 8.96 54.9 39.1 128 76 17.4-34.3 10.5-101 10.5-101s-27.3-102-95.5-68.3z" opacity=".1"/><path d="m384 644c-4.28-1.31-15.7-22.1-15.7-22.1l-7.18-2.19c-1.1-2.84-8.84-25-8.12-27.3 0.718-2.35-1.85-3.34-1.85-3.34s-1.52-0.466-4.28-1.31c-2.76-0.842-4.15-4.24-4.48-6.61-0.336-2.37-8.94-5.85-13.1-5.16-4.14 0.699-6.86 3.64-9.69 0.515-2.82-3.13-12-6.38-15.6-7.47-3.59-1.1-14.5-3.66-20.1-2.06-5.63 1.6-6.67 1.28-9.02 0.568-3.38-1.03-3.78-0.548-2-6.35 0.548-1.8 4.6-15.1 6.12-20 1.52-4.97 4.37-7.84 11.5-5.96 7.12 1.87 46.4 17.1 46.4 17.1 2.34 0.914 3.92-0.142 3.92-0.142s5.52-4.72 6.9-6.11 3.16-0.969 3.16-0.969l8.84 2.7s55.1 12 59.3 13.3c4.14 1.26 1.93 8.16 1.93 8.16l-22 72.1c-3.01 1.65-10.7 3.99-15 2.68z" fill="#d38a09"/><path d="m391 554c-2.88 2.31-5.17 5.46-6.33 9.25-3.07 10.1 2.49 20.7 12.5 23.8 7.72 2.36 15.9-0.413 20.3-6.51l-1.74 5.71c-5.05 4.2-12.4 5.69-19.4 3.56-11.6-3.54-17.9-15.8-14.3-27.3a21.8 21.8 0 0 1 5.57-9.2c1.15 0.258 2.25 0.499 3.41 0.757zm31 12.8c0.218-1.9 0.153-4.53-1.57-5.75a19.1 19.1 0 0 1 1.57 5.75z" opacity=".1"/><path d="m367 549c-1.4 2.54-2.63 5.24-3.51 8.12-6.8 22.3 5.62 45.8 27.9 52.6 5.75 1.76 11.7 2.26 17 1.5l8.71-28.5c-3.59 3.55-8.38 5.66-13.5 5.69 2.08-9.6 10.6-12.8 16-14.1l1.58-5.17s2.25-7.01-1.89-8.28c-0.104-0.029-6e-3 2e-3 -0.173-0.046-7.58 1.16-12.2-0.69-15-3.52-12-2.73-28.1-6.31-37.1-8.31zm20.5 10.8c8.33 9.4 5.88 18 2.87 23.1-4.76-4.83-6.79-12-4.68-19a19 19 0 0 1 1.8-4.1z" opacity=".1"/><path d="m360 548c-0.362-0.079-0.509 0.02-0.509 0.02l-8.84-2.7s-1.8-0.426-3.18 0.965c-1.38 1.39-6.9 6.05-6.9 6.05s-1.63 1.07-3.97 0.159c0 0-39.2-15.2-46.4-17.1-7.13-1.87-9.99 1.01-11.5 5.98l-6.12 20c-1.77 5.8-1.38 5.33 2 6.36 2.34 0.718 3.46 1.07 9.09-0.535 5.62-1.6 16.4 0.967 20 2.07 3.59 1.1 12.7 4.38 15.5 7.5 2.82 3.12 5.51 0.253 9.65-0.441 4.14-0.701 12.8 2.64 13.1 5 0.332 2.37 1.71 5.76 4.48 6.6 2.76 0.842 4.28 1.31 4.28 1.31s2.21 0.443 1.85 1.63l0.097-0.316z" fill="#ef9f00"/><path d="m279 541c-0.272 0.884-0.623 2.04-1.02 3.34 24.2 7.01 60.3 20.8 60.3 20.8l15.7-19.2-3.04-0.929s-1.8-0.426-3.18 0.965c-1.38 1.39-6.9 6.05-6.9 6.05s-1.63 1.07-3.96 0.159c0 0-39.2-15.2-46.4-17.1-7.13-1.87-9.99 1.01-11.5 5.98z" fill="#e29000"/><path transform="rotate(262 386 614)" d="m386 592h0.865v45h-0.865z" fill="#e5b486"/><path d="m396 616s-0.928-1.34-3.62-1.41c-2.7-0.071-25.5-2.05-25.5-2.05s-2.84-0.115-3.77 2.92l-1.2 3.91 6.66 2.03s11.7 20.9 16 22.2c2.2 0.672 5.3 0.091 8.14-0.494 0.893-0.95 1.46-2.02 1.46-2.02l2.62-8.56 0.082-0.277 2.58-8.45s0.391-2.6-0.749-4.3-2.68-3.53-2.68-3.53z" opacity=".1"/><path d="m375 616c-8.22-2.52-17 2.13-19.5 10.4-2.51 8.22 2.14 17 10.4 19.5 8.23 2.51 17-2.14 19.5-10.4 2.51-8.22-2.13-17-10.4-19.5zm-0.25 0.825c7.78 2.38 12.2 10.6 9.79 18.4-2.38 7.78-10.6 12.2-18.4 9.79-7.78-2.38-12.2-10.6-9.79-18.4 2.38-7.78 10.6-12.2 18.4-9.78z" fill="#e5b486"/><path d="m375 617c-7.78-2.38-16 2.01-18.4 9.79-2.38 7.78 2.01 16 9.79 18.4 7.78 2.38 16-2.01 18.4-9.79 2.37-7.78-2.01-16-9.79-18.4zm-0.842 2.76c6.24 1.9 9.77 8.54 7.86 14.8-1.91 6.24-8.54 9.77-14.8 7.87-6.25-1.91-9.77-8.54-7.87-14.8 1.91-6.24 8.54-9.77 14.8-7.87z" fill="#9b9b9b"/><path d="m393 617c-2.7-0.071-25.3-1.98-25.3-1.98s-2.39 0.026-3.32 3.06c-0.766 2.51-1.57 5.13-1.82 5.97 0 0-0.028 0.1-0.085 0.277-0.258 0.856-1.08 3.56-1.85 6.08-0.93 3.04 1.04 4.39 1.04 4.39s19.7 11 22 12.4c2.28 1.45 3.67 0.819 3.67 0.819s2.16-0.696 4.06-1.48c1.9-0.777 2.91-3.19 2.91-3.19l2.62-8.56 0.082-0.277 2.58-8.45s0.503-2.56-0.636-4.27c-1.14-1.71-2.53-3.49-2.53-3.49s-0.729-1.28-3.42-1.34z" fill="#ef9f00"/><circle cx="385" cy="631" r="4.48" opacity=".1"/><circle cx="386" cy="631" r="4.48" fill="#adadad"/><path d="m386 628a2.75 2.75 0 1 1-1.61 5.27 2.76 2.76 0 0 1-1.83-3.44 2.76 2.76 0 0 1 3.44-1.83z" fill="#919191"/><path d="m386 629a2.24 2.24 0 1 1 2e-3 4.47 2.24 2.24 0 0 1-2e-3 -4.47z" fill="#bababa"/><path d="m428 560c-27.7 8.74-26-14.7-26-14.7-7.73 5.04-13.7 13.8-13.7 13.8 15.7 15.7 0.518 29.4 0.518 29.4 3.9 9.95 17 7.61 17 7.61-1.31-22.9 23.3-21.4 23.3-21.4 6-6.77-1.1-14.7-1.1-14.7z" fill="#9b9b9b"/><path d="m391 584a25.1 25.1 0 0 1-1.73 2.32 21.9 21.9 0 0 0 15.7 4.22 20.9 20.9 0 0 1 0.6-3 19 19 0 0 1-8.72-0.565 19 19 0 0 1-5.86-2.97z" opacity=".1"/><path d="m398 548c-2.23 1.88-4.21 3.92-5.81 5.73a19.2 19.2 0 0 1 9.96-3.43 21.3 21.3 0 0 1-0.396-2.87 22 22 0 0 0-3.76 0.57z" opacity=".1"/><path d="m424 575a21.8 21.8 0 0 0-0.924-13.7 38.2 38.2 0 0 1-2.91 0.527 19 19 0 0 1 0.816 13.3c-0.045 0.15-0.098 0.298-0.146 0.441a32 32 0 0 1 3.17-0.522z" opacity=".1"/><circle cx="405" cy="571" r="7.51" fill="#adadad"/><path d="m407 566a4.62 4.62 0 0 1 3.07 5.77 4.62 4.62 0 0 1-5.77 3.06 4.63 4.63 0 0 1-3.07-5.77 4.62 4.62 0 0 1 5.77-3.07z" fill="#919191"/><path d="m406 567a3.76 3.76 0 0 1 2.5 4.69 3.76 3.76 0 0 1-4.69 2.5 3.76 3.76 0 0 1-2.5-4.69 3.76 3.76 0 0 1 4.69-2.5z" fill="#bababa"/><g id="prefix__tape_1_"><path d="m418 530c-22.3-6.8-45.8 5.74-52.6 28-6.81 22.3 5.74 45.8 28 52.6 22.3 6.8 45.8-5.74 52.6-28 6.8-22.3-5.74-45.8-28-52.6zm-5.91 19.3c11.6 3.54 18.1 15.8 14.6 27.4-3.54 11.6-15.8 18.1-27.4 14.6-11.6-3.54-18.1-15.8-14.6-27.4 3.53-11.6 15.8-18.1 27.4-14.6z" fill="#e5b486" style="fill:#ffc300"/><path d="m412 549c-11.6-3.54-23.9 3.01-27.4 14.6-3.54 11.6 3 23.9 14.6 27.4 11.6 3.54 23.9-3.01 27.4-14.6 3.54-11.6-3.01-23.9-14.6-27.4zm-0.844 2.76c10.1 3.07 15.7 13.7 12.7 23.8-3.07 10.1-13.7 15.7-23.8 12.7-10.1-3.07-15.7-13.7-12.7-23.8 3.07-10.1 13.7-15.7 23.8-12.7z" fill="#bababa"/><path d="m427 576c-3.54 11.6-15.8 18.1-27.4 14.6-11.6-3.54-18.1-15.8-14.6-27.4 3.53-11.6 15.8-18.1 27.4-14.6 11.6 3.54 18.1 15.8 14.6 27.4m-39.2-12c-3.07 10.1 2.61 20.7 12.7 23.8 10.1 3.07 20.7-2.61 23.8-12.7 3.07-10.1-2.61-20.7-12.7-23.8-10.1-3.07-20.7 2.61-23.8 12.7m40.1 12.2c3.67-12-3.12-24.8-15.2-28.5-12-3.68-24.8 3.12-28.5 15.2-3.68 12 3.12 24.8 15.2 28.5 12 3.67 24.8-3.13 28.5-15.2zm-39.2-12c2.93-9.59 13.1-15 22.7-12.1 9.59 2.93 15 13.1 12.1 22.7s-13.1 15-22.7 12.1c-9.6-2.93-15-13.1-12.1-22.7z" fill="#878787"/></g><path id="prefix__arm_2_" d="m261 459c-44.3 21.7-51.8 68.2-42.8 93.1 3.22 8.96 54.9 39.1 128 76 17.4-34.3 10.5-101 10.5-101s-27.3-102-95.5-68.3z" fill="#986844"/><path d="m218 552c3.22 8.96 54.9 39.1 128 76-34.8-49.8-126-124-126-125-6.63 17.7-6.33 36-1.77 48.7z" fill="#895d3d"/></g><g transform="matrix(3.78 0 0 3.78 785 116)"><path d="m-140 106c7.86-0.0667 16.1 3.96 19.6 11.3 2.81 5.74 1.39 13-3.03 17.5-1.26 0.953-2.27 2.27-1.98 3.92-0.0669 1.42 0.141 2.87-0.117 4.27-1.68 1.46-3.86-1.07-5.7-1.45-1.89-1.3-4.01-0.246-6.04-0.0761-8.27 0.977-17.4-2.58-21.7-9.99-3.22-5.46-2.52-12.8 1.55-17.6 4.15-5.2 10.9-7.87 17.4-7.85z" style="fill:none;stroke-width:2.72;stroke:#035000"/><g transform="matrix(.333 0 0 .333 -239 96.7)"><g transform="matrix(2.6 0 0 2.6 9047 -3e3)" style="fill:#035000;shape-inside:url(#rect3271);stroke-width:.426;stroke:#035000;white-space:pre" aria-label="пе"><path d="m-3349 1181c0.407 3.15-1.49 6.18-4.11 7.8-4.11 2.78-9.26 3.35-14.1 3.19-4.23-0.23-8.7-1.6-11.5-4.92-1.57-1.9-1.93-4.78-0.523-6.87 1.86-2.9 5.39-3.98 8.6-4.54 2.81-0.47 5.74-0.435 8.47 0.422 0.883 1.2-1.7 1.18-2.48 1.26-3.63 0.393-7.54 0.646-10.6 2.88-1.43 1.02-1.69 3.18-0.332 4.37 2.07 2.3 5.36 2.66 8.27 2.9 4.17 0.286 8.53-0.1 12.3-1.99 1.52-0.849 2.76-2.47 2.57-4.29 0.123-1.23 1.68-2.51 2.82-1.62 0.402 0.348 0.536 0.892 0.615 1.39z" style="fill:#035000;stroke-width:.55;stroke:#035000"/></g><path d="m306 110a9.41 9.41 0 0 1-9.41 9.41 9.41 9.41 0 0 1-9.42-9.41 9.41 9.41 0 0 1 9.42-9.41 9.41 9.41 0 0 1 9.41 9.41z" style="fill:#035000;paint-order:markers fill stroke"/></g></g><path d="m188 528 5.87-45.7h52l-7.74 57.4z" fill="#e5b486" style="fill:#ffc300;stroke-width:.806"/></svg>
