<svg enable-background="new 0 0 24 24" height="512" viewBox="0 0 24 24" width="512" xmlns="http://www.w3.org/2000/svg"><path d="m12 7c-1.93 0-3.5-1.57-3.5-3.5s1.57-3.5 3.5-3.5 3.5 1.57 3.5 3.5-1.57 3.5-3.5 3.5zm0-5.5c-1.103 0-2 .897-2 2s.897 2 2 2 2-.897 2-2-.897-2-2-2z" fill="#546e7a"/><path d="m22.052 24h-20.104c-.521 0-1.011-.229-1.344-.629-.333-.399-.471-.922-.378-1.434l2.636-14.5c.152-.833.876-1.437 1.722-1.437h14.831c.846 0 1.57.604 1.722 1.437l2.636 14.5c.093.512-.044 1.035-.378 1.434-.333.4-.823.629-1.343.629z" fill="#b0bec5"/><g fill="#546e7a"><path d="m6.75 19c-.414 0-.75-.336-.75-.75v-6.5c0-.414.336-.75.75-.75s.75.336.75.75v6.5c0 .414-.336.75-.75.75z"/><path d="m15.5 19c-1.378 0-2.5-1.122-2.5-2.5v-3c0-1.378 1.122-2.5 2.5-2.5s2.5 1.122 2.5 2.5v.25c0 .414-.336.75-.75.75s-.75-.336-.75-.75v-.25c0-.551-.449-1-1-1s-1 .449-1 1v3c0 .551.449 1 1 1s1-.449 1-1h-.75c-.414 0-.75-.336-.75-.75s.336-.75.75-.75h1.5c.414 0 .75.336.75.75v.75c0 1.378-1.122 2.5-2.5 2.5z"/><path d="m10.25 19.062c-.185 0-.371-.068-.516-.205l-3.5-3.312c-.15-.143-.235-.341-.234-.548.001-.208.088-.405.24-.546l3.5-3.25c.304-.282.778-.264 1.06.04.282.303.264.778-.04 1.06l-2.914 2.706 2.919 2.762c.301.285.314.76.029 1.061-.147.154-.345.232-.544.232z"/></g></svg>